<svg width="36" height="36" viewBox="0 0 36 36" fill="none" xmlns="http://www.w3.org/2000/svg">
<path d="M18 36C27.9411 36 36 27.9411 36 18C36 8.05887 27.9411 0 18 0C8.05887 0 0 8.05887 0 18C0 27.9411 8.05887 36 18 36Z" fill="#1C75BC"/>
<path d="M19.8212 24.26H17.1931L15.9914 21.9133L13.1194 16.2829L10.2487 21.9133L9.04698 24.26H6.41895L7.62067 21.9133L13.1207 11.1211L18.6207 21.9133L19.8212 24.26Z" fill="white"/>
<path d="M29.5809 11.1211L28.3792 13.4677L22.8805 24.26L17.3804 13.4677L16.1787 11.1211H18.8067L20.0085 13.4677L22.8805 19.0981L25.7525 13.4677L26.9542 11.1211H29.5809Z" fill="white"/>
</svg>
