<svg width="584" height="434" viewBox="0 0 584 434" fill="none" xmlns="http://www.w3.org/2000/svg">
<g clip-path="url(#clip0_522_9720)">
<path d="M538.019 105.499C471.736 13.2198 331.717 -24.2128 194.012 16.103C121.212 37.4167 51.019 80.1219 16.2331 162.813C-45.9504 310.632 84.6118 357.842 169.985 372.888C211.267 380.164 250.148 392.386 285.677 409.025C349.598 438.961 462.742 465.487 548.06 340.79C609.899 250.41 582.17 166.966 538.019 105.499Z" fill="#F5F5F5"/>
<path d="M153.733 123.757C153.548 122.29 153.173 120.854 152.618 119.484C152.547 119.225 152.423 118.984 152.254 118.775C152.084 118.567 151.874 118.396 151.635 118.273C151.316 118.19 150.981 118.186 150.66 118.262L145.653 119.029C145.234 119.048 144.833 119.204 144.511 119.473C143.858 120.159 144.501 121.264 144.481 122.21C144.458 123.275 143.513 124.139 142.488 124.424C141.441 124.636 140.362 124.623 139.321 124.385L132.32 123.297C134.382 122.638 136.218 121.413 137.617 119.761C138.538 118.669 139.028 116.63 137.697 116.113C137.301 116.004 136.888 115.971 136.481 116.015C133.309 116.04 130.813 113.39 127.843 112.275C125.943 111.607 123.88 111.557 121.949 112.133C120.019 112.708 118.32 113.88 117.095 115.48L120.825 115.66C121.175 115.641 121.523 115.734 121.818 115.925C122.635 116.597 121.619 117.887 121.734 118.94C121.884 120.306 123.698 120.598 125.065 120.736C126.433 120.875 128.167 121.986 127.51 123.193C120.637 125.562 113.643 118.564 106.426 119.425C104.599 119.643 102.874 120.361 101.09 120.813C90.1951 123.571 78.9315 116.212 67.8016 117.771C65.3273 118.193 62.8955 118.834 60.5349 119.688C59.0201 120.186 57.4401 120.723 56.3395 121.877C55.2388 123.031 54.8199 125.005 55.8626 126.212C52.9887 126.449 50.0956 126.173 47.3177 125.399C48.0689 125.817 48.6938 126.429 49.1269 127.172C49.5599 127.915 49.7851 128.76 49.7789 129.62C45.2916 130.352 40.9231 131.685 36.791 133.582C37.5622 134.865 38.463 136.066 39.4792 137.165L33.7983 140.816C35.7176 141.3 36.7099 143.918 35.5938 145.554C37.5838 144.668 38.8172 142.377 40.9452 141.912C42.3393 141.608 43.7579 142.178 45.0804 142.714C46.403 143.25 47.8566 143.77 49.2257 143.368C50.5948 142.966 51.6047 141.189 50.7347 140.058C56.5867 138.35 62.6346 137.404 68.7285 137.245C69.1986 137.186 69.6754 137.277 70.0912 137.504C70.8845 138.055 70.6758 139.244 70.6331 140.209C70.5903 141.174 71.3421 142.442 72.2042 142.007C71.1899 142.887 72.057 144.544 73.03 145.469C74.0031 146.394 75.1759 147.671 74.5801 148.874C74.4247 149.189 74.1609 149.44 74.0114 149.757C73.5698 150.693 74.2709 151.783 75.0978 152.405C75.9248 153.026 76.9378 153.46 77.5122 154.321C78.0866 155.181 77.8258 156.687 76.7986 156.807L73.8789 153.098C72.8814 154.133 72.1975 155.43 71.9066 156.838C75.0027 159.37 75.4684 164.524 72.8764 167.571C71.5518 169.127 69.6681 170.074 68.0241 171.288C66.3801 172.502 64.8589 174.232 64.863 176.276C64.8701 179.808 64.5817 183.09 65.9046 186.365C68.3442 192.403 71.1608 198.282 74.3377 203.967C75.172 205.46 76.2502 207.096 77.9403 207.353C75.8044 202.151 73.8816 196.868 72.1721 191.504C73.2855 191.508 74.5723 191.596 75.2251 192.499C75.7656 193.246 75.6495 194.262 75.8174 195.17C76.031 196.048 76.3873 196.886 76.8719 197.65L87.0715 215.827C87.917 217.334 88.8869 218.951 90.5029 219.561C91.536 219.952 92.7314 219.878 93.6823 220.44C94.4277 220.88 94.9298 221.662 95.6896 222.076C97.8382 223.249 100.826 221 102.834 222.4C103.408 222.8 103.773 223.436 104.302 223.895C106.157 225.501 109.199 224.427 111.34 225.625C112.72 226.398 113.435 227.943 114.17 229.343C116.014 232.849 118.997 236.285 122.947 236.564C124.188 236.652 125.456 236.417 126.669 236.693C127.882 236.969 129.076 238.028 128.881 239.257C128.547 241.365 129.588 243.673 129.308 245.788C128.799 249.641 123.336 251.334 122.867 255.193C122.764 256.037 122.925 256.909 122.724 257.736C122.478 258.75 121.717 259.575 121.447 260.582C120.934 262.491 122.301 264.391 123.803 265.675C125.305 266.96 127.096 268.067 127.917 269.865C128.785 271.765 128.359 273.981 128.641 276.051C129.257 280.57 133.158 283.92 137.174 286.08C138.397 286.738 139.71 287.375 140.502 288.517C141.536 290.007 141.433 291.972 141.778 293.752C142.623 298.113 146.292 301.706 146.396 306.147C146.47 309.303 144.717 312.167 143.669 315.145C142.687 317.998 142.331 321.03 142.627 324.033C142.923 327.037 143.862 329.941 145.382 332.548C146.165 333.872 147.103 335.12 147.657 336.555C148.646 339.116 148.325 342.027 149.237 344.617C150.443 348.041 153.757 350.869 153.44 354.485C154.944 357.61 158.266 359.146 161.606 360.076L167.593 361.744C168.739 362.063 169.937 362.385 171.104 362.154C172.272 361.922 173.386 360.953 173.355 359.763C170.42 359.1 167.39 358.396 164.97 356.606C162.55 354.816 160.892 351.629 161.81 348.762C162.236 347.432 163.142 345.897 162.28 344.798C161.787 344.169 160.886 344.005 160.33 343.431C159.462 342.535 159.76 341.032 160.384 339.952C161.007 338.873 161.909 337.908 162.16 336.687C162.287 336.004 162.203 335.298 161.917 334.665C161.632 334.031 161.16 333.5 160.564 333.142C161.674 332.723 162.684 332.075 163.527 331.24C164.307 330.35 164.667 328.977 164.054 327.965C165.874 328.196 168.023 328.309 169.218 326.916C170.172 325.804 170.107 324.14 169.73 322.724C169.353 321.307 168.715 319.931 168.695 318.465C172.895 318.664 177.103 318.522 181.279 318.038C180.675 316.004 179.303 314.284 177.453 313.245C179.345 312.925 181.068 310.659 181.665 308.835C182.263 307.012 182.11 305.025 181.741 303.142C181.599 302.657 181.58 302.145 181.685 301.651C181.898 300.971 182.564 300.557 183.181 300.203L192.569 294.808C193.129 294.528 193.637 294.153 194.07 293.7C195.054 292.544 194.908 290.799 194.405 289.367C193.901 287.935 193.094 286.588 192.9 285.083C192.32 280.58 197.138 277.349 198.764 273.111C199.402 271.447 199.532 269.639 199.656 267.862C199.788 265.953 199.798 263.735 198.333 262.505C196.929 261.326 194.734 261.589 193.265 260.492C191.917 259.487 191.452 257.533 189.981 256.721C188.644 255.983 186.968 256.453 185.481 256.106C182.864 255.495 181.217 252.477 178.543 252.197C177.035 252.039 175.328 252.777 174.092 251.898C173.003 251.124 172.959 249.567 172.752 248.247C172.388 246.194 171.405 244.302 169.934 242.826C168.463 241.35 166.575 240.36 164.525 239.99C162.97 239.74 161.277 239.835 159.954 238.98C158.614 238.114 158 236.493 156.948 235.294C155.252 233.362 152.581 232.675 150.079 232.087L139.901 229.693C138.094 229.268 135.765 229.043 134.796 230.626C134.509 231.229 134.305 231.868 134.192 232.526C133.829 233.716 133.097 234.761 132.104 235.509C131.11 236.258 129.904 236.672 128.66 236.692C127.807 235.236 126.425 234.166 124.803 233.706C123.771 233.418 122.666 233.386 121.682 232.962C121.146 232.701 120.669 232.332 120.28 231.88C119.891 231.427 119.599 230.9 119.421 230.33C119.243 229.761 119.183 229.161 119.244 228.567C119.306 227.973 119.488 227.399 119.78 226.878C120.367 225.833 120.593 224.623 120.425 223.436C120.256 222.25 119.702 221.151 118.847 220.311C117.116 218.756 114.613 218.38 112.292 218.536C111.684 217.209 112.7 215.712 113.796 214.748C114.891 213.783 116.221 212.835 116.459 211.395C116.834 209.13 113.946 207.41 111.752 208.085C109.559 208.761 108.159 210.892 107.233 212.993C106.702 214.199 106.251 215.468 105.414 216.485C104.576 217.501 103.227 218.229 101.951 217.903C100.145 217.441 99.4479 215.294 99.0482 213.472C98.5119 211.028 97.9724 208.55 98.0848 206.051C98.1972 203.551 99.0395 200.984 100.882 199.292C103.884 196.535 108.49 196.805 112.542 197.245C111.584 196.166 111.821 194.347 112.845 193.331C113.386 192.851 114.036 192.509 114.738 192.337C115.44 192.164 116.174 192.165 116.876 192.341C118.097 192.595 119.197 193.253 119.998 194.209C121.15 195.613 121.477 197.509 122.348 199.104C123.218 200.698 125.175 202.057 126.777 201.202C128.16 200.463 128.38 198.544 128.035 197.013C127.691 195.483 126.96 193.994 127.084 192.43C127.322 189.446 130.414 187.65 133.143 186.421C135.872 185.192 138.996 183.539 139.428 180.577C139.443 179.997 139.552 179.423 139.752 178.878C140.054 178.397 140.475 178.001 140.974 177.729C148.937 172.463 157.033 167.134 166.134 164.257C166.608 164.107 166.663 164.274 167.146 164.156C167.821 163.766 167.374 162.686 166.726 162.25C166.079 161.815 165.213 161.481 165.049 160.718C164.928 160.158 165.259 159.607 165.344 159.04C165.555 157.646 163.888 156.359 162.594 156.916C161.863 155.947 163.31 154.822 164.479 154.5C167.992 153.532 171.598 152.943 175.235 152.742C175.655 152.675 176.085 152.748 176.459 152.95C177.07 153.373 176.992 154.344 176.559 154.949C176.126 155.553 175.453 155.933 174.913 156.444C174.324 157.019 173.903 157.744 173.698 158.541C173.492 159.339 173.509 160.177 173.748 160.965C175.647 161.932 177.711 162.927 179.814 162.586C181.918 162.246 183.784 159.881 182.796 157.993C181.875 156.235 179.11 155.838 178.634 153.911C178.077 151.655 181.27 149.648 180.551 147.438C180.236 146.47 179.272 145.9 178.532 145.201C177.658 144.345 177.064 143.243 176.827 142.042C176.59 140.841 176.721 139.597 177.204 138.472C175.999 138.684 174.761 138.604 173.593 138.238C172.425 137.873 171.362 137.232 170.492 136.371C168.887 134.75 167.606 132.193 165.327 132.265C163.235 132.332 161.433 134.774 159.476 134.029C158.995 133.845 158.488 133.472 158.022 133.691C157.869 133.79 157.74 133.923 157.646 134.079C157.552 134.235 157.495 134.411 157.479 134.592C156.982 136.97 157.837 139.679 156.542 141.734C155.132 143.97 151.872 144.28 150.163 146.296C149.235 147.391 148.876 148.865 148.023 150.019C147.17 151.173 145.361 151.907 144.337 150.901C144.84 149.867 144.978 148.693 144.727 147.57C144.476 146.447 143.852 145.443 142.957 144.721C142.007 144.101 140.983 143.603 139.909 143.238C138.709 142.73 137.567 142.093 136.504 141.339C135.971 141.018 135.538 140.554 135.254 140.001C135.029 139.308 135.059 138.557 135.339 137.885C135.858 136.396 136.774 135.078 137.987 134.072C139.2 133.066 140.664 132.411 142.222 132.177C143.585 131.992 145.17 132.057 146.072 131.019C146.549 130.469 146.799 129.638 147.492 129.415C147.935 129.326 148.395 129.383 148.803 129.577L153.888 131.367C154.455 131.624 155.08 131.727 155.699 131.667C156.007 131.626 156.287 131.469 156.484 131.23C156.681 130.99 156.78 130.685 156.761 130.376C156.599 129.531 155.299 129.125 155.418 128.273C155.484 127.997 155.632 127.747 155.843 127.557C157.678 125.603 159.923 124.079 162.416 123.094C164.908 122.109 167.588 121.688 170.263 121.861C170.905 122.915 169.889 124.164 169.045 125.064C168.2 125.965 167.521 127.573 168.543 128.266C168.961 128.48 169.427 128.585 169.897 128.571C171.149 128.741 172.366 129.11 173.501 129.665C175.258 130.43 176.981 131.267 178.671 132.176C178.522 131.062 178.379 129.887 178.802 128.845C179.224 127.803 180.424 126.985 181.473 127.391C182.483 127.782 183.001 129.121 184.077 129.243C185.513 129.407 186.08 127.285 185.48 125.969C184.88 124.654 183.693 123.553 183.594 122.11C183.527 121.137 183.897 119.93 183.12 119.341C182.844 119.164 182.53 119.054 182.204 119.019L162.805 115.448C161.653 115.236 159.988 115.398 159.937 116.569C159.909 117.223 160.492 117.869 160.234 118.47C159.958 119.111 159.052 119.053 158.392 119.28C157.368 119.631 156.854 120.848 156.952 121.927C157.132 122.999 157.547 124.017 158.167 124.91C156.906 124.382 154.995 124.285 153.733 123.757Z" fill="#3F3D56"/>
<path d="M138.255 107.281C137.032 106.876 135.713 106.857 134.479 107.227C133.245 107.597 132.154 108.338 131.354 109.349C131.035 109.769 130.767 110.349 131.034 110.805C131.418 111.458 132.394 111.2 133.115 110.967C134.173 110.588 135.325 110.561 136.401 110.888C137.077 111.12 137.682 111.531 138.361 111.755C138.692 111.893 139.054 111.939 139.409 111.887C139.763 111.835 140.097 111.687 140.374 111.46C140.84 110.985 140.87 110.245 140.87 109.579C140.903 109.356 140.885 109.129 140.818 108.914C140.752 108.698 140.638 108.501 140.485 108.335C140.213 108.178 139.908 108.087 139.594 108.072C138.891 107.942 138.256 107.57 137.797 107.022" fill="#3F3D56"/>
<path d="M145.25 105.332C144.976 105.318 144.703 105.373 144.457 105.494C144.211 105.616 144 105.798 143.845 106.024C143.69 106.25 143.596 106.513 143.571 106.786C143.547 107.059 143.593 107.334 143.705 107.584C144.546 107.814 145.424 107.871 146.288 107.753C146.718 107.686 147.119 107.493 147.441 107.198C147.762 106.903 147.989 106.52 148.093 106.097C147.076 106.282 146.027 106.082 145.15 105.535" fill="#3F3D56"/>
<path d="M168.718 102.078C166.43 102.564 164.207 103.32 162.096 104.328C163.091 104.711 163.937 105.404 164.509 106.304C165.082 107.204 165.35 108.264 165.274 109.328C165.185 109.737 165.195 110.161 165.304 110.564C165.547 111.154 166.252 111.376 166.872 111.527C167.985 111.866 169.147 112.014 170.31 111.966C170.891 111.936 171.456 111.76 171.953 111.457C172.45 111.153 172.863 110.73 173.156 110.226C173.324 109.748 173.522 109.28 173.748 108.826C175.233 106.563 179.645 109.3 181.239 107.113C181.801 106.342 181.75 105.182 182.482 104.572C182.861 104.306 183.3 104.138 183.759 104.084C186.966 103.447 190.205 102.985 193.462 102.702C195.005 102.567 197.017 102.013 197.029 100.463C191.217 99.3209 185.19 100.132 179.885 102.771C177.974 103.728 175.446 105.743 173.605 104.473C172.916 103.998 172.95 102.718 172.002 102.183C171.032 101.637 169.748 101.859 168.718 102.078Z" fill="#3F3D56"/>
<path d="M187.728 105.636L190.456 106.161C189.954 106.138 189.453 106.223 188.986 106.41C188.519 106.597 188.098 106.882 187.75 107.244C187.401 107.607 187.134 108.04 186.967 108.514C186.799 108.988 186.734 109.493 186.777 109.994C189.332 110.848 192.118 110.017 194.809 110.131C197.501 110.244 200.633 112.168 200.173 114.824C200.034 115.627 199.571 116.429 199.812 117.208C199.981 117.753 200.462 118.14 200.733 118.643C201.299 119.69 200.847 121.014 200.133 121.966C199.418 122.918 198.458 123.678 197.831 124.689C196.272 127.205 197.158 130.458 198.087 133.269C198.355 134.331 198.851 135.322 199.54 136.173C200.917 137.637 203.159 137.764 205.168 137.794C206.63 137.815 208.305 137.743 209.229 136.61C210.436 135.13 209.592 132.822 210.387 131.085C211.109 129.508 212.947 128.832 214.613 128.352C217.665 127.473 220.776 126.725 223.661 125.398C227.244 123.749 230.593 121.179 234.531 120.967C235.636 120.908 236.768 121.038 237.832 120.735C238.896 120.432 239.907 119.512 239.827 118.408C239.758 117.465 238.96 116.772 238.337 116.061C237.713 115.35 237.224 114.256 237.797 113.504L248.119 111.575C247.387 109.58 246.817 106.952 248.499 105.654C249.105 105.185 249.917 104.998 250.434 104.432C251.314 103.466 250.872 101.803 249.855 100.982C248.839 100.161 247.465 99.9707 246.164 99.8625C241.637 99.4864 237.085 99.7349 232.551 99.9836C223.686 100.47 214.821 100.956 205.957 101.442C204.172 101.54 202.112 101.39 200.475 101.999C199.09 102.515 198.104 103.462 196.52 103.794C193.594 104.408 190.375 103.993 187.728 105.636Z" fill="#3F3D56"/>
<path d="M236.61 127.212C236.332 127.168 236.047 127.233 235.816 127.392C235.662 127.561 235.571 127.777 235.557 128.005C235.381 129.01 235.591 130.045 236.145 130.901C236.427 131.322 236.816 131.659 237.272 131.878C237.729 132.096 238.235 132.189 238.739 132.146C239.968 131.989 240.873 130.941 242.003 130.429C243.744 129.641 251.137 128.412 246.023 125.648C244.26 124.695 243.122 125.536 241.732 126.164C240.152 126.973 238.381 127.335 236.61 127.212V127.212Z" fill="#3F3D56"/>
<path d="M281.405 104.075C280.808 104.319 280.308 104.754 279.984 105.312C279.835 105.595 279.8 105.925 279.887 106.234C279.974 106.542 280.176 106.805 280.452 106.968C280.675 107.049 280.911 107.086 281.149 107.079L283.577 107.151C284.608 107.182 285.897 107.402 286.174 108.396C286.38 109.135 285.919 110.084 286.475 110.612C286.714 110.796 287 110.908 287.301 110.934C288.101 111.139 288.936 111.166 289.748 111.013C291.514 110.539 290.586 109.46 291.143 108.499C291.994 107.029 291.847 107.919 293.347 107.077C294.455 106.455 295.886 105.326 294.962 103.741C293.353 100.983 283.778 102.89 281.405 104.075Z" fill="#3F3D56"/>
<path d="M329.331 102.688L327.921 102.876C324.742 103.301 321.544 103.729 318.482 104.685C319.807 105.209 321.198 105.55 322.616 105.7C323.396 105.738 324.171 105.848 324.931 106.029C326.284 106.432 327.647 107.472 328.954 106.939C329.764 106.609 330.028 105.765 330.699 105.317C331.163 105.008 332.921 104.509 333.117 104.197C334.706 101.676 330.552 102.525 329.331 102.688Z" fill="#3F3D56"/>
<path d="M335.522 109.099C333.639 110.153 331.891 111.433 330.319 112.912C329.657 113.535 328.98 114.31 329.04 115.217C329.12 116.424 330.404 117.123 331.517 117.595L336.025 119.504C336.571 118.733 336.071 117.669 335.506 116.911C334.941 116.153 334.269 115.277 334.519 114.365C334.804 113.324 336.072 112.97 337.135 112.79C338.868 112.498 343.542 112.522 342.98 109.728C342.318 106.436 337.262 108.127 335.522 109.099Z" fill="#3F3D56"/>
<path d="M334.616 295.381C334.187 296.624 334.146 298.088 334.888 299.173C335.721 300.391 337.388 300.845 338.83 300.536C340.266 300.154 341.546 299.33 342.49 298.182C343.353 297.219 344.063 296.13 344.595 294.952C345.338 293.116 345.862 291.199 346.156 289.24L347.555 281.889C347.868 280.246 347.856 275.209 344.837 276.85C344.013 277.298 342.104 280.838 341.24 281.842C339.682 283.651 339.476 285.406 338.656 287.598C337.629 290.343 335.565 292.631 334.616 295.381Z" fill="#3F3D56"/>
<path d="M494.032 332.999C493.045 332.613 492.086 332.157 491.164 331.633C490.24 334.175 489.748 336.855 489.71 339.561L496.468 335.735C497.485 335.159 498.637 334.359 498.616 333.191C498.625 333.047 498.595 332.902 498.529 332.774C498.463 332.645 498.364 332.536 498.242 332.459C498.092 332.399 497.928 332.38 497.768 332.404C496.766 332.487 495.852 332.98 494.907 333.323C493.962 333.667 492.856 333.848 491.989 333.339" fill="#3F3D56"/>
<path d="M529.683 335.272C528.941 335.474 528.217 335.734 527.516 336.05C525.965 336.84 524.91 338.339 523.514 339.379C522.179 340.374 520.571 340.92 518.993 341.451C518.529 341.862 518.742 342.689 519.246 343.05C519.788 343.358 520.409 343.498 521.031 343.451C522.67 343.487 524.398 343.503 525.834 342.711C526.643 342.186 527.4 341.584 528.095 340.915C529.774 339.513 531.791 338.588 533.787 337.695C534.514 337.42 535.185 337.018 535.771 336.508C537.025 335.272 537.113 333.364 535.305 332.943C533.843 332.603 531.074 334.822 529.683 335.272Z" fill="#3F3D56"/>
<path d="M545.435 324.977C545.516 324.126 545.403 323.268 545.104 322.468C544.805 321.667 544.329 320.945 543.71 320.355C543.692 322.058 543.64 323.871 542.683 325.278C542.001 326.281 540.932 326.959 540.185 327.914C539.438 328.869 539.107 330.383 539.983 331.222C540.543 331.648 541.225 331.883 541.929 331.892C543.673 332.097 545.691 332.212 546.915 330.951C547.582 330.263 547.907 329.244 548.721 328.738C549.025 328.611 549.296 328.417 549.514 328.171C549.85 327.636 549.316 326.931 548.715 326.739C548.113 326.546 547.451 326.637 546.846 326.454C546.242 326.271 545.687 325.591 545.998 325.04" fill="#3F3D56"/>
<path d="M517.439 262.571C516.524 262.793 515.576 262.849 514.641 262.736C513.089 262.45 511.88 261.279 510.627 260.319C507.647 258.049 504.025 256.783 500.28 256.702C496.874 256.638 493.436 257.562 490.091 256.917C490.309 258.134 491.35 259.046 492.46 259.588C493.57 260.13 494.795 260.403 495.91 260.934C497.696 261.793 499.113 263.268 499.9 265.087C500.259 265.926 500.485 266.839 501.029 267.571C502.141 269.069 504.249 269.397 506.11 269.275C508.535 269.115 511.068 268.417 513.325 269.321C515.051 270.013 516.287 271.525 517.728 272.7C519.169 273.875 521.199 274.748 522.855 273.9C521.135 273.343 519.639 272.251 518.584 270.783C517.529 269.315 516.971 267.549 516.991 265.741C518.614 265.89 523.289 265.832 523.037 263.073C522.824 260.734 518.833 262.318 517.439 262.571Z" fill="#3F3D56"/>
<path d="M496.204 281.599C496.492 280.017 498.068 278.62 497.577 277.09C497.238 276.031 496.011 275.509 494.9 275.482C493.789 275.456 492.698 275.787 491.587 275.819C490.864 275.78 490.139 275.79 489.417 275.849C487.212 276.212 485.853 278.524 483.775 279.346C482.512 279.846 481.092 279.751 479.778 280.096C476.795 280.881 474.908 283.701 472.823 285.975C469.454 289.632 465.064 292.193 460.224 293.326C458.527 293.719 456.704 293.97 455.356 295.072C453.571 296.532 453.131 299.033 452.734 301.305C451.637 307.58 449.96 313.74 447.725 319.704L454.808 320.609C456.154 320.781 457.55 320.949 458.847 320.55C459.79 320.194 460.683 319.718 461.504 319.134C464.659 317.175 468.19 315.9 471.868 315.392C473.723 315.137 475.667 315.09 477.408 315.78C479.149 316.47 480.642 318.034 480.788 319.901C481.54 319.667 482.343 319.642 483.109 319.828C483.875 320.015 484.576 320.406 485.137 320.96C486.246 322.09 486.972 323.541 487.213 325.107C487.4 326.076 487.586 327.238 488.485 327.644C489.219 327.976 490.061 327.619 490.863 327.555C493.586 327.337 495.846 330.513 498.523 329.966C501.393 329.38 502.098 325.078 504.898 324.217C506.507 323.722 508.763 324.324 509.533 322.827C510.212 321.508 508.858 319.985 508.997 318.508C509.169 316.689 511.314 315.917 512.967 315.14C518.667 312.465 521.372 304.789 518.61 299.128C516.974 295.774 513.753 293.134 513.159 289.45C512.701 286.615 513.818 283.309 512.012 281.078C511.093 279.943 509.537 279.316 508.99 277.962C508.646 277.109 508.784 276.142 508.599 275.241C508.413 274.34 507.628 273.398 506.739 273.632C504.159 274.309 503.335 282.285 501.954 284.222C499.854 287.168 495.542 285.228 496.204 281.599Z" fill="#3F3D56"/>
<path d="M448.508 265.584C447.626 265.337 446.663 265.093 445.818 265.447C444.973 265.8 444.48 267.041 445.158 267.657C450.463 267.451 455.801 267.245 461.061 267.966C467.121 268.796 473.119 270.854 479.206 270.248C475.729 269.222 472.195 268.402 468.621 267.791L462.662 266.652C461.064 266.317 459.448 266.067 457.823 265.904C454.424 265.623 451.851 266.522 448.508 265.584Z" fill="#3F3D56"/>
<path d="M453.819 247.099C453.379 247.062 452.833 247.03 452.605 247.409C452.388 247.771 452.637 248.249 452.52 248.655C452.36 249.21 451.634 249.351 451.062 249.276C450.49 249.2 449.872 249.02 449.365 249.295C449.108 249.471 448.915 249.725 448.815 250.02C448.714 250.315 448.712 250.634 448.809 250.93C449.016 251.518 449.351 252.052 449.79 252.494C450.539 253.439 451.393 254.296 452.335 255.049C454.158 256.395 456.628 257.044 457.777 258.999C457.939 259.378 458.188 259.713 458.504 259.977C459.055 260.327 459.774 260.061 460.367 259.79L462.448 258.838C462.823 258.703 463.157 258.476 463.421 258.177C463.896 257.531 463.604 256.614 463.205 255.919C462.806 255.223 462.295 254.504 462.381 253.707C462.534 252.286 464.36 251.742 465.111 250.527C465.868 249.301 465.375 247.722 465.462 246.284C465.564 244.602 466.621 242.414 464.921 241.158C463.477 240.09 462.096 241.077 461.06 242.256C458.873 244.742 457.839 247.434 453.819 247.099Z" fill="#3F3D56"/>
<path d="M466.449 221.971C467.159 223.332 468.64 224.144 469.415 225.469C470.254 226.905 470.159 228.761 471.069 230.153C472.004 231.582 473.885 232.34 474.409 233.965C474.981 235.739 473.683 237.894 474.717 239.444C474.91 239.698 475.154 239.908 475.432 240.062C475.711 240.217 476.019 240.311 476.336 240.34C476.653 240.37 476.972 240.332 477.274 240.232C477.576 240.131 477.854 239.968 478.09 239.754C478.526 239.279 478.76 238.652 478.741 238.007C478.721 237.362 478.451 236.75 477.988 236.301C477.375 235.742 476.495 235.501 475.984 234.848C475.717 234.471 475.54 234.039 475.465 233.584C475.186 232.27 475.23 230.909 475.595 229.616C475.732 229.288 475.766 228.927 475.694 228.579C475.464 227.909 474.558 227.861 473.922 227.551C472.477 226.845 472.512 224.805 472.764 223.216C472.596 224.274 468.83 222.475 468.436 221.876C467.652 220.685 468.079 218.389 467.924 217.074C466.232 217.89 465.58 220.307 466.449 221.971Z" fill="#3F3D56"/>
<path d="M428.51 242.906C427.815 242.128 426.768 241.313 425.836 241.783C425.125 242.141 424.929 243.125 425.208 243.871C425.548 244.596 426.07 245.219 426.724 245.68C428.666 247.282 430.758 248.728 432.452 250.591C435.483 253.924 437.09 258.422 440.387 261.493C441.05 262.205 441.927 262.68 442.885 262.846C443.846 262.935 444.925 262.32 445.035 261.361C445.126 260.571 444.576 259.864 444.038 259.279C442.757 257.885 441.355 256.602 440.146 255.146C439.587 254.586 439.236 253.853 439.151 253.067C439.145 252.283 439.859 251.462 440.619 251.656C439.695 251.42 439.01 249.88 437.655 249.591C436.522 249.349 436.248 250.051 434.899 249.472C432.328 248.369 430.311 244.923 428.51 242.906Z" fill="#3F3D56"/>
<path d="M488.931 167.105C488.193 166.886 487.468 166.626 486.758 166.329C484.849 165.755 482.323 167.159 482.577 169.137C482.747 170.451 483.969 171.338 484.644 172.477C485.645 174.168 485.379 176.312 484.852 178.205C484.723 178.792 484.478 179.346 484.13 179.835C483.644 180.352 483.063 180.77 482.419 181.067C479.841 182.513 477.567 184.446 475.724 186.758C475.523 186.971 475.383 187.234 475.319 187.52C475.228 188.188 475.899 188.674 476.278 189.231C477.121 190.469 476.512 192.134 476.595 193.629C476.583 193.84 476.624 194.051 476.716 194.242C476.807 194.433 476.946 194.597 477.119 194.719C477.627 194.978 478.229 194.539 478.504 194.04C479.418 192.384 478.729 189.726 480.443 188.928C480.767 188.777 481.16 188.713 481.377 188.428C481.72 187.976 481.389 187.307 481.563 186.767C481.824 185.955 482.933 185.919 483.784 185.955C485.25 186.016 486.715 185.821 488.114 185.378C488.663 185.248 489.161 184.959 489.547 184.548C490.06 183.908 490.014 182.999 489.912 182.185C489.399 178.131 488.115 174.212 486.13 170.64C487.635 170.832 489.273 170.999 490.572 170.214C491.3 169.775 492.172 168.46 491.811 167.565C491.241 166.151 490.21 167.341 488.931 167.105Z" fill="#3F3D56"/>
<path d="M295.928 189.407C296.108 190.373 296.286 191.391 295.969 192.322C295.652 193.253 294.656 194.031 293.715 193.746C292.985 193.524 292.564 192.79 292.045 192.23C289.162 189.116 282.658 190.919 280.877 187.067C280.151 185.495 280.645 183.611 280.149 181.952C279.836 180.992 279.214 180.164 278.38 179.597C277.545 179.03 276.547 178.757 275.54 178.819C274.622 178.952 273.729 179.219 272.888 179.611C267.257 181.867 261.346 183.347 255.317 184.008C254.171 184.078 253.038 184.284 251.941 184.623C249.465 185.521 247.773 187.817 246.57 190.16C245.366 192.503 244.477 195.04 242.863 197.122C241.167 199.31 238.79 200.842 236.573 202.499C235.719 203.05 235.008 203.796 234.498 204.675C234.017 205.662 234.044 206.811 234.082 207.908L234.535 221.238C234.593 222.953 234.666 224.729 235.433 226.263C236.391 228.179 238.283 229.434 239.596 231.126C240.935 232.866 241.633 235.015 241.571 237.21C241.543 238.092 241.456 239.136 242.143 239.69C242.56 239.961 243.049 240.102 243.547 240.094L261.57 241.57C264.741 241.83 268.254 242.257 270.324 244.673C271.301 245.814 272.086 247.454 273.582 247.576C274.224 247.629 274.848 247.365 275.49 247.314C277.11 247.186 278.533 248.416 279.431 249.77C280.79 251.835 281.407 254.301 281.18 256.762C281.033 258.308 280.554 259.81 280.451 261.359C280.058 267.252 285.051 272.372 285.148 278.278C285.205 281.752 283.557 284.997 281.95 288.077C284.544 292.008 282.42 297.242 283.452 301.838C284.432 306.197 288.065 309.611 288.971 313.986C289.385 315.99 289.409 318.455 291.175 319.487C291.95 319.864 292.808 320.036 293.669 319.986C298.859 320.048 303.989 318.879 308.641 316.576C310.824 315.492 313.087 313.874 313.468 311.466C313.776 309.523 312.791 307.351 313.793 305.659C314.974 303.665 317.999 303.823 319.736 302.29C322.555 299.803 320.357 295.06 321.499 291.478C322.525 288.258 326.059 286.548 327.81 283.658C328.5 282.415 328.994 281.074 329.277 279.681C330.08 276.352 330.579 272.957 330.769 269.537C330.816 267.46 330.969 265.386 331.228 263.324C333.117 251.586 344.715 243.726 348.481 232.45C348.841 231.373 349.01 229.939 348.052 229.329C347.484 229.058 346.84 228.991 346.228 229.138L337.92 230.186C336.888 230.317 335.794 230.438 334.847 230.009C333.899 229.581 333.22 228.381 333.723 227.47C335.134 224.913 332.231 221.681 330.941 219.061C327.468 212.004 323.333 205.294 318.59 199.02C318.287 198.698 318.096 198.285 318.049 197.844L320.407 197.923C319.611 195.065 318.297 191.938 315.522 190.893C313.959 190.304 312.227 190.508 310.559 190.599C305.78 190.86 300.658 190.138 295.928 189.407Z" fill="#3F3D56"/>
<path d="M310.563 125.011C311.813 126.34 313.214 127.748 315.023 127.98C318.219 128.389 320.516 125.083 321.979 122.211C322.033 122.943 322.371 123.625 322.92 124.112C323.469 124.599 324.186 124.853 324.919 124.819C325.708 124.686 326.461 124.391 327.13 123.954C333.461 120.492 340.553 118.658 347.768 118.616C347.698 118.069 347.834 117.516 348.148 117.064C348.463 116.611 348.933 116.291 349.47 116.165C350.936 115.874 352.258 117.143 352.965 118.461C353.673 119.779 354.114 121.307 355.239 122.293C356.363 123.28 358.54 123.237 358.984 121.808C359.41 120.437 357.982 119.267 356.795 118.458C355.609 117.65 354.358 116.153 355.157 114.96C361.219 113.617 367.318 112.27 373.521 112.003C374.578 112.039 375.63 111.858 376.613 111.47C377.559 111.005 378.311 109.951 378.056 108.928C376.703 109.247 375.285 109.154 373.984 108.663C372.683 108.172 371.557 107.305 370.751 106.171C379.358 105.461 388.513 104.855 396.141 108.907C397.056 110.873 392.391 112.509 393.639 114.282C394.037 114.847 394.835 114.914 395.526 114.927C400.827 115.025 406.158 115.122 411.399 114.321C413.314 114.028 415.248 113.615 417.171 113.852C420.374 114.248 423.113 116.386 426.264 117.083C427.547 117.366 428.985 117.376 430.066 116.63C431.147 115.884 431.612 114.184 430.726 113.214C433.692 110.305 438.616 111.026 442.53 112.419C446.444 113.811 450.152 116.057 454.294 116.368C457.264 116.59 460.276 115.791 463.211 116.299C465.056 116.618 466.772 117.439 468.575 117.944C471.985 118.898 475.591 118.696 479.131 118.742C488.164 118.864 497.098 120.64 505.49 123.982C506.582 124.338 507.582 124.929 508.421 125.714C509.201 126.551 509.6 127.851 509.075 128.868L500.402 127.601C501.22 129.21 503.333 129.484 505.05 130.039C506.767 130.595 508.547 132.491 507.515 133.972C505.655 133.38 503.969 135.24 503.03 136.952C502.09 138.664 500.945 140.714 498.996 140.819C497.25 140.912 495.139 139.425 494.001 140.753C495.573 142.736 496.919 144.889 498.015 147.172C499.139 149.515 499.939 152.467 498.42 154.575C498.181 154.951 497.818 155.232 497.395 155.37C496.154 155.685 495.348 154.166 494.458 153.245C493.337 152.085 491.641 151.757 490.122 151.213C488.604 150.669 487.004 149.599 486.885 147.99C486.812 146.988 487.34 146.058 487.729 145.132C488.383 143.572 488.669 141.883 488.565 140.194C488.48 138.836 488.099 137.423 487.124 136.474C486.149 135.525 484.466 135.224 483.419 136.093C482.931 136.499 482.539 137.148 481.905 137.172C480.785 137.215 479.924 135.26 479.022 135.927C479.128 136.638 478.981 137.364 478.606 137.977C475.916 140.318 471.782 139.328 468.314 140.155C466.665 140.627 465.085 141.317 463.618 142.206C463.069 142.441 462.602 142.833 462.276 143.334C461.843 144.175 462.32 145.253 463.084 145.813C463.893 146.31 464.802 146.62 465.746 146.722C469.975 147.524 474.265 148.764 477.604 151.481C480.942 154.199 483.131 158.691 482.075 162.865L473.736 154.893C474.053 158.24 474.232 161.597 474.275 164.962C474.329 165.619 474.239 166.28 474.011 166.899C473.416 168.213 471.805 168.655 470.393 168.945C470 169.019 469.628 169.176 469.3 169.405C468.972 169.634 468.697 169.93 468.491 170.273C468.286 170.616 468.155 170.999 468.108 171.396C468.061 171.793 468.098 172.195 468.218 172.577C468.719 174.213 469.97 175.488 471.115 176.759C472.261 178.03 473.388 179.474 473.538 181.179C473.688 182.884 472.402 184.805 470.696 184.686C469.403 184.597 468.443 183.438 467.891 182.264C467.34 181.09 467.011 179.783 466.182 178.785C463.673 175.766 458.038 177.06 455.79 173.841C455.217 174.491 454.82 175.277 454.636 176.124C454.452 176.971 454.488 177.851 454.739 178.681C455.785 178.026 457.216 178.634 458.002 179.586C458.788 180.538 459.158 181.758 459.775 182.826C460.608 184.269 461.933 185.547 462.049 187.209C462.018 187.837 462.029 188.466 462.08 189.093C462.287 190.1 463.137 190.823 463.727 191.664C465.099 193.622 465.031 196.312 464.147 198.533C463.263 200.755 461.674 202.611 460.1 204.411C457.352 207.554 454.547 210.679 451.288 213.289C450.358 214.034 449.366 214.766 448.787 215.808C448.208 216.849 448.178 218.311 449.068 219.103C448.431 219.135 447.289 219.448 446.653 219.48C446.429 216.925 446.38 214.357 446.507 211.795C443.994 210.587 441.289 213.82 441.613 216.59C441.937 219.36 443.94 221.583 445.365 223.979C446.408 225.731 447.183 227.775 446.835 229.784C446.487 231.794 444.694 233.647 442.663 233.47C439.433 233.188 438.082 228.549 434.883 228.018C434.601 227.952 434.305 227.981 434.042 228.102C433.567 228.362 433.484 228.998 433.458 229.539C433.327 232.196 433.213 234.957 434.25 237.406C435.766 240.989 439.683 243.998 438.861 247.801C434.435 245.743 432.134 240.776 431.089 236.006C430.044 231.236 429.87 226.228 427.997 221.718C426.574 223.542 423.585 222.035 422.285 220.121C421.053 218.307 420.295 216.209 419.1 214.371C417.904 212.532 416.073 210.886 413.884 210.785C411.588 210.679 409.597 212.255 407.846 213.745C406.406 214.969 404.928 216.242 404.086 217.935C402.861 220.398 403.181 223.303 403.122 226.053C403.059 229.027 402.429 232.165 400.403 234.342C398.377 236.519 394.638 237.277 392.403 235.315C391.237 234.291 390.672 232.76 390.169 231.291C387.743 224.21 385.724 216.996 384.119 209.685C383.744 211.353 382.279 213.504 380.88 212.521C380.566 212.257 380.312 211.929 380.134 211.559C377.524 207.134 372.69 204.479 367.807 202.888C362.923 201.296 357.785 200.553 352.956 198.804C350.25 197.824 347.665 196.535 345.252 194.965C344.637 195.869 344.278 196.923 344.213 198.014C344.148 199.106 344.379 200.195 344.882 201.166C345.953 203.063 348.377 204.161 350.453 203.498C351.525 203.155 352.43 202.41 353.494 202.043C354.558 201.675 355.987 201.855 356.452 202.881C356.897 203.863 356.224 205.05 356.558 206.075C357.066 207.636 359.42 207.757 360.243 209.177C360.855 210.234 360.351 211.638 359.477 212.491C358.603 213.343 357.436 213.811 356.369 214.405C352.907 216.331 350.444 219.62 347.418 222.178C344.392 224.737 340.123 226.605 336.516 224.964C337.376 220.608 332.191 217.411 331.237 213.076C330.923 211.649 331.086 210.133 330.637 208.742C329.988 206.729 328.203 205.345 326.738 203.819C324.962 201.948 323.578 199.74 322.668 197.326C321.758 194.911 321.341 192.339 321.441 189.761C321.52 187.969 321.849 186.148 321.441 184.402C321.033 182.655 319.588 180.965 317.797 181.044C313.706 181.225 308.553 181.529 306.407 178.04C305.641 176.795 305.308 174.972 306.415 174.018C307.197 173.345 308.35 173.408 309.376 173.509L318.592 174.416C320.748 174.629 323.078 174.804 324.927 173.676C326.777 172.549 327.579 169.556 325.866 168.23C324.614 167.26 322.372 167.313 322.008 165.772C321.705 164.489 323.125 163.033 322.358 161.96C321.809 161.191 320.572 161.404 319.823 161.981C319.074 162.557 318.531 163.4 317.692 163.837C316.222 164.603 314.465 163.874 312.882 163.379C311.3 162.883 309.179 162.841 308.412 164.312C307.553 165.956 309.173 168.11 308.321 169.758C307.195 171.936 303.381 170.696 301.8 172.57C299.985 174.72 303.035 177.926 302.423 180.673C301.641 181.06 300.773 181.238 299.902 181.189C299.032 181.14 298.189 180.866 297.455 180.394C296.734 179.903 296.16 179.226 295.793 178.435C295.425 177.643 295.28 176.767 295.371 175.9C295.522 174.664 296.166 173.403 295.734 172.235C295.386 171.291 294.438 170.729 293.558 170.242L284.602 165.29C283.77 166.834 284.821 168.747 286.136 169.906C287.451 171.065 289.097 171.938 289.961 173.464C290.507 174.521 290.63 175.746 290.303 176.89C289.977 178.035 289.226 179.011 288.205 179.62C288.077 179.709 287.931 179.768 287.778 179.795C287.625 179.822 287.467 179.815 287.317 179.775C287.174 179.691 287.049 179.579 286.951 179.446C286.852 179.313 286.78 179.162 286.741 179C285.161 174.955 282.788 170.966 278.995 168.852C275.202 166.739 269.752 167.173 267.265 170.733C266.674 171.579 266.277 172.543 265.763 173.437C263.028 178.187 257.166 180.436 251.689 180.289C251.154 180.319 250.621 180.194 250.154 179.928C249.269 179.317 249.309 178.019 249.444 176.951L250.019 172.42C250.135 171.511 250.302 170.505 251.022 169.937C252.036 169.136 253.5 169.642 254.792 169.623C255.771 169.577 256.712 169.231 257.488 168.632C258.264 168.033 258.837 167.21 259.129 166.274C259.39 165.329 259.389 164.331 259.124 163.387C258.86 162.443 258.343 161.589 257.63 160.916C257.038 160.36 256.243 159.661 256.556 158.911C256.68 158.703 256.849 158.526 257.05 158.39C257.251 158.255 257.479 158.165 257.718 158.128C260.039 157.453 262.491 157.277 264.773 156.481C267.056 155.685 269.269 154.058 269.809 151.701C269.975 150.979 270.051 150.104 270.699 149.746C271.024 149.608 271.374 149.537 271.727 149.535C272.964 149.359 274.091 148.726 274.885 147.761C275.679 146.795 276.083 145.567 276.017 144.319C277.111 143.554 278.644 144.116 279.702 144.93C280.76 145.743 281.694 146.817 282.981 147.168C285.381 147.821 287.7 145.696 290.186 145.686C291.232 145.682 292.315 146.052 293.298 145.697C294.296 145.338 294.891 144.344 295.657 143.61C296.422 142.877 297.765 142.429 298.472 143.22L297.87 138.759C299.082 139.066 300.346 139.109 301.576 138.886C302.806 138.664 303.975 138.181 305.003 137.469L297.224 134.84C296.953 134.772 296.703 134.638 296.497 134.45C295.931 133.841 296.493 132.892 296.953 132.199C298.053 130.542 298.238 127.813 296.428 126.988C295.194 126.425 293.776 127.101 292.591 127.762L286.913 130.93C286.733 132.009 288.053 132.621 288.871 133.348C289.365 133.788 289.716 134.368 289.875 135.011C290.035 135.653 289.996 136.33 289.765 136.95C289.533 137.571 289.12 138.106 288.578 138.487C288.037 138.868 287.393 139.077 286.731 139.085C287.105 139.571 287.364 140.135 287.491 140.736C287.617 141.336 287.607 141.957 287.461 142.553L283.641 142.828C283.212 142.914 282.767 142.827 282.402 142.586C281.993 142.223 282.049 141.587 281.954 141.048C281.726 139.749 280.454 138.838 279.156 138.604C277.858 138.371 276.53 138.67 275.245 138.966C274.699 139.162 274.099 139.148 273.563 138.927C273.256 138.727 273.022 138.432 272.898 138.087C272.335 136.72 272.861 135.113 273.766 133.944C274.671 132.775 275.91 131.921 277.023 130.948C279.684 128.612 281.639 125.578 282.667 122.189C284.77 121.308 286.947 120.11 289.05 119.228C292.292 117.586 295.928 116.881 299.548 117.193L306.67 117.33C308.778 117.37 310.944 117.421 312.893 118.226C314.843 119.03 316.556 120.769 316.691 122.875C316.731 123.113 316.711 123.358 316.631 123.586C316.551 123.814 316.415 124.019 316.234 124.18C315.959 124.33 315.647 124.4 315.334 124.383C313.367 124.452 312.529 124.942 310.563 125.011Z" fill="#3F3D56"/>
<path d="M253.799 147.341C254.077 147.077 254.278 146.742 254.378 146.372C254.478 146.002 254.475 145.612 254.367 145.244C253.69 144.983 252.954 144.915 252.241 145.05C251.528 145.185 250.866 145.516 250.331 146.006C249.909 146.433 249.546 146.914 249.25 147.437C248.314 148.964 247.486 150.789 248.029 152.496C248.073 152.682 248.154 152.858 248.267 153.012C248.38 153.167 248.522 153.297 248.686 153.396C248.929 153.493 249.191 153.534 249.453 153.516C250.484 153.515 251.513 153.451 252.537 153.326C253.165 153.249 253.895 153.072 254.138 152.487C254.457 151.718 253.684 150.848 253.91 150.046C254.058 149.688 254.282 149.366 254.568 149.103C254.709 148.971 254.818 148.807 254.885 148.626C254.953 148.444 254.977 148.249 254.956 148.057C254.865 147.681 254.289 147.467 254.082 147.794" fill="#3F3D56"/>
<path d="M259.145 140.406C258.229 140.196 257.285 140.137 256.35 140.231C256.143 140.225 255.938 140.271 255.755 140.366C255.577 140.498 255.447 140.685 255.388 140.898C255.19 141.532 255.239 142.217 255.524 142.817C255.808 143.417 256.309 143.888 256.925 144.135C257.261 144.212 257.582 144.341 257.878 144.518C258.668 145.132 258.165 146.386 258.314 147.376C258.482 148.487 259.557 149.42 259.36 150.526C259.205 151.398 258.274 152.088 258.424 152.961C258.581 153.875 259.74 154.15 260.665 154.223C261.2 154.317 261.751 154.253 262.252 154.041C262.753 153.698 263.11 153.181 263.253 152.59C263.631 151.463 263.79 150.274 263.721 149.088C263.717 148.548 263.582 148.018 263.327 147.542C263.049 147.166 262.74 146.812 262.404 146.486C260.634 144.425 262.498 141.352 259.145 140.406Z" fill="#3F3D56"/>
<path opacity="0.8" d="M491.96 301.814C491.96 301.814 356.359 223.939 297.981 238.694C297.981 238.694 174.26 252.015 159.921 281.321C159.921 281.321 120.592 158.36 106.254 154.262" stroke="#0091CD" stroke-width="2" stroke-miterlimit="10"/>
<path opacity="0.8" d="M159.921 281.32C182.658 220.66 387.494 153.441 387.494 153.441C358.407 160.819 297.981 238.694 297.981 238.694C297.981 238.694 170.163 145.654 106.254 154.261C106.254 154.261 387.699 163.483 491.96 301.814" stroke="#0091CD" stroke-width="2" stroke-miterlimit="10"/>
<path d="M103.94 158.886C107.221 158.886 109.881 156.225 109.881 152.943C109.881 149.661 107.221 147 103.94 147C100.66 147 98 149.661 98 152.943C98 156.225 100.66 158.886 103.94 158.886Z" fill="#0091CD"/>
<path d="M159.921 287.263C163.202 287.263 165.861 284.602 165.861 281.32C165.861 278.038 163.202 275.377 159.921 275.377C156.64 275.377 153.981 278.038 153.981 281.32C153.981 284.602 156.64 287.263 159.921 287.263Z" fill="#0091CD"/>
<path d="M387.494 159.384C390.775 159.384 393.434 156.723 393.434 153.441C393.434 150.159 390.775 147.498 387.494 147.498C384.213 147.498 381.554 150.159 381.554 153.441C381.554 156.723 384.213 159.384 387.494 159.384Z" fill="#0091CD"/>
<path d="M491.96 307.757C495.241 307.757 497.901 305.096 497.901 301.814C497.901 298.532 495.241 295.871 491.96 295.871C488.68 295.871 486.02 298.532 486.02 301.814C486.02 305.096 488.68 307.757 491.96 307.757Z" fill="#0091CD"/>
<path d="M295.667 243.32C298.948 243.32 301.607 240.659 301.607 237.377C301.607 234.094 298.948 231.434 295.667 231.434C292.386 231.434 289.727 234.094 289.727 237.377C289.727 240.659 292.386 243.32 295.667 243.32Z" fill="#0091CD"/>
</g>
<defs>
<clipPath id="clip0_522_9720">
<rect width="584" height="434" fill="white"/>
</clipPath>
</defs>
</svg>
