<svg width="567" height="369" viewBox="0 0 567 369" fill="none" xmlns="http://www.w3.org/2000/svg">
<g clip-path="url(#clip0_522_9753)">
<path d="M38.1577 278.062C35.4653 278.062 32.7674 278.169 30.1327 278.384L29.7492 278.415C12.273 279.902 -0.510089 288.527 0.0156428 298.479L0.117279 300.278C0.184303 301.416 0.255714 302.639 0.314493 303.995C0.346329 304.665 1.29511 305.178 2.47569 305.178H432.349C462.657 305.001 492.855 304.778 522.1 304.516C527.585 304.527 533.066 304.253 538.521 303.697C546.648 302.771 552.289 300.936 555.767 298.087H555.768C560.094 294.555 560.23 290.106 559.969 285.08C559.436 274.931 558.907 264.269 558.38 253.639C557.914 244.271 557.45 234.928 556.987 225.983C556.7 220.675 556.063 215.989 551.15 212.408C545.826 208.535 536.115 206.572 522.288 206.572C522.121 206.572 521.955 206.572 521.786 206.573C478.452 206.721 435.515 221.06 414.944 242.253C412.575 244.694 410.368 247.306 408.233 249.834C405.079 253.567 401.818 257.426 397.926 260.878C395.819 262.772 393.54 264.481 391.117 265.985C390.95 266.096 390.759 266.215 390.557 266.328C390.094 266.618 389.611 266.898 389.14 267.147C386.38 268.681 383.472 269.953 380.456 270.946L380.152 271.044C379.923 271.123 379.675 271.202 379.426 271.274C377.685 271.812 375.876 272.277 374.063 272.653C366.222 274.316 357.305 274.715 347.562 273.837C338.615 273.009 329.783 271.277 321.212 268.67C312.19 265.926 303.745 262.505 295.579 259.197C291.991 257.743 288.281 256.24 284.575 254.816C283.879 254.548 283.194 254.286 282.498 254.025C277.973 252.327 273.87 250.925 269.955 249.739C260.256 246.788 250.217 244.999 240.063 244.411C229.286 243.843 219.788 244.914 211.841 247.587C209.65 248.321 207.517 249.205 205.458 250.233C196.045 254.937 190.242 261.88 184.631 268.594C177.651 276.944 170.433 285.58 156.18 290.057C139.734 295.227 115.728 293.08 98.7439 289.344C93.4041 288.169 88.0709 286.818 82.913 285.511C80.8298 284.983 78.7452 284.458 76.6591 283.937C72.5597 282.919 69.2048 282.139 66.1009 281.48L65.1192 281.27C64.5731 281.156 64.0265 281.041 63.47 280.933C59.7833 280.188 56.3503 279.602 52.9696 279.141L52.1697 279.028C50.5661 278.825 49.0669 278.656 47.5957 278.514L47.0085 278.457C44.1271 278.194 41.1451 278.062 38.1577 278.062Z" fill="#F2F2F2"/>
<path d="M482.672 289.17C494.768 278.68 512.759 273.406 527.851 279.288C512.37 287.559 500.428 300.833 494.139 316.761C491.736 322.912 489.729 329.995 483.82 333.288C480.143 335.337 475.568 335.437 471.446 334.448C467.323 333.459 463.544 331.476 459.817 329.512L458.756 329.489C463.517 314.505 470.576 299.659 482.672 289.17Z" fill="#E6E6E6"/>
<path d="M527.766 279.606C514.4 281.268 501.918 286.941 492.093 295.819C489.943 297.694 488.113 299.883 486.671 302.306C485.346 304.711 484.714 307.413 484.84 310.132C484.906 312.669 485.278 315.257 484.701 317.766C484.386 319.046 483.793 320.247 482.962 321.291C482.131 322.335 481.08 323.198 479.877 323.823C476.924 325.457 473.537 325.972 470.206 326.365C466.508 326.801 462.659 327.198 459.458 329.194C459.07 329.436 458.703 328.843 459.09 328.601C464.66 325.128 471.707 326.392 477.696 324.074C480.49 322.993 482.963 321.094 483.838 318.224C484.604 315.714 484.222 313.044 484.133 310.476C483.969 307.825 484.482 305.176 485.627 302.76C486.936 300.274 488.675 298.02 490.77 296.096C495.414 291.69 500.749 288.015 506.579 285.204C513.215 281.961 520.378 279.834 527.759 278.915C528.216 278.859 528.22 279.55 527.766 279.606H527.766Z" fill="white"/>
<path d="M495.082 292.78C493.758 290.992 493.138 288.809 493.332 286.621C493.526 284.433 494.522 282.382 496.142 280.836C496.471 280.524 496.99 281.001 496.661 281.314C495.149 282.751 494.222 284.661 494.045 286.699C493.869 288.736 494.455 290.768 495.698 292.426C495.968 292.787 495.35 293.139 495.082 292.78V292.78Z" fill="white"/>
<path d="M484.631 308.848C489.225 309.631 493.956 308.719 497.881 306.295C498.27 306.054 498.638 306.647 498.249 306.888C494.159 309.403 489.234 310.342 484.456 309.517C484 309.438 484.179 308.769 484.631 308.848Z" fill="white"/>
<path d="M513.273 282.875C513.636 283.669 514.198 284.365 514.908 284.899C515.619 285.433 516.457 285.789 517.346 285.935C517.802 286.008 517.624 286.677 517.17 286.604C516.189 286.439 515.264 286.045 514.478 285.457C513.691 284.868 513.066 284.103 512.657 283.229C512.611 283.149 512.599 283.056 512.622 282.968C512.645 282.88 512.702 282.804 512.781 282.755C512.863 282.709 512.961 282.695 513.053 282.718C513.145 282.74 513.224 282.796 513.273 282.875Z" fill="white"/>
<path d="M544.469 329.871C544.183 329.833 543.897 329.795 543.606 329.761C539.756 329.269 535.87 329.079 531.988 329.193C531.688 329.197 531.383 329.206 531.084 329.218C521.734 329.588 512.536 331.626 503.958 335.227C500.547 336.663 497.253 338.347 494.107 340.263C489.762 342.911 485.27 346.114 480.412 347.194C479.907 347.312 479.394 347.4 478.878 347.457L458.809 330.735C458.783 330.675 458.753 330.619 458.727 330.559L457.894 329.926C458.049 329.817 458.213 329.706 458.368 329.596C458.457 329.532 458.552 329.472 458.641 329.408C458.703 329.366 458.764 329.325 458.817 329.284C458.837 329.27 458.858 329.257 458.874 329.247C458.927 329.206 458.98 329.174 459.029 329.137C459.94 328.516 460.857 327.901 461.781 327.29C461.785 327.286 461.785 327.286 461.793 327.285C468.782 322.567 476.329 318.663 484.274 315.656C484.512 315.569 484.754 315.478 485.002 315.399C488.58 314.119 492.26 313.122 496.007 312.419C498.06 312.04 500.132 311.762 502.214 311.585C507.595 311.137 513.015 311.506 518.277 312.68C528.765 315.02 538.359 320.563 544.041 329.206C544.187 329.427 544.328 329.645 544.469 329.871Z" fill="#E6E6E6"/>
<path d="M544.203 330.078C532.491 323.661 518.976 320.959 505.577 322.354C502.687 322.606 499.856 323.294 497.189 324.393C494.626 325.545 492.431 327.336 490.832 329.581C489.296 331.644 487.974 333.927 485.944 335.595C484.892 336.435 483.667 337.05 482.35 337.402C481.033 337.754 479.654 337.834 478.303 337.637C474.922 337.23 471.896 335.679 468.99 334.063C465.765 332.269 462.444 330.356 458.639 330.095C458.178 330.063 458.256 329.377 458.716 329.408C465.336 329.862 470.172 334.954 476.404 336.573C479.312 337.329 482.474 337.246 484.969 335.461C487.15 333.9 488.516 331.548 490.051 329.445C491.579 327.234 493.646 325.416 496.071 324.15C498.672 322.924 501.47 322.132 504.347 321.809C510.811 320.982 517.37 321.139 523.784 322.273C531.112 323.528 538.162 325.98 544.63 329.523C545.03 329.742 544.601 330.296 544.203 330.078V330.078Z" fill="white"/>
<path d="M509.864 321.66C509.926 319.465 510.796 317.363 512.32 315.728C513.844 314.094 515.922 313.034 518.184 312.738C518.641 312.68 518.757 313.361 518.299 313.42C516.193 313.692 514.257 314.679 512.841 316.204C511.425 317.729 510.622 319.69 510.577 321.735C510.567 322.179 509.854 322.102 509.864 321.66V321.66Z" fill="white"/>
<path d="M491.467 328.436C494.644 331.722 498.992 333.736 503.643 334.074C504.104 334.107 504.026 334.794 503.566 334.761C498.726 334.4 494.206 332.296 490.908 328.869C490.593 328.542 491.154 328.111 491.467 328.436H491.467Z" fill="white"/>
<path d="M530.586 324.292C530.379 325.136 530.392 326.017 530.625 326.856C530.859 327.694 531.305 328.463 531.924 329.095C532.242 329.418 531.681 329.848 531.365 329.528C530.684 328.827 530.193 327.977 529.933 327.051C529.673 326.125 529.652 325.152 529.873 324.217C529.886 324.127 529.934 324.046 530.008 323.989C530.081 323.932 530.174 323.904 530.268 323.911C530.363 323.921 530.449 323.967 530.509 324.038C530.568 324.11 530.596 324.201 530.586 324.292Z" fill="white"/>
<path d="M166.029 299.6C175.933 285.143 193.651 274.686 211.492 276.936C197.326 289.927 188.391 307.32 186.269 326.04C185.478 333.262 185.379 341.374 180.011 346.479C176.671 349.655 171.807 350.987 167.112 351.032C162.416 351.078 157.801 349.969 153.247 348.867L152.106 349.126C152.866 331.825 156.124 314.057 166.029 299.6Z" fill="#E6E6E6"/>
<path d="M211.494 277.299C197.679 282.655 185.969 292.064 178.027 304.189C176.27 306.77 174.946 309.602 174.104 312.58C173.382 315.506 173.487 318.565 174.408 321.439C175.212 324.135 176.358 326.804 176.466 329.641C176.499 331.094 176.213 332.538 175.625 333.877C175.038 335.216 174.163 336.421 173.058 337.412C170.372 339.95 166.898 341.407 163.449 342.719C159.62 344.176 155.619 345.63 152.772 348.622C152.427 348.985 151.863 348.449 152.207 348.087C157.16 342.881 165.063 342.346 170.798 338.264C173.474 336.359 175.57 333.666 175.676 330.362C175.769 327.473 174.589 324.72 173.751 321.996C172.809 319.205 172.592 316.235 173.118 313.345C173.8 310.335 175.008 307.459 176.692 304.84C180.385 298.885 185.029 293.526 190.452 288.959C196.612 283.713 203.658 279.521 211.287 276.562C211.759 276.379 211.963 277.117 211.494 277.299L211.494 277.299Z" fill="white"/>
<path d="M180.346 300.141C178.413 298.582 177.118 296.413 176.693 294.021C176.269 291.629 176.741 289.17 178.027 287.082C178.289 286.66 178.982 287.032 178.72 287.454C177.519 289.396 177.079 291.687 177.479 293.914C177.879 296.141 179.093 298.156 180.902 299.597C181.295 299.911 180.736 300.453 180.346 300.141Z" fill="white"/>
<path d="M173.814 320.124C178.953 319.732 183.749 317.491 187.247 313.847C187.593 313.485 188.158 314.021 187.812 314.382C184.165 318.168 179.168 320.491 173.82 320.888C173.31 320.925 173.307 320.162 173.814 320.124H173.814Z" fill="white"/>
<path d="M196.938 284.675C197.556 285.428 198.358 286.022 199.273 286.403C200.187 286.784 201.186 286.94 202.179 286.858C202.688 286.814 202.691 287.578 202.185 287.621C201.087 287.707 199.985 287.533 198.973 287.114C197.961 286.696 197.072 286.045 196.382 285.219C196.31 285.146 196.27 285.05 196.269 284.95C196.268 284.85 196.307 284.753 196.378 284.679C196.452 284.608 196.552 284.567 196.657 284.566C196.762 284.566 196.863 284.605 196.938 284.675H196.938Z" fill="white"/>
<path d="M243.889 326.588C243.572 326.624 243.255 326.66 242.935 326.702C238.674 327.207 234.464 328.044 230.345 329.205C230.025 329.29 229.702 329.38 229.385 329.474C219.491 332.373 210.243 337.015 202.11 343.162C198.876 345.612 195.841 348.294 193.03 351.187C189.148 355.181 185.27 359.81 180.387 362.265C179.88 362.527 179.358 362.758 178.821 362.957L152.523 350.445C152.478 350.388 152.43 350.336 152.385 350.279L151.311 349.826C151.445 349.667 151.588 349.505 151.722 349.346C151.799 349.253 151.883 349.163 151.96 349.071C152.014 349.01 152.067 348.95 152.112 348.892C152.13 348.871 152.148 348.851 152.163 348.837C152.207 348.779 152.255 348.73 152.297 348.678C153.092 347.77 153.895 346.866 154.706 345.965C154.709 345.96 154.709 345.96 154.717 345.957C160.915 339.112 167.761 332.704 175.399 327.501C175.629 327.344 175.862 327.182 176.104 327.031C179.56 324.704 183.209 322.652 187.013 320.897C189.099 319.943 191.234 319.09 193.41 318.343C199.035 316.424 204.94 315.368 210.906 315.214C222.8 314.909 234.664 318.269 243.24 325.992C243.459 326.19 243.673 326.385 243.889 326.588Z" fill="#E6E6E6"/>
<path d="M243.665 326.882C229.284 323.154 214.047 323.882 200.12 328.962C197.102 330.004 194.273 331.498 191.738 333.388C189.331 335.306 187.501 337.809 186.438 340.638C185.393 343.256 184.639 346.051 182.95 348.379C182.067 349.559 180.935 350.545 179.629 351.274C178.322 352.003 176.87 352.458 175.368 352.609C171.635 353.079 167.949 352.23 164.374 351.279C160.406 350.224 156.301 349.067 152.156 349.806C151.654 349.896 151.539 349.141 152.04 349.051C159.251 347.765 165.896 351.916 173.03 351.98C176.358 352.009 179.716 351.074 181.868 348.497C183.75 346.244 184.53 343.362 185.565 340.702C186.559 337.928 188.244 335.431 190.473 333.428C192.899 331.419 195.664 329.823 198.647 328.708C205.322 326.093 212.382 324.504 219.57 324C227.769 323.381 236.019 324.116 243.961 326.173C244.453 326.301 244.153 327.008 243.665 326.882Z" fill="white"/>
<path d="M204.505 327.073C203.936 324.708 204.26 322.226 205.417 320.07C206.575 317.914 208.491 316.224 210.824 315.302C211.296 315.117 211.617 315.816 211.144 316.001C208.97 316.855 207.185 318.43 206.112 320.44C205.038 322.449 204.747 324.762 205.289 326.961C205.407 327.439 204.622 327.548 204.505 327.073H204.505Z" fill="white"/>
<path d="M186.787 339.243C191.135 341.907 196.368 342.896 201.44 342.013C201.943 341.925 202.058 342.68 201.556 342.768C196.276 343.678 190.833 342.637 186.314 339.855C185.884 339.59 186.359 338.978 186.787 339.242V339.243Z" fill="white"/>
<path d="M227.428 324.337C227.45 325.296 227.719 326.235 228.211 327.069C228.703 327.903 229.403 328.607 230.247 329.116C230.681 329.376 230.205 329.987 229.774 329.729C228.844 329.162 228.073 328.384 227.527 327.463C226.981 326.543 226.678 325.508 226.644 324.449C226.632 324.349 226.66 324.249 226.722 324.169C226.784 324.088 226.876 324.033 226.978 324.016C227.082 324.001 227.188 324.027 227.272 324.087C227.356 324.148 227.412 324.237 227.428 324.337V324.337Z" fill="white"/>
<path d="M236.519 191.212C237.176 190.583 237.682 189.823 238.001 188.985C238.32 188.147 238.444 187.252 238.364 186.364C238.285 185.475 238.004 184.613 237.541 183.84C237.079 183.067 236.445 182.401 235.686 181.889L246.037 133.68L234.87 137.07L226.542 183.709C225.732 184.993 225.44 186.519 225.722 187.996C226.003 189.473 226.837 190.8 228.067 191.725C229.297 192.65 230.837 193.109 232.394 193.014C233.952 192.92 235.42 192.278 236.519 191.212Z" fill="#FFB6B6"/>
<path d="M260.445 62.3477L253.527 57.3225C253.527 57.3225 247.425 56.9066 246.344 67.4974C245.263 78.0881 238.496 118.735 238.496 118.735L227.91 165.917L242.564 169.012L253.902 118.095L265.251 82.9667L260.445 62.3477Z" fill="#E6E6E6"/>
<path d="M255.175 149.652L221.991 124.822C221.474 124.434 221.138 123.865 221.057 123.239C220.975 122.613 221.155 121.982 221.557 121.484L244.135 93.5405C244.538 93.0431 245.129 92.7198 245.779 92.6415C246.43 92.5632 247.086 92.7363 247.603 93.1228L280.787 117.953C281.304 118.341 281.64 118.91 281.721 119.535C281.803 120.161 281.623 120.792 281.221 121.291L258.643 149.234C258.24 149.731 257.649 150.055 256.999 150.133C256.349 150.211 255.693 150.038 255.175 149.652Z" fill="#3F3D56"/>
<path d="M254.993 147.08L224.624 124.356C224.165 124.012 223.867 123.507 223.794 122.951C223.722 122.396 223.882 121.835 224.238 121.393L244.706 96.0607C245.064 95.6191 245.589 95.332 246.167 95.2625C246.744 95.1929 247.326 95.3466 247.786 95.6898L278.155 118.414C278.614 118.758 278.912 119.263 278.984 119.819C279.057 120.374 278.897 120.935 278.54 121.377L258.072 146.709C257.715 147.151 257.19 147.438 256.612 147.507C256.035 147.577 255.452 147.423 254.993 147.08Z" fill="white"/>
<path d="M228.605 123.714C228.49 123.628 228.416 123.502 228.398 123.363C228.38 123.224 228.42 123.084 228.509 122.973L238.834 110.194C238.924 110.084 239.055 110.012 239.199 109.994C239.271 109.986 239.343 109.991 239.413 110.009C239.482 110.027 239.547 110.059 239.604 110.101C239.661 110.144 239.709 110.197 239.744 110.257C239.78 110.317 239.803 110.384 239.812 110.453C239.821 110.521 239.816 110.591 239.796 110.658C239.777 110.725 239.745 110.788 239.7 110.842L229.375 123.621C229.286 123.732 229.154 123.804 229.01 123.821C228.866 123.838 228.72 123.8 228.605 123.714Z" fill="#E4E4E4"/>
<path d="M230.316 124.994C230.202 124.907 230.127 124.781 230.109 124.642C230.091 124.503 230.131 124.363 230.22 124.253L240.546 111.473C240.635 111.363 240.766 111.291 240.91 111.274C241.055 111.256 241.201 111.295 241.315 111.381C241.43 111.467 241.505 111.593 241.523 111.732C241.541 111.871 241.501 112.011 241.412 112.122L231.086 124.901C230.997 125.011 230.866 125.083 230.721 125.1C230.577 125.118 230.431 125.079 230.316 124.994Z" fill="#E4E4E4"/>
<path d="M237.877 119.034C237.763 118.948 237.688 118.821 237.67 118.683C237.652 118.544 237.692 118.403 237.781 118.293L242.257 112.753C242.301 112.699 242.356 112.653 242.419 112.618C242.481 112.584 242.55 112.562 242.622 112.553C242.694 112.544 242.766 112.549 242.836 112.568C242.905 112.586 242.97 112.617 243.027 112.66C243.084 112.703 243.132 112.756 243.168 112.816C243.203 112.876 243.226 112.943 243.235 113.012C243.244 113.081 243.239 113.15 243.219 113.217C243.2 113.284 243.167 113.347 243.123 113.402L238.647 118.941C238.558 119.051 238.427 119.123 238.282 119.141C238.138 119.158 237.992 119.12 237.877 119.034Z" fill="#E4E4E4"/>
<path d="M240.185 129.904C240.07 129.818 239.995 129.692 239.977 129.553C239.959 129.414 239.999 129.274 240.088 129.163L256.389 108.989C256.433 108.934 256.488 108.888 256.551 108.854C256.614 108.82 256.683 108.798 256.754 108.789C256.826 108.781 256.898 108.786 256.968 108.804C257.037 108.822 257.102 108.854 257.159 108.896C257.216 108.939 257.264 108.992 257.299 109.052C257.335 109.112 257.358 109.179 257.367 109.248C257.376 109.316 257.37 109.386 257.351 109.453C257.332 109.52 257.3 109.582 257.255 109.637L240.955 129.812C240.865 129.922 240.734 129.994 240.59 130.011C240.445 130.028 240.3 129.99 240.185 129.904Z" fill="#E4E4E4"/>
<path d="M241.896 131.186C241.781 131.1 241.707 130.973 241.689 130.834C241.671 130.695 241.71 130.555 241.8 130.445L258.1 110.27C258.145 110.216 258.2 110.17 258.262 110.135C258.325 110.101 258.394 110.079 258.465 110.07C258.537 110.062 258.609 110.067 258.679 110.085C258.748 110.104 258.813 110.135 258.87 110.178C258.927 110.22 258.975 110.273 259.01 110.333C259.046 110.394 259.069 110.46 259.078 110.529C259.087 110.598 259.082 110.667 259.063 110.734C259.043 110.801 259.011 110.864 258.967 110.918L242.666 131.093C242.576 131.203 242.445 131.275 242.301 131.292C242.156 131.31 242.011 131.271 241.896 131.186Z" fill="#E4E4E4"/>
<path d="M245.781 134.092C245.666 134.006 245.592 133.879 245.574 133.741C245.556 133.602 245.595 133.462 245.685 133.351L261.985 113.177C262.03 113.122 262.085 113.076 262.147 113.042C262.21 113.007 262.279 112.985 262.35 112.977C262.422 112.968 262.494 112.973 262.564 112.992C262.633 113.01 262.698 113.041 262.755 113.084C262.812 113.126 262.86 113.179 262.895 113.24C262.931 113.3 262.954 113.366 262.963 113.435C262.972 113.504 262.967 113.574 262.947 113.64C262.928 113.707 262.896 113.77 262.852 113.825L246.551 133.999C246.461 134.109 246.33 134.181 246.186 134.199C246.041 134.216 245.896 134.178 245.781 134.092Z" fill="#E4E4E4"/>
<path d="M247.492 135.373C247.377 135.287 247.303 135.161 247.285 135.022C247.267 134.883 247.307 134.743 247.396 134.632L263.697 114.458C263.741 114.403 263.796 114.357 263.858 114.323C263.921 114.289 263.99 114.267 264.062 114.258C264.133 114.249 264.206 114.254 264.275 114.273C264.345 114.291 264.41 114.323 264.466 114.365C264.523 114.408 264.571 114.461 264.607 114.521C264.642 114.581 264.665 114.648 264.674 114.716C264.683 114.785 264.678 114.855 264.659 114.922C264.64 114.989 264.607 115.051 264.563 115.106L248.262 135.28C248.173 135.391 248.041 135.463 247.897 135.48C247.753 135.497 247.607 135.459 247.492 135.373Z" fill="#E4E4E4"/>
<path d="M251.377 138.279C251.262 138.193 251.187 138.067 251.169 137.928C251.151 137.789 251.191 137.649 251.28 137.538L267.581 117.364C267.625 117.309 267.68 117.263 267.743 117.229C267.806 117.195 267.875 117.173 267.946 117.164C268.018 117.156 268.09 117.161 268.16 117.179C268.229 117.197 268.294 117.229 268.351 117.271C268.408 117.314 268.455 117.367 268.491 117.427C268.527 117.487 268.55 117.554 268.559 117.623C268.568 117.691 268.562 117.761 268.543 117.828C268.524 117.895 268.492 117.957 268.447 118.012L252.147 138.187C252.057 138.297 251.926 138.369 251.781 138.386C251.637 138.404 251.492 138.365 251.377 138.279Z" fill="#E4E4E4"/>
<path d="M253.088 139.561C252.973 139.475 252.899 139.349 252.881 139.21C252.863 139.071 252.903 138.931 252.992 138.82L269.293 118.646C269.382 118.536 269.513 118.464 269.657 118.447C269.801 118.43 269.947 118.469 270.061 118.555C270.176 118.64 270.251 118.766 270.269 118.905C270.287 119.044 270.248 119.183 270.159 119.294L253.858 139.468C253.769 139.579 253.637 139.651 253.493 139.668C253.349 139.685 253.203 139.647 253.088 139.561Z" fill="#E4E4E4"/>
<path d="M225.844 162.99C225.969 162.99 226.07 162.893 226.07 162.773C226.07 162.654 225.969 162.557 225.844 162.557C225.72 162.557 225.619 162.654 225.619 162.773C225.619 162.893 225.72 162.99 225.844 162.99Z" fill="white"/>
<path d="M258.667 13.6277C257.875 17.7241 256.576 21.7144 254.797 25.5135C244.614 46.2441 273.614 39.487 283.977 39.487C295.308 39.487 306.149 45.2208 304.494 19.7435C303.786 8.86072 295.308 0 283.977 0C274.299 0 260.691 4.13982 258.667 13.6277Z" fill="#2F2E41"/>
<path d="M294.539 317.67H284.885L280.291 281.836H294.539V317.67Z" fill="#FFB6B6"/>
<path d="M299.634 333.767H292.711L291.475 327.477L288.311 333.767H269.948C269.068 333.767 268.211 333.497 267.502 332.995C266.793 332.493 266.27 331.786 266.008 330.977C265.746 330.169 265.759 329.301 266.046 328.5C266.333 327.699 266.879 327.008 267.603 326.526L282.266 316.781V310.422L297.69 311.308L299.634 333.767Z" fill="#2F2E41"/>
<path d="M351.893 305.946L344.146 311.49L318.24 285.374L329.674 277.191L351.893 305.946Z" fill="#FFB6B6"/>
<path d="M365.963 315.937L360.408 319.913L355.516 315.575L356.876 322.44L342.142 332.984C341.435 333.489 340.58 333.764 339.7 333.769C338.819 333.773 337.961 333.506 337.249 333.008C336.538 332.51 336.01 331.805 335.744 330.998C335.478 330.191 335.487 329.322 335.77 328.52L341.493 312.28L337.55 307.177L350.476 299.031L365.963 315.937Z" fill="#2F2E41"/>
<path d="M262.921 152.752L308.748 145.884L299.635 119.5H262.921V152.752Z" fill="#FFB6B6"/>
<path d="M305.779 132.787C305.779 132.787 324.096 148.016 315.644 191.429L305.327 233.967L333.437 280.932L319.144 288.435L284.503 242.102L268.651 206.32L260.266 143.609L305.779 132.787Z" fill="#2F2E41"/>
<path d="M277.388 216.52L276.286 232.939L279.511 281.56L295.523 286.865L298.555 237.048L277.388 216.52Z" fill="#2F2E41"/>
<path d="M272.465 44.9512L290.18 45.6162L297.239 56.8939L313.347 59.9199L303.731 106.733L305.5 133.378L289.461 133.284C277.902 133.216 266.724 137.257 258.071 144.632L258.551 110.045L251.652 84.2252L253.202 57.152L266.16 55.5932L272.465 44.9512Z" fill="#E6E6E6"/>
<path d="M282.279 39.4822C291.487 39.4822 298.951 32.2991 298.951 23.4383C298.951 14.5776 291.487 7.39453 282.279 7.39453C273.072 7.39453 265.607 14.5776 265.607 23.4383C265.607 32.2991 273.072 39.4822 282.279 39.4822Z" fill="#FFB6B6"/>
<path d="M270.957 7.08449C273.879 5.37057 277.225 4.44344 280.646 4.40003C284.068 4.35663 287.438 5.19855 290.406 6.83776C293.373 8.47696 295.828 10.8532 297.515 13.7181C299.201 16.583 300.057 19.8313 299.992 23.1234C291.497 25.1759 282.572 26.7466 273.512 23.6143L271.373 18.5754L270.112 23.618C267.353 24.7032 264.587 25.6214 261.82 23.6076C261.708 20.3248 262.492 17.071 264.095 14.1715C265.699 11.2719 268.065 8.82817 270.957 7.08449Z" fill="#2F2E41"/>
<path d="M310.264 165.726L312.511 185.353C312.668 185.843 312.983 186.271 313.411 186.576C313.84 186.88 314.358 187.045 314.891 187.045H325.25C325.783 187.045 326.301 186.88 326.729 186.576C327.158 186.272 327.473 185.843 327.63 185.353L329.491 170.31C330.029 170.563 330.621 170.69 331.219 170.681C331.818 170.671 332.405 170.525 332.933 170.254C333.461 169.983 333.915 169.596 334.257 169.124C334.6 168.651 334.82 168.107 334.902 167.537C334.983 166.966 334.922 166.385 334.725 165.842C334.527 165.298 334.199 164.807 333.766 164.41C333.333 164.013 332.808 163.72 332.234 163.555C331.661 163.391 331.055 163.36 330.466 163.465C330.234 163.201 329.945 162.989 329.618 162.844C329.292 162.699 328.937 162.624 328.577 162.625H312.643C312.254 162.625 311.87 162.713 311.522 162.882C311.174 163.051 310.872 163.296 310.641 163.598C310.409 163.899 310.254 164.249 310.189 164.618C310.124 164.988 310.149 165.367 310.264 165.726ZM329.817 169.292L330.957 165.726C331.089 165.314 331.102 164.876 330.995 164.457C331.043 164.455 331.089 164.443 331.139 164.443C331.855 164.443 332.541 164.717 333.047 165.204C333.554 165.692 333.838 166.352 333.838 167.041C333.838 167.73 333.554 168.391 333.047 168.878C332.541 169.365 331.855 169.639 331.139 169.639C330.674 169.636 330.218 169.517 329.817 169.292Z" fill="#0091CD"/>
<path d="M325.885 187.057C325.231 186.424 324.73 185.662 324.415 184.822C324.101 183.983 323.981 183.088 324.066 182.199C324.15 181.311 324.435 180.451 324.902 179.68C325.369 178.909 326.005 178.246 326.767 177.738L316.671 129.479L327.82 132.923L335.902 179.602C336.705 180.891 336.988 182.417 336.699 183.893C336.41 185.369 335.569 186.692 334.334 187.611C333.1 188.53 331.558 188.981 330 188.879C328.443 188.777 326.979 188.128 325.885 187.057Z" fill="#FFB6B6"/>
<path d="M306.429 64.9454L313.347 59.9202C313.347 59.9202 319.45 59.5043 320.531 70.095C321.611 80.6858 328.379 121.333 328.379 121.333L338.965 168.515L324.311 171.61L312.973 120.692L301.623 85.5644L306.429 64.9454Z" fill="#E6E6E6"/>
<path d="M246.724 108.877C248.886 108.877 250.64 107.19 250.64 105.108C250.64 103.027 248.886 101.34 246.724 101.34C244.561 101.34 242.808 103.027 242.808 105.108C242.808 107.19 244.561 108.877 246.724 108.877Z" fill="#0091CD"/>
<path d="M121.85 361.386L130.011 361.386L133.893 331.094L121.848 331.094L121.85 361.386Z" fill="#FFB6B6"/>
<path d="M119.768 358.822L122.065 358.822L131.033 355.312L135.84 358.822H135.841C138.557 358.822 141.162 359.86 143.083 361.709C145.003 363.557 146.083 366.064 146.083 368.678V368.998L119.769 368.999L119.768 358.822Z" fill="#2F2E41"/>
<path d="M153.475 356.438L161.436 358.168L172.157 329.443L160.407 326.891L153.475 356.438Z" fill="#FFB6B6"/>
<path d="M152.031 353.497L154.272 353.983L163.823 352.461L167.709 356.903L167.709 356.903C170.359 357.479 172.662 359.044 174.113 361.254C175.563 363.464 176.042 366.138 175.444 368.688L175.371 369.001L149.702 363.424L152.031 353.497Z" fill="#2F2E41"/>
<path d="M106.909 205.571L114.289 285.138C114.289 285.138 111.524 332.906 120.447 349.715H133.387L139.793 280.775L140.598 234.502L168.34 273.541L150.67 348.588L166.597 349.958L195.27 268.515L163.769 192.059L106.909 205.571Z" fill="#2F2E41"/>
<path d="M114.638 78.8622C125.149 78.8622 133.67 70.6623 133.67 60.5473C133.67 50.4323 125.149 42.2324 114.638 42.2324C104.127 42.2324 95.6064 50.4323 95.6064 60.5473C95.6064 70.6623 104.127 78.8622 114.638 78.8622Z" fill="#FFB8B8"/>
<path d="M148.095 96.3145L132.481 89.8676L124.881 82.1094L105.893 85.0563L100.855 93.3689L84.5464 107.962L103.654 191.101L103.075 209.259C103.075 209.259 115.304 214.558 168.34 202.359C168.976 202.213 167.645 201.572 167.645 201.572L148.095 96.3145Z" fill="#3F3D56"/>
<path d="M94.848 70.939C94.7154 70.7648 94.584 70.5892 94.454 70.4121C94.4017 70.5185 94.3601 70.6283 94.3003 70.7322L94.848 70.939Z" fill="#2F2E41"/>
<path d="M133.57 47.1504C132.298 44.4835 130.03 42.3747 127.216 41.2432C124.427 40.1608 121.311 40.1634 118.524 41.2505C116.008 39.7208 113.212 38.508 110.268 38.3578C107.324 38.2076 104.211 39.2587 102.397 41.5725C101.992 42.1832 101.531 42.7585 101.021 43.2917C99.5631 44.5915 97.3467 44.404 95.4082 44.1382C96.2776 44.8553 97.1473 45.5724 98.0172 46.2895C96.9648 46.5541 95.9122 46.8187 94.8595 47.0833C96.0878 47.8002 97.316 48.517 98.5441 49.2339C94.9785 51.2934 93.3579 55.7886 93.786 59.8711C94.1909 63.7364 96.1301 67.2709 98.4482 70.4124C99.3729 68.5345 99.1737 66.2875 99.1584 64.1725C99.1425 61.9377 99.5533 59.4001 101.414 58.1511C102.669 57.3086 104.284 57.271 105.797 57.279C113.432 57.3193 121.059 57.7775 128.64 58.6514C129.669 58.6942 130.672 58.9742 131.565 59.4677C133.242 60.5683 133.568 62.8398 133.737 64.8325C134.622 61.5422 135.056 58.1543 135.026 54.7555C135.101 52.1503 134.605 49.5591 133.57 47.1504Z" fill="#2F2E41"/>
<path d="M139.495 261.348C156.039 261.348 169.45 248.442 169.45 232.522C169.45 216.601 156.039 203.695 139.495 203.695C122.952 203.695 109.541 216.601 109.541 232.522C109.541 248.442 122.952 261.348 139.495 261.348Z" fill="white"/>
<path d="M139.495 203.055C137.956 203.055 136.418 203.166 134.896 203.388C134.117 203.497 133.358 203.638 132.606 203.811C127.08 205.036 122.016 207.716 117.98 211.55C113.944 215.383 111.094 220.221 109.749 225.523C108.403 230.824 108.615 236.381 110.36 241.574C112.105 246.766 115.315 251.39 119.632 254.929C120.145 255.346 120.664 255.749 121.203 256.134C125.089 258.922 129.608 260.782 134.387 261.562C139.166 262.341 144.07 262.017 148.694 260.617C153.317 259.216 157.53 256.779 160.983 253.506C164.437 250.232 167.034 246.217 168.56 241.789C170.086 237.361 170.497 232.648 169.76 228.038C169.024 223.427 167.16 219.051 164.322 215.269C161.484 211.487 157.754 208.407 153.437 206.284C149.121 204.16 144.343 203.054 139.495 203.055V203.055ZM139.495 260.707C133.268 260.714 127.202 258.799 122.188 255.243C121.642 254.859 121.116 254.462 120.604 254.039C116.398 250.625 113.277 246.139 111.6 241.096C109.922 236.053 109.756 230.657 111.119 225.527C112.482 220.398 115.321 215.741 119.308 212.093C123.296 208.444 128.272 205.951 133.664 204.9C134.41 204.752 135.155 204.637 135.914 204.547C137.102 204.406 138.298 204.335 139.495 204.336C147.263 204.336 154.713 207.305 160.206 212.591C165.699 217.877 168.785 225.046 168.785 232.522C168.785 239.997 165.699 247.166 160.206 252.452C154.713 257.738 147.263 260.707 139.495 260.707Z" fill="#3F3D56"/>
<path d="M124.803 226.756H154.188C155.264 226.756 156.137 225.916 156.137 224.88V224.788C156.137 223.752 155.264 222.912 154.188 222.912H124.803C123.726 222.912 122.854 223.752 122.854 224.788V224.88C122.854 225.916 123.726 226.756 124.803 226.756Z" fill="#0091CD"/>
<path d="M124.803 234.441H154.188C155.264 234.441 156.137 233.602 156.137 232.566V232.474C156.137 231.438 155.264 230.598 154.188 230.598H124.803C123.726 230.598 122.854 231.438 122.854 232.474V232.566C122.854 233.602 123.726 234.441 124.803 234.441Z" fill="#0091CD"/>
<path d="M124.803 242.129H154.188C155.264 242.129 156.137 241.289 156.137 240.253V240.161C156.137 239.125 155.264 238.285 154.188 238.285H124.803C123.726 238.285 122.854 239.125 122.854 240.161V240.253C122.854 241.289 123.726 242.129 124.803 242.129Z" fill="#0091CD"/>
<path d="M474.625 360.41L466.068 360.409L461.997 328.646L474.627 328.647L474.625 360.41Z" fill="#9E616A"/>
<path d="M434.141 360.41L425.585 360.409L421.514 328.646L434.143 328.647L434.141 360.41Z" fill="#9E616A"/>
<path d="M434.443 368.999L408.129 368.998V368.678C408.129 366.064 409.208 363.557 411.129 361.709C413.05 359.86 415.655 358.822 418.371 358.822H418.372L423.178 355.312L432.146 358.822L434.443 358.822L434.443 368.999Z" fill="#2F2E41"/>
<path d="M476.024 368.999L449.71 368.998V368.678C449.71 366.064 450.789 363.557 452.71 361.709C454.631 359.86 457.236 358.822 459.952 358.822H459.953L464.76 355.312L473.728 358.822L476.025 358.822L476.024 368.999Z" fill="#2F2E41"/>
<path d="M425.748 172.425L412.743 248.631L416.282 259.987L411.638 268.029L418.458 338.662L415.689 344.527L423.425 349.118H439.164L440 285.174L443.888 275.786V270.611L451.803 231.62L453.26 286.225L455.562 295.628L453.628 302.323L456.155 307.014L462.868 350.511H480.517L479.152 340.392C480.689 339.643 481.924 338.423 482.663 336.925C483.402 335.427 483.602 333.735 483.233 332.115L482.221 327.68L484.524 314.565L488.718 241.398L487.535 182.361L466.889 167.168L425.748 172.425Z" fill="#2F2E41"/>
<path d="M455.562 74.568C464.618 74.568 471.96 67.503 471.96 58.7879C471.96 50.0728 464.618 43.0078 455.562 43.0078C446.506 43.0078 439.164 50.0728 439.164 58.7879C439.164 67.503 446.506 74.568 455.562 74.568Z" fill="#9E616A"/>
<path d="M419.735 202.666C420.448 201.956 420.992 201.105 421.326 200.171C421.661 199.238 421.779 198.245 421.672 197.263C421.564 196.281 421.235 195.334 420.706 194.487C420.177 193.641 419.462 192.917 418.611 192.365L424.987 169.16L412.702 173.137L408.53 194.563C407.662 196.001 407.373 197.695 407.716 199.324C408.059 200.953 409.012 202.405 410.393 203.404C411.774 204.402 413.488 204.879 415.209 204.743C416.931 204.607 418.541 203.868 419.735 202.666H419.735Z" fill="#9E616A"/>
<path d="M426.445 91.2532L423.808 90.7266L421.559 91.9249C421.559 91.9249 415.278 99.9852 415.278 107.374C415.278 114.763 407.6 185.962 407.6 185.962L421.559 192.008L432.727 136.257L426.445 91.2532Z" fill="#E6E6E6"/>
<path d="M469.922 47.2186C469.922 47.2186 474.211 39.3286 464.776 38.6113C464.776 38.6113 456.732 31.5894 448.533 37.3276C448.533 37.3276 444.061 37.3276 441.615 42.1977C441.615 42.1977 438.098 40.914 437.325 44.3495C437.325 44.3495 434.751 51.5223 437.325 57.9778C439.899 64.4333 440.753 65.1506 440.753 65.1506C440.753 65.1506 436.524 51.6163 446.818 50.899C457.113 50.1817 468.632 43.9909 469.49 51.8809C470.348 59.771 471.639 61.715 471.639 61.715C471.639 61.715 479.787 50.4464 469.922 47.2186Z" fill="#2F2E41"/>
<path d="M529.823 268.029C528.585 268.031 527.39 267.592 526.468 266.798L476.843 224.287C475.843 223.429 475.238 222.223 475.16 220.936C475.082 219.648 475.539 218.384 476.428 217.42L508.219 183.052C509.111 182.09 510.363 181.507 511.701 181.432C513.04 181.357 514.354 181.796 515.356 182.653L564.981 225.164C565.983 226.021 566.589 227.227 566.667 228.514C566.744 229.802 566.287 231.067 565.396 232.031L533.605 266.398C533.165 266.877 532.631 267.267 532.033 267.545C531.435 267.824 530.786 267.985 530.123 268.021C530.022 268.027 529.923 268.029 529.823 268.029Z" fill="white"/>
<path d="M529.822 268.343C528.505 268.345 527.234 267.879 526.252 267.033L476.627 224.523C475.563 223.609 474.919 222.326 474.836 220.956C474.753 219.585 475.239 218.239 476.186 217.213L507.976 182.845C508.926 181.821 510.259 181.202 511.683 181.122C513.107 181.042 514.505 181.509 515.572 182.42L565.197 224.931C566.263 225.844 566.908 227.127 566.991 228.498C567.074 229.869 566.587 231.215 565.639 232.241L533.848 266.608C533.38 267.117 532.811 267.532 532.175 267.829C531.538 268.125 530.847 268.297 530.142 268.335C530.035 268.34 529.929 268.343 529.822 268.343ZM511.997 182.363C511.421 182.362 510.851 182.478 510.325 182.705C509.799 182.931 509.33 183.263 508.947 183.677L477.157 218.045C476.438 218.823 476.07 219.844 476.133 220.883C476.195 221.923 476.684 222.896 477.491 223.589L527.117 266.099C527.517 266.442 527.983 266.706 528.489 266.875C528.996 267.044 529.531 267.116 530.066 267.086C530.601 267.056 531.125 266.925 531.607 266.7C532.09 266.476 532.521 266.162 532.877 265.777L564.668 231.409C565.388 230.631 565.756 229.61 565.694 228.571C565.631 227.531 565.142 226.558 564.333 225.866L514.708 183.355C513.962 182.714 512.996 182.361 511.997 182.363H511.997Z" fill="#3F3D56"/>
<path d="M547.818 235.481C547.282 235.482 546.765 235.293 546.365 234.949L507.411 201.58C507.195 201.397 507.019 201.174 506.893 200.925C506.767 200.676 506.693 200.405 506.676 200.129C506.659 199.852 506.699 199.575 506.793 199.314C506.887 199.052 507.035 198.811 507.226 198.604C507.417 198.397 507.649 198.228 507.908 198.108C508.168 197.987 508.449 197.917 508.736 197.902C509.024 197.886 509.312 197.925 509.583 198.017C509.855 198.109 510.105 198.251 510.319 198.436L549.274 231.805C549.605 232.089 549.839 232.463 549.944 232.877C550.05 233.292 550.021 233.728 549.863 234.126C549.706 234.525 549.425 234.868 549.06 235.11C548.695 235.352 548.261 235.482 547.818 235.481Z" fill="#0091CD"/>
<path d="M540.388 243.513C539.852 243.514 539.334 243.325 538.934 242.981L499.981 209.612C499.766 209.428 499.591 209.206 499.466 208.957C499.341 208.708 499.268 208.438 499.251 208.162C499.235 207.886 499.275 207.61 499.369 207.349C499.464 207.088 499.61 206.847 499.801 206.641C499.992 206.434 500.224 206.266 500.482 206.146C500.741 206.025 501.022 205.955 501.308 205.939C501.595 205.923 501.882 205.962 502.154 206.052C502.425 206.143 502.675 206.285 502.889 206.468L541.844 239.838C542.175 240.121 542.409 240.495 542.514 240.91C542.62 241.324 542.591 241.76 542.433 242.159C542.275 242.558 541.995 242.901 541.63 243.143C541.264 243.385 540.831 243.514 540.388 243.513H540.388Z" fill="#0091CD"/>
<path d="M532.958 251.549C532.422 251.55 531.904 251.36 531.504 251.016L492.55 217.648C492.335 217.464 492.16 217.241 492.034 216.992C491.909 216.743 491.836 216.473 491.819 216.197C491.802 215.921 491.842 215.644 491.936 215.383C492.031 215.122 492.178 214.881 492.369 214.674C492.56 214.467 492.792 214.299 493.05 214.179C493.309 214.058 493.59 213.988 493.877 213.972C494.164 213.956 494.452 213.995 494.723 214.086C494.994 214.177 495.244 214.319 495.459 214.503L534.413 247.872C534.744 248.156 534.978 248.53 535.084 248.945C535.189 249.359 535.161 249.795 535.003 250.194C534.845 250.592 534.565 250.936 534.2 251.178C533.834 251.42 533.401 251.549 532.958 251.549H532.958Z" fill="#0091CD"/>
<path d="M488.41 204.036C487.911 203.173 487.613 202.216 487.539 201.231C487.466 200.246 487.617 199.258 487.983 198.335C488.349 197.413 488.921 196.579 489.658 195.892C490.396 195.205 491.28 194.682 492.25 194.36L492.293 170.357L503.101 177.242L501.404 198.98C501.858 200.584 501.685 202.292 500.918 203.782C500.151 205.272 498.842 206.438 497.241 207.062C495.639 207.685 493.856 207.721 492.228 207.163C490.601 206.606 489.242 205.493 488.41 204.036H488.41Z" fill="#9E616A"/>
<path d="M489.41 97.8305L494.238 93.3516L497.786 95.8153C497.786 95.8153 501.275 99.8455 504.067 111.936C506.859 124.027 504.067 190.524 504.067 190.524L488.712 188.509L490.806 153.581L484.524 124.027L489.41 97.8305Z" fill="#E6E6E6"/>
<path d="M496.54 94.4448L480.271 86.9666L469.226 77.1079L449.085 76.9629L442.588 85.0909L425.436 90.6979L428.295 147.614L426.346 151.991C426.346 151.991 427.704 153.171 428.324 153.831C428.944 154.492 427.467 160.019 427.467 160.019L426.633 166.032L428.944 167.621L425.94 171.036L425.194 176.42C425.194 176.42 477.636 163.876 487.544 184.655C488.068 185.753 486.779 175.024 486.779 175.024L485.49 167.169L486.769 160.119L488.718 158.243L485.449 155.097L487.544 140.17L496.54 94.4448Z" fill="#3F3D56"/>
<path d="M127.609 220.622C128.013 219.636 128.187 218.576 128.119 217.518C128.051 216.46 127.743 215.429 127.216 214.498C126.689 213.566 125.957 212.758 125.07 212.128C124.184 211.499 123.164 211.064 122.084 210.855L118.47 185.318L107.992 194.133L113.03 217.031C112.785 218.801 113.223 220.595 114.261 222.075C115.299 223.554 116.865 224.616 118.662 225.058C120.459 225.501 122.363 225.294 124.011 224.476C125.66 223.659 126.94 222.288 127.609 220.622V220.622Z" fill="#FFB8B8"/>
<path d="M86.5572 107.496L83.7171 108.02L82.0004 110.1C82.0004 110.1 79.2231 120.582 82.3868 127.908C85.5506 135.234 108.425 208.874 108.425 208.874L124.854 209.332L112.056 149.627L86.5572 107.496Z" fill="#3F3D56"/>
<path d="M151.328 216.877C150.571 216.107 149.999 215.186 149.652 214.18C149.305 213.173 149.191 212.106 149.319 211.053C149.447 210 149.814 208.987 150.393 208.085C150.971 207.182 151.749 206.413 152.67 205.832L146.129 180.84L159.267 185.259L163.464 208.314C164.377 209.868 164.666 211.69 164.276 213.435C163.886 215.181 162.844 216.728 161.348 217.783C159.852 218.839 158.006 219.329 156.159 219.162C154.312 218.995 152.593 218.182 151.328 216.877Z" fill="#FFB8B8"/>
<path d="M145.588 97.1778L148.426 96.6445L150.825 97.9585C150.825 97.9585 157.463 106.689 157.366 114.622C157.269 122.555 164.576 199.091 164.576 199.091L149.509 205.412L138.252 145.419L145.588 97.1778Z" fill="#3F3D56"/>
</g>
<defs>
<clipPath id="clip0_522_9753">
<rect width="567" height="369" fill="white"/>
</clipPath>
</defs>
</svg>
