<svg width="450" height="455" viewBox="0 0 450 455" fill="none" xmlns="http://www.w3.org/2000/svg">
<path d="M41.8002 300.827L50.1124 304.853L69.5454 274.59L57.2764 268.646L41.8002 300.827Z" fill="#FFB6B6"/>
<path d="M37.3209 309.387L62.8831 321.771L63.0391 321.446C64.3128 318.798 64.4861 315.75 63.521 312.974C62.5559 310.197 60.5314 307.919 57.8928 306.64L57.8922 306.64L54.9331 300.822L44.5112 300.157L42.2798 299.076L37.3209 309.387Z" fill="#2F2E41"/>
<path d="M103.676 312.107L112.905 312.106L117.297 276.373L103.674 276.374L103.676 312.107Z" fill="#FFB6B6"/>
<path d="M103.351 321.77L131.735 321.769V321.409C131.735 318.468 130.571 315.648 128.499 313.569C126.427 311.489 123.617 310.321 120.687 310.321H120.686L115.502 306.373L105.828 310.321L103.35 310.322L103.351 321.77Z" fill="#2F2E41"/>
<path d="M112.824 146.383L123.401 219.589L124.3 236.043L118.753 287.39L121.004 292.365L114.713 296.259H101.912L101.232 242.02L91.633 196.594L90.1481 248.081L88.093 252.06C80.4377 269.492 70.1254 275.199 62.8351 288.229L50.0332 281.269L50.3016 276.079C47.7298 274.772 54.1629 270.953 54.7811 268.127L55.9007 263.067L63.3685 247.542L63.6534 242.075L61.6096 204.888L62.5713 154.811L79.3635 141.924L112.824 146.383Z" fill="#2F2E41"/>
<path d="M96.7374 42.5999C105.923 42.5999 113.369 35.1264 113.369 25.9073C113.369 16.6883 105.923 9.21484 96.7374 9.21484C87.5518 9.21484 80.1055 16.6883 80.1055 25.9073C80.1055 35.1264 87.5518 42.5999 96.7374 42.5999Z" fill="#FFB6B6"/>
<path d="M99.0254 159.893C77.0993 159.893 60.6515 151.605 60.4264 151.489L60.2316 151.389L60.2915 151.178C60.8801 149.109 61.4378 145.638 60.4288 145.132C60.3202 145.09 60.2239 145.021 60.1487 144.932C60.0735 144.843 60.022 144.737 59.9988 144.622C59.941 144.206 60.3558 143.826 60.9302 143.3C62.0449 142.278 63.5717 140.879 62.6763 138.632C61.0976 134.672 65.5363 114.376 65.8234 113.075L63.9275 80.7244C63.5821 74.5519 65.3646 68.4483 68.9755 63.4397C72.5863 58.4311 77.8053 54.823 83.7549 53.222L83.7971 53.2107L83.8406 53.2136C84.4571 53.2484 85.1098 51.1472 85.6049 49.6096C86.3363 47.337 86.8192 45.9405 87.643 45.9999C94.0208 46.4126 98.2706 46.6827 101.103 46.8591C106.472 47.194 107.413 53.7487 107.528 54.7951C113.308 58.3297 117.828 63.6061 120.443 69.8713C123.058 76.1366 123.635 83.0708 122.091 89.6845L119.415 101.234L117.05 106.784L117.83 117.732C121.498 120.793 120.447 127.056 120.238 128.114C123.733 131.743 121.587 136.014 121.066 136.919C121.961 138.016 122.569 139.319 122.838 140.711C123.106 142.103 123.025 143.54 122.603 144.893L125.822 155.393L125.579 155.478C117.038 158.438 108.061 159.93 99.0254 159.893Z" fill="#3F3D56"/>
<path d="M202.066 50.3245C201.487 49.5731 200.751 48.9583 199.909 48.5235C199.067 48.0886 198.141 47.8442 197.195 47.8076C196.249 47.7709 195.307 47.9429 194.434 48.3113C193.562 48.6797 192.78 49.2357 192.145 49.94L139.555 50.2273L124.613 57.4721L122.674 65.7756L146.818 64.7625L192.903 59.4796C194.153 60.4723 195.722 60.9705 197.313 60.8797C198.904 60.7889 200.407 60.1154 201.536 58.9869C202.666 57.8584 203.344 56.3533 203.441 54.7568C203.539 53.1603 203.05 51.5832 202.066 50.3245H202.066Z" fill="#FFB6B6"/>
<path d="M142.973 67.6834L122.502 77.4026L103.523 69.429L103.504 69.275C103.146 66.4576 103.639 63.5974 104.919 61.0641C106.198 58.5308 108.206 56.4411 110.681 55.0651C114.642 52.8495 118.959 51.3493 123.437 50.6328C135.991 48.7586 138.537 48.0387 138.561 48.0315L138.837 47.9512L142.973 67.6834Z" fill="#3F3D56"/>
<path d="M82.6346 36.3991C82.4293 36.3999 82.2253 36.3669 82.0307 36.3013C81.2665 35.9652 80.6276 35.3953 80.2054 34.673C77.2575 30.4179 75.8341 24.7446 75.9753 17.8106C76.0349 14.8771 76.3658 11.1265 78.4127 8.13682C80.134 5.62289 83.616 3.62785 86.8611 4.62929C86.8241 3.97802 86.9682 3.32927 87.2772 2.75539C87.5862 2.18151 88.048 1.70508 88.6111 1.37926C89.8545 0.738119 91.2273 0.390074 92.625 0.361603C95.9208 0.0515766 99.3278 -0.268904 102.665 0.365776C106.407 1.07811 109.467 3.01381 111.059 5.67647L111.092 5.76011L111.416 7.33795C111.459 7.55006 111.548 7.75019 111.676 7.92456C111.804 8.09893 111.968 8.24339 112.157 8.34799C112.346 8.45258 112.555 8.51484 112.77 8.53046C112.985 8.54608 113.201 8.5147 113.403 8.43847C113.624 8.35519 113.862 8.33104 114.095 8.36839C114.327 8.40575 114.546 8.50332 114.73 8.65149C114.913 8.79967 115.055 8.99331 115.141 9.21331C115.227 9.43331 115.255 9.67206 115.221 9.906L115.131 10.5337L116.072 10.3569C116.307 10.3128 116.55 10.3322 116.776 10.413C117.002 10.4938 117.202 10.6332 117.356 10.817C117.511 11.0007 117.614 11.2223 117.655 11.4591C117.697 11.6959 117.675 11.9395 117.592 12.165L117.326 12.8868C117.521 12.888 117.713 12.9293 117.891 13.0081C118.069 13.0868 118.23 13.2014 118.362 13.3448C118.553 13.5502 118.673 13.8114 118.704 14.0902C118.736 14.3689 118.679 14.6506 118.54 14.8941C117.488 16.6994 115.996 18.2063 114.203 19.2729C113.224 19.8643 112.153 20.2871 111.034 20.5237C103.777 22.0957 96.2933 22.3215 88.9544 21.19C89.3888 22.6428 89.5561 24.1628 89.4479 25.6757C89.3843 26.5337 89.0879 27.3579 88.5909 28.0589C88.0939 28.76 87.4153 29.3111 86.6285 29.6528C86.292 29.7626 85.9475 29.846 85.5982 29.9021C85.2641 29.9544 84.9351 30.0346 84.6144 30.1421C84.1392 30.3173 83.7183 30.6152 83.3944 31.0057C83.0705 31.3963 82.8549 31.8656 82.7694 32.3665C82.684 32.8673 82.7316 33.3819 82.9075 33.8584C83.0835 34.3349 83.3815 34.7564 83.7716 35.0803L84.5003 34.3181L84.2632 35.2871C84.2138 35.4757 84.1254 35.6518 84.0037 35.8039C83.882 35.956 83.7297 36.0807 83.5569 36.1699C83.2731 36.3218 82.9562 36.4005 82.6346 36.3991Z" fill="#2F2E41"/>
<path d="M194.011 239.84C246.469 239.84 288.995 197.811 288.995 145.965C288.995 94.1193 246.469 52.0898 194.011 52.0898C141.552 52.0898 99.0262 94.1193 99.0262 145.965C99.0262 197.811 141.552 239.84 194.011 239.84Z" fill="#E6E6E6"/>
<path d="M272.712 145.965C272.725 157.222 270.262 168.343 265.5 178.535C265.354 178.849 265.202 179.164 265.051 179.478C257.768 194.451 245.935 206.716 231.258 214.504C230.951 214.666 230.643 214.829 230.335 214.986C219.095 220.768 206.641 223.773 194.011 223.749C189.63 223.75 185.256 223.393 180.932 222.68C180.588 222.623 180.243 222.565 179.904 222.502C163.727 219.614 148.852 211.729 137.354 199.948C137.114 199.702 136.874 199.45 136.629 199.199C125.617 187.661 118.45 172.974 116.118 157.169C116.071 156.824 116.019 156.478 115.977 156.132C113.85 140.063 116.833 123.73 124.5 109.462C124.662 109.153 124.834 108.844 125.001 108.54C130.906 97.9561 139.173 88.8881 149.154 82.0466C149.441 81.8476 149.728 81.6537 150.015 81.4599C159.659 75.0239 170.596 70.7948 182.049 69.0722C182.394 69.025 182.738 68.9727 183.082 68.9255C186.704 68.4282 190.355 68.1797 194.011 68.1817C205.522 68.1629 216.899 70.6561 227.355 75.4887C227.673 75.6354 227.986 75.782 228.299 75.9339C238.079 80.6169 246.79 87.2753 253.888 95.4924C254.117 95.7543 254.347 96.0215 254.566 96.2886C263.145 106.451 268.947 118.676 271.402 131.765V131.77C271.47 132.111 271.528 132.451 271.585 132.797C272.337 137.146 272.714 141.552 272.712 145.965Z" fill="white"/>
<path d="M201.782 140.053C202.865 141.4 203.568 143.015 203.817 144.728L241.737 137.55C240.24 129.459 236.669 121.899 231.377 115.613L201.782 140.053Z" fill="#0091CD"/>
<path d="M242.928 138.22C242.881 137.874 242.818 137.534 242.756 137.194V137.188C241.227 128.923 237.584 121.199 232.182 114.775C231.958 114.508 231.728 114.241 231.498 113.984C227.145 109.005 221.847 104.946 215.915 102.042H215.909C215.596 101.89 215.288 101.738 214.97 101.591C206.269 97.5807 196.606 96.1504 187.122 97.4689C186.777 97.5108 186.433 97.5631 186.088 97.6208C179.216 98.7124 172.649 101.243 166.815 105.048C166.523 105.237 166.23 105.431 165.943 105.63C159.537 109.988 154.241 115.798 150.485 122.59C150.318 122.894 150.151 123.203 149.984 123.517C145.292 132.481 143.528 142.699 144.942 152.724C144.984 153.075 145.036 153.421 145.099 153.761C146.679 163.419 151.135 172.37 157.88 179.438C158.115 179.689 158.355 179.94 158.606 180.187C165.706 187.37 174.817 192.215 184.726 194.078C185.071 194.146 185.415 194.203 185.76 194.261C196.32 196.02 207.164 194.35 216.713 189.494C217.021 189.337 217.324 189.175 217.632 189.007H217.637C226.665 184.16 233.969 176.617 238.539 167.422C238.695 167.108 238.847 166.793 238.993 166.479C243.117 157.674 244.488 147.822 242.928 138.22L242.928 138.22ZM238.043 166.044C237.897 166.364 237.745 166.678 237.589 166.987C233.111 175.973 225.967 183.344 217.141 188.085C216.833 188.248 216.525 188.41 216.217 188.567C206.877 193.32 196.267 194.952 185.937 193.224C185.593 193.172 185.243 193.114 184.904 193.046C175.22 191.223 166.316 186.49 159.373 179.474C159.122 179.228 158.882 178.977 158.642 178.725C152.051 171.816 147.691 163.072 146.132 153.635C146.075 153.295 146.023 152.949 145.976 152.604C144.593 142.795 146.316 132.798 150.902 124.025C151.059 123.716 151.226 123.407 151.398 123.098C155.082 116.443 160.273 110.752 166.554 106.483C166.841 106.284 167.128 106.091 167.42 105.907C173.118 102.198 179.527 99.7282 186.235 98.6579C186.574 98.6003 186.918 98.5479 187.268 98.506C196.55 97.2157 206.007 98.617 214.521 102.544C214.84 102.686 215.153 102.838 215.461 102.99C221.259 105.824 226.437 109.788 230.695 114.649C230.924 114.911 231.154 115.178 231.373 115.446C236.665 121.731 240.235 129.291 241.733 137.382C241.795 137.723 241.853 138.063 241.905 138.414C243.421 147.804 242.075 157.435 238.043 166.044V166.044Z" fill="#CCCCCC"/>
<path d="M190.384 138.151L189.533 138.759L166.554 106.483L165.943 105.629L149.154 82.0476C149.441 81.8486 149.728 81.6547 150.015 81.4609L166.815 105.047L167.42 105.906L190.384 138.151Z" fill="#CCCCCC"/>
<path d="M186.276 142.326L185.77 143.248L150.903 124.024L149.984 123.516L124.5 109.463C124.662 109.154 124.834 108.845 125.001 108.541L150.485 122.589L151.398 123.097L186.276 142.326Z" fill="#CCCCCC"/>
<path d="M185.833 148.963L146.132 153.635L145.099 153.761L116.118 157.171C116.071 156.825 116.019 156.479 115.977 156.134L144.942 152.724L145.976 152.603L185.713 147.926L185.833 148.963Z" fill="#CCCCCC"/>
<path d="M188.395 152.483L159.373 179.474L158.606 180.186L137.354 199.949C137.114 199.703 136.874 199.452 136.629 199.2L157.88 179.437L158.642 178.725L187.685 151.713L188.395 152.483Z" fill="#CCCCCC"/>
<path d="M228.299 75.9354L215.915 102.041H215.91L215.461 102.989L198.53 138.681L197.591 138.23L214.521 102.544L214.97 101.591L227.355 75.4902C227.673 75.6369 227.986 75.7836 228.299 75.9354Z" fill="#CCCCCC"/>
<path d="M254.566 96.2884L232.182 114.773L231.373 115.444L200.775 140.711L200.112 139.905L230.695 114.647L231.499 113.982L253.888 95.4922C254.117 95.7541 254.347 96.0212 254.566 96.2884Z" fill="#CCCCCC"/>
<path d="M271.585 132.798L242.928 138.219L241.905 138.413L202.69 145.835L202.497 144.809L241.733 137.381L242.756 137.193V137.188L271.402 131.771C271.47 132.112 271.528 132.452 271.585 132.798Z" fill="#CCCCCC"/>
<path d="M265.5 178.536C265.354 178.85 265.202 179.164 265.051 179.479L238.539 167.421L237.589 166.986L201.782 150.701L202.215 149.748L238.043 166.043L238.993 166.478L265.5 178.536Z" fill="#CCCCCC"/>
<path d="M231.258 214.504C230.951 214.666 230.643 214.829 230.335 214.986L216.713 189.493L216.217 188.566L197.602 153.723L198.52 153.23L217.141 188.084L217.632 189.006H217.637L231.258 214.504Z" fill="#CCCCCC"/>
<path d="M192.497 154.567L185.937 193.223L185.76 194.26L180.932 222.681C180.588 222.624 180.243 222.566 179.904 222.503L184.726 194.077L184.904 193.045L191.464 154.389L192.497 154.567Z" fill="#CCCCCC"/>
<path d="M192.795 137.553L191.761 137.7L186.235 98.6564L186.089 97.6193L182.049 69.0725C182.394 69.0253 182.738 68.973 183.082 68.9258L187.122 97.4674L187.268 98.5045L192.795 137.553Z" fill="#CCCCCC"/>
<path d="M194.011 155.766C199.487 155.766 203.927 151.379 203.927 145.966C203.927 140.554 199.487 136.166 194.011 136.166C188.534 136.166 184.095 140.554 184.095 145.966C184.095 151.379 188.534 155.766 194.011 155.766Z" fill="#3F3D56"/>
<path d="M397.992 419.933L390.57 426.17L363.067 400.405L374.021 391.199L397.992 419.933Z" fill="#A0616A"/>
<path d="M404.737 427.483L381.914 446.664L381.672 446.375C379.699 444.01 378.743 440.956 379.014 437.884C379.285 434.811 380.76 431.973 383.116 429.993L383.117 429.992L384.637 423.314L395.065 419.952L397.057 418.277L404.737 427.483Z" fill="#2F2E41"/>
<path d="M331.679 443.716L321.999 443.716L317.393 406.24L331.681 406.241L331.679 443.716Z" fill="#A0616A"/>
<path d="M332.02 453.851L302.251 453.85V453.472C302.252 450.388 303.472 447.43 305.645 445.25C307.818 443.069 310.765 441.844 313.838 441.843H313.839L319.276 437.703L329.422 441.844L332.021 441.844L332.02 453.851Z" fill="#2F2E41"/>
<path d="M355.891 264.382C358.23 267.316 357.061 277.29 357.061 277.29L357.634 339.411C367.572 347.626 375.184 381.731 375.184 381.731L384.673 399.254C383.504 402.774 375.919 416.541 373.58 415.954C372.495 415.682 358.989 403.181 350.007 384.641C339.632 363.225 333.676 335.378 333.676 335.378C333.676 335.378 334.845 415.176 334.845 418.696C334.845 422.216 319.061 420.456 315.553 420.456C312.045 420.456 293.99 276.704 293.99 276.704V268.489L296.913 264.382C296.913 264.382 353.553 261.448 355.891 264.382Z" fill="#2F2E41"/>
<path d="M230.22 131.745L223.13 135.066L231.031 133.406C231.031 133.406 236.837 133.643 236.837 131.271L246.289 126.053C246.289 126.053 254.324 130.322 256.687 127.951C259.05 125.579 254.796 120.835 254.796 120.835C254.796 120.835 257.644 119.259 257.402 118.624C257.16 117.989 253.379 118.938 253.379 118.938C253.379 118.938 244.399 113.72 244.871 122.733L235.419 129.023C235.419 129.023 230.692 128.899 230.22 131.745Z" fill="#3F3D56"/>
<path d="M359.14 284.696C346.733 290.874 331.97 292.742 318.064 291.102C306.076 289.685 303.583 276.242 292.456 271.473C295.973 261.333 296.015 247.873 295.421 244.096C294.404 237.646 294.215 192.69 297.939 188.009C302.823 181.867 310.278 178.586 309.939 170.735L310.984 171.811C309.664 168.326 312.22 164.337 315.584 162.761C318.949 161.184 322.836 161.384 326.544 161.616C329.666 161.812 332.787 162.008 335.909 162.204C335.5 163.483 335.402 164.842 335.621 166.166C335.84 167.491 336.371 168.745 337.169 169.823C342.702 168.29 348.539 172.364 351.011 177.557C353.482 182.755 353.423 188.753 353.311 194.511C353.183 201.173 358.103 247.96 352.151 250.921C355.221 251.697 359.56 268.128 356.941 266.348C358.153 267.2 357.86 275.157 359.14 284.696Z" fill="#0091CD"/>
<path d="M238.542 124.004C239.88 123.609 241.288 123.514 242.666 123.724C244.045 123.935 245.361 124.446 246.521 125.222C247.681 125.998 248.658 127.02 249.382 128.216C250.107 129.411 250.561 130.752 250.713 132.143L303.354 178.596L293.849 184.934L241.601 142.87C239.255 142.972 236.954 142.207 235.134 140.719C233.313 139.232 232.099 137.126 231.722 134.801C231.345 132.475 231.831 130.091 233.088 128.102C234.345 126.112 236.286 124.654 238.542 124.004Z" fill="#A0616A"/>
<path d="M295.231 163.61C294.079 163.677 266.874 143.754 266.178 144.678L264.349 154.629L259.321 161.303L270.191 172.869L273.297 175.426L275.294 177.545C274.596 178.482 279.232 183.507 279.483 184.654C279.605 185.215 279.845 185.744 280.188 186.204C280.53 186.664 280.968 187.045 281.47 187.32L299.159 196.953C301.517 198.711 304.474 199.458 307.38 199.031C310.286 198.604 312.905 197.037 314.663 194.675C316.42 192.313 317.172 189.348 316.755 186.43C316.337 183.512 314.783 180.879 312.435 179.109L309.825 176.461L305.829 172.395L298.349 164.793C297.946 164.381 297.458 164.062 296.92 163.858C296.381 163.654 295.805 163.569 295.231 163.61Z" fill="#0091CD"/>
<path d="M324.579 156.354C335.176 156.354 343.768 147.731 343.768 137.095C343.768 126.458 335.176 117.836 324.579 117.836C313.981 117.836 305.389 126.458 305.389 137.095C305.389 147.731 313.981 156.354 324.579 156.354Z" fill="#A0616A"/>
<path d="M347.469 130.996C346.402 126.746 342.422 123.038 338.076 123.468C338.613 120.194 336.442 116.897 333.515 115.354C330.588 113.811 327.091 113.745 323.829 114.282C321.934 114.627 320.058 115.067 318.207 115.601C316.637 116.025 309.275 113.495 307.715 113.957C306.381 114.352 303.172 119.148 302.159 120.104C301.146 121.061 300.61 122.671 301.287 123.891C301.954 125.095 303.482 125.487 304.851 125.6C306.219 125.713 307.689 125.693 308.825 126.467C310.285 127.462 310.699 129.446 310.639 131.216C310.58 132.986 310.176 134.771 310.505 136.511C310.834 138.251 312.237 139.989 313.998 139.87C315.316 138.475 317.724 138.564 319.236 139.744C319.959 140.379 320.536 141.162 320.929 142.042C321.322 142.921 321.521 143.875 321.512 144.839C321.481 146.763 321.183 148.674 320.627 150.516C320.31 151.788 320.071 153.33 321.01 154.242C321.563 154.684 322.228 154.963 322.93 155.047C325.701 155.637 336.098 154.836 338.868 155.427L338.654 155.002C340.66 151.11 343.324 147.585 345.297 143.675C347.269 139.765 348.536 135.246 347.469 130.996Z" fill="#2F2E41"/>
<path d="M376.924 290.056C375.568 289.73 374.299 289.109 373.208 288.238C372.117 287.367 371.229 286.267 370.607 285.014C369.986 283.761 369.645 282.387 369.61 280.988C369.575 279.589 369.846 278.199 370.404 276.917L347.78 210.331L359.167 209.582L383.626 272.164C385.711 273.247 387.328 275.06 388.169 277.26C389.011 279.459 389.019 281.892 388.193 284.098C387.367 286.303 385.764 288.128 383.686 289.226C381.609 290.324 379.203 290.619 376.924 290.056Z" fill="#A0616A"/>
<path d="M342.541 219.036C343.574 219.554 357.291 250.423 358.353 249.97L364.873 242.251L372.544 238.974L368.851 223.513L367.425 219.744L366.744 216.908C367.814 216.444 366.285 209.77 366.635 208.65C366.808 208.102 366.862 207.524 366.793 206.954C366.724 206.383 366.533 205.835 366.235 205.345L355.668 188.154C354.494 185.451 352.301 183.326 349.568 182.245C346.836 181.164 343.787 181.214 341.091 182.385C338.396 183.556 336.273 185.752 335.188 188.492C334.103 191.231 334.145 194.291 335.305 197L336.255 200.6L337.706 206.123L340.423 216.452C340.569 217.011 340.834 217.532 341.199 217.978C341.565 218.424 342.023 218.785 342.541 219.036Z" fill="#0091CD"/>
<path d="M172.913 310.294L167.568 301.672L166.5 306.599C166.313 307.462 166.126 308.339 165.952 309.208C164.434 307.907 162.818 306.703 161.238 305.548C156.385 302.013 151.534 298.474 146.685 294.93L148.203 303.767C149.139 309.208 150.117 314.761 152.433 319.737C152.689 320.3 152.966 320.857 153.265 321.4H175.825C176.007 320.895 176.132 320.373 176.2 319.841C176.205 319.806 176.207 319.771 176.206 319.737C176.56 316.362 174.702 313.182 172.913 310.294Z" fill="#F0F0F0"/>
<path d="M103.585 162.272C102.685 161.979 101.86 161.491 101.168 160.842C100.476 160.194 99.9338 159.401 99.5801 158.52C99.2264 157.639 99.0696 156.69 99.1205 155.742C99.1715 154.793 99.4291 153.867 99.8752 153.029L82.3909 103.249L84.1415 86.6868L91.2749 82.0527L98.4753 105.204L109.078 150.525C110.431 151.37 111.428 152.684 111.88 154.218C112.332 155.752 112.208 157.399 111.531 158.847C110.853 160.295 109.671 161.444 108.206 162.075C106.742 162.706 105.098 162.776 103.585 162.272L103.585 162.272Z" fill="#FFB6B6"/>
<path d="M72.9697 69.2678L89.506 62.8438L99.1071 94.9646L76.9458 102.013L72.9697 69.2678Z" fill="#3F3D56"/>
</svg>
