<svg width="550" height="444" viewBox="0 0 550 444" fill="none" xmlns="http://www.w3.org/2000/svg">
<path d="M439.079 80.7441C436.222 112.025 428.082 145.01 415.317 176.835C399.531 216.192 377.963 250.857 352.944 277.083L351.556 275.88C376.453 249.78 397.923 215.268 413.643 176.074C427.851 140.656 436.301 103.797 438.092 69.5L439.866 69.7951C439.678 73.4174 439.415 77.067 439.079 80.7441Z" fill="#F2F2F2"/>
<path d="M450.458 262.42C415.318 317.973 372.685 357.666 330.413 374.186L329.558 372.628C371.538 356.222 413.92 316.733 448.9 261.434L450.458 262.42Z" fill="#F2F2F2"/>
<path d="M438.226 119.689C435.369 150.971 427.229 183.955 414.464 215.781C398.678 255.137 377.11 289.802 352.091 316.028L350.703 314.825C375.6 288.726 397.07 254.214 412.79 215.02C426.998 179.601 435.448 142.743 437.239 108.445L439.013 108.74C438.825 112.363 438.562 116.012 438.226 119.689Z" fill="#F2F2F2"/>
<path d="M43.7331 199.997H20.6769C20.1843 199.998 19.6979 199.888 19.2541 199.676C18.8103 199.463 18.4207 199.154 18.1145 198.77C17.8119 198.397 17.5985 197.96 17.4902 197.493C17.3818 197.025 17.3814 196.54 17.489 196.072C19.6848 186.444 19.5469 176.435 17.0865 166.871C16.9309 166.241 16.9685 165.579 17.1945 164.971C17.4206 164.363 17.8247 163.836 18.3548 163.457C30.2103 154.984 39.5469 155.23 46.1055 164.189C46.4012 164.598 46.5976 165.069 46.6793 165.565C48.4317 176.034 48.5287 186.71 46.9667 197.208C46.8582 197.983 46.4708 198.692 45.8762 199.205C45.2817 199.718 44.5204 199.999 43.7331 199.997Z" fill="#E6E6E6"/>
<path d="M36.5855 177.054H28.6542C28.2156 177.054 27.795 176.881 27.4848 176.573C27.1747 176.265 27.0005 175.847 27.0005 175.411C27.0005 174.975 27.1747 174.557 27.4848 174.249C27.795 173.941 28.2156 173.768 28.6542 173.768H36.5855C37.0235 173.768 37.4433 173.942 37.7526 174.25C38.062 174.558 38.2358 174.976 38.2358 175.411C38.2358 175.846 38.062 176.264 37.7526 176.572C37.4433 176.88 37.0235 177.053 36.5855 177.054Z" fill="white"/>
<path d="M36.5855 182.818H28.6542C28.2156 182.818 27.795 182.645 27.4848 182.336C27.1747 182.028 27.0005 181.61 27.0005 181.175C27.0005 180.739 27.1747 180.321 27.4848 180.013C27.795 179.704 28.2156 179.531 28.6542 179.531H36.5855C37.0235 179.532 37.4433 179.706 37.7526 180.014C38.062 180.322 38.2358 180.739 38.2358 181.175C38.2358 181.61 38.062 182.027 37.7526 182.335C37.4433 182.643 37.0235 182.817 36.5855 182.818Z" fill="white"/>
<path d="M36.5855 188.581H28.6542C28.2156 188.581 27.795 188.408 27.4848 188.1C27.1747 187.792 27.0005 187.374 27.0005 186.938C27.0005 186.502 27.1747 186.084 27.4848 185.776C27.795 185.468 28.2156 185.295 28.6542 185.295H36.5855C37.0235 185.296 37.4433 185.469 37.7526 185.777C38.062 186.086 38.2358 186.503 38.2358 186.938C38.2358 187.373 38.062 187.791 37.7526 188.099C37.4433 188.407 37.0235 188.581 36.5855 188.581Z" fill="white"/>
<path d="M462.756 302.292H439.7C439.208 302.293 438.721 302.183 438.277 301.971C437.834 301.758 437.444 301.449 437.138 301.065C436.835 300.692 436.622 300.255 436.513 299.788C436.405 299.32 436.405 298.835 436.512 298.367C438.708 288.739 438.57 278.73 436.11 269.166C435.954 268.536 435.992 267.874 436.218 267.266C436.444 266.658 436.848 266.13 437.378 265.752C449.234 257.279 458.57 257.525 465.129 266.484C465.424 266.893 465.621 267.364 465.703 267.86C467.455 278.328 467.552 289.005 465.99 299.503C465.881 300.278 465.494 300.987 464.899 301.5C464.305 302.013 463.544 302.294 462.756 302.292Z" fill="#E6E6E6"/>
<path d="M455.608 279.349H447.677C447.239 279.348 446.819 279.175 446.51 278.867C446.2 278.558 446.027 278.141 446.027 277.706C446.027 277.271 446.2 276.853 446.51 276.545C446.819 276.237 447.239 276.063 447.677 276.062H455.608C456.047 276.062 456.467 276.236 456.778 276.544C457.088 276.852 457.262 277.27 457.262 277.706C457.262 278.142 457.088 278.56 456.778 278.868C456.467 279.176 456.047 279.349 455.608 279.349Z" fill="white"/>
<path d="M455.608 285.111H447.677C447.239 285.11 446.819 284.936 446.51 284.628C446.2 284.32 446.027 283.903 446.027 283.467C446.027 283.032 446.2 282.615 446.51 282.307C446.819 281.999 447.239 281.825 447.677 281.824H455.608C456.047 281.824 456.467 281.997 456.778 282.306C457.088 282.614 457.262 283.032 457.262 283.467C457.262 283.903 457.088 284.321 456.778 284.629C456.467 284.938 456.047 285.111 455.608 285.111Z" fill="white"/>
<path d="M455.608 290.874H447.677C447.239 290.874 446.819 290.7 446.51 290.392C446.2 290.084 446.027 289.666 446.027 289.231C446.027 288.796 446.2 288.378 446.51 288.07C446.819 287.762 447.239 287.589 447.677 287.588H455.608C456.047 287.588 456.467 287.761 456.778 288.069C457.088 288.377 457.262 288.795 457.262 289.231C457.262 289.667 457.088 290.085 456.778 290.393C456.467 290.701 456.047 290.874 455.608 290.874Z" fill="white"/>
<path d="M144.631 389.925L143.193 370.05C133.773 365.371 123.346 363.048 112.818 363.282C127.63 374.659 126.443 397.397 136.702 412.959C139.938 417.788 144.227 421.832 149.251 424.79C154.274 427.748 159.903 429.545 165.72 430.047L178.047 437.095C179.457 427.833 178.83 418.378 176.209 409.381C173.587 400.384 169.034 392.058 162.863 384.978C159.362 381.04 155.375 377.556 150.997 374.608C148.303 382.295 144.631 389.925 144.631 389.925Z" fill="#F2F2F2"/>
<path d="M405.369 392.807L406.807 372.933C416.227 368.254 426.654 365.931 437.182 366.165C422.37 377.541 423.557 400.28 413.298 415.842C410.062 420.671 405.773 424.714 400.749 427.672C395.726 430.631 390.097 432.428 384.28 432.93L371.953 439.977C370.543 430.716 371.17 421.261 373.791 412.264C376.413 403.267 380.966 394.941 387.137 387.861C390.638 383.923 394.625 380.439 399.003 377.491C401.697 385.178 405.369 392.807 405.369 392.807Z" fill="#F2F2F2"/>
<path d="M268.475 168.527C276.083 168.527 282.249 162.399 282.249 154.84C282.249 147.28 276.083 141.152 268.475 141.152C260.868 141.152 254.701 147.28 254.701 154.84C254.701 162.399 260.868 168.527 268.475 168.527Z" fill="#0091CD"/>
<path d="M275.546 149.136C275.339 148.94 275.064 148.83 274.778 148.83C274.491 148.83 274.216 148.94 274.009 149.136C271.086 151.452 268.461 154.117 266.192 157.069C265.635 155.999 265.078 154.928 264.522 153.857C263.879 152.621 262.001 153.713 262.644 154.948C263.458 156.514 264.273 158.08 265.087 159.646C265.186 159.806 265.324 159.938 265.488 160.03C265.652 160.122 265.838 160.17 266.026 160.17C266.215 160.17 266.4 160.122 266.565 160.03C266.729 159.938 266.867 159.806 266.965 159.646C269.383 156.263 272.272 153.239 275.546 150.664C275.749 150.461 275.862 150.186 275.862 149.9C275.862 149.614 275.749 149.34 275.546 149.136Z" fill="white"/>
<path d="M206.843 193.651L186.072 161.237L210.125 148.438L216.437 173.168L260.917 197.052C262.673 196.424 264.575 196.317 266.391 196.745C268.207 197.173 269.859 198.116 271.145 199.46C272.431 200.804 273.295 202.491 273.633 204.315C273.97 206.139 273.767 208.021 273.046 209.732C272.326 211.443 271.12 212.909 269.576 213.951C268.032 214.992 266.217 215.565 264.351 215.599C262.485 215.633 260.649 215.127 259.067 214.143C257.486 213.158 256.227 211.737 255.444 210.054L206.843 193.651Z" fill="#A0616A"/>
<path d="M170.897 122.361C164.371 131.883 187.564 166.494 187.564 166.494C188.694 164.074 199.494 191.251 201.303 189.645C206.445 185.082 214.493 172.373 218.967 171.807C221.525 171.482 213.033 153.452 213.033 153.452C213.033 153.452 209.152 142.805 203.886 129.205C202.468 125.333 200.088 121.88 196.967 119.167C193.845 116.455 190.084 114.571 186.033 113.691C186.033 113.691 177.423 112.84 170.897 122.361Z" fill="#3F3D56"/>
<path d="M171.216 432.583L181.08 432.583L185.773 394.773L171.214 394.774L171.216 432.583Z" fill="#A0616A"/>
<path d="M168.699 429.381L171.476 429.381L182.316 425L188.126 429.38H188.127C191.41 429.38 194.559 430.676 196.881 432.983C199.203 435.29 200.507 438.419 200.507 441.682V442.082L168.7 442.083L168.699 429.381Z" fill="#2F2E41"/>
<path d="M217.044 432.583L226.909 432.583L231.602 394.773L217.043 394.774L217.044 432.583Z" fill="#A0616A"/>
<path d="M214.528 429.381L217.304 429.381L228.145 425L233.955 429.38H233.956C237.239 429.38 240.388 430.676 242.71 432.983C245.031 435.29 246.336 438.419 246.336 441.682V442.082L214.528 442.083L214.528 429.381Z" fill="#2F2E41"/>
<path d="M221.315 225.877L157.151 227.471C144.965 234.048 144.78 248.283 148.773 265.185C148.773 265.185 147.425 275.23 150.121 277.909C152.816 280.588 154.164 280.588 152.816 285.276C151.469 289.964 158.59 297.62 157.725 298.48C156.86 299.34 154.838 304.027 154.838 304.027L161.578 342.201C161.578 342.201 166.296 408.502 167.643 409.841C168.991 411.18 170.339 409.841 168.991 413.19C167.643 416.538 166.296 415.199 167.643 416.538C168.837 417.817 169.962 419.159 171.013 420.556H187.308C187.308 420.556 188.536 413.859 188.536 413.19C188.536 412.52 189.884 408.502 189.884 407.832C189.884 407.162 188.693 405.978 188.693 405.978C188.281 404.617 188.003 403.219 187.862 401.805C187.862 400.465 183.818 348.898 183.818 348.898L191.906 281.927L211.451 347.558C211.451 347.558 211.451 405.153 212.799 406.492C214.146 407.832 214.146 407.162 213.472 409.841C212.799 412.52 210.103 411.85 212.125 413.859C214.146 415.868 214.82 412.52 214.146 415.868L213.473 419.217L233.691 419.504C233.691 419.504 236.387 413.859 235.039 411.85C233.691 409.841 233.772 410.389 235.417 407.102C237.061 403.814 237.735 403.144 237.061 402.474C236.387 401.805 236.387 398.243 236.387 398.243L233.017 334.164C233.017 334.164 232.343 266.524 232.343 264.515C232.292 263.481 232.484 262.45 232.903 261.502V258.775L230.321 249.112L221.315 225.877Z" fill="#2F2E41"/>
<path d="M182.77 93.3002C193.781 93.3002 202.706 84.4308 202.706 73.4899C202.706 62.549 193.781 53.6797 182.77 53.6797C171.76 53.6797 162.834 62.549 162.834 73.4899C162.834 84.4308 171.76 93.3002 182.77 93.3002Z" fill="#A0616A"/>
<path d="M192.738 106.394C197.033 108.931 199.602 113.593 201.077 118.337C203.808 127.12 205.451 136.2 205.972 145.378L207.529 172.854L226.822 231.359C210.102 245.418 147.252 234.554 147.252 234.554C147.252 234.554 145.323 233.915 147.252 231.998C149.181 230.081 151.059 231.779 149.13 229.862C147.201 227.945 148.531 230.081 149.174 228.164C149.817 226.247 149.174 227.525 148.531 226.886C147.888 226.247 153.509 220.495 153.509 220.495L148.365 186.913L141.934 119.175C149.651 109.589 165.171 103.938 165.171 103.938L169.181 96.7656L189.232 98.3596L192.738 106.394Z" fill="#3F3D56"/>
<path d="M199.204 62.9636C200.754 64.1119 201.902 65.7143 202.487 67.5451C202.711 64.5532 202.725 61.5494 202.529 58.5556C202.294 56.4519 200.804 55.9786 199.078 55.4303C197.519 54.9349 195.757 54.3753 195.282 52.3331C189.016 46.2751 178.106 46.5806 170.641 48.6937C166.532 49.8565 164.169 51.3505 163.957 52.2256L163.913 52.4058L163.746 52.4887C160.58 54.0621 159.963 59.0304 160.004 62.9211C160.081 70.2516 162.628 78.5772 164.063 79.2535C164.139 79.2893 164.158 79.2753 164.191 79.2481C166.352 77.5323 168.988 79.3785 170.146 80.3821C170.83 75.8261 173.03 71.629 176.395 68.4611C179.76 65.2933 184.097 63.3375 188.712 62.906C190.219 62.7612 191.714 62.5121 193.187 62.1604C193.933 61.9684 194.701 61.8683 195.473 61.8623C196.8 61.8423 198.103 62.2266 199.204 62.9636Z" fill="#2F2E41"/>
<path d="M322.964 241.661L361.314 202.963L371.418 172.014L355.158 165.479C347.104 173.552 338.813 198.267 338.813 198.267L312.638 233.175C312.429 233.252 312.22 233.334 312.015 233.43C310.81 233.996 309.772 234.86 309.002 235.941C308.231 237.021 307.754 238.281 307.617 239.598C307.479 240.916 307.686 242.246 308.217 243.46C308.749 244.675 309.586 245.733 310.649 246.532C311.712 247.331 312.964 247.844 314.284 248.021C315.605 248.199 316.95 248.035 318.188 247.545C319.426 247.055 320.516 246.256 321.353 245.226C322.19 244.195 322.745 242.967 322.964 241.661Z" fill="#FFB8B8"/>
<path d="M350.723 169.021L371.285 174.931L371.362 174.917C378.92 173.458 384.899 160.977 388.583 150.763C389.795 147.395 389.675 143.694 388.246 140.41C386.818 137.126 384.188 134.504 380.888 133.073C378.446 132.033 375.761 131.694 373.135 132.091C370.51 132.489 368.048 133.609 366.03 135.324L355.778 144.096L350.723 169.021Z" fill="#6C63FF"/>
<path d="M333.131 431.433L322.072 431.432L316.812 389.049L333.132 389.05L333.131 431.433Z" fill="#FFB8B8"/>
<path d="M335.952 427.844L332.839 427.844L320.687 422.934L314.174 427.844H314.173C310.493 427.844 306.963 429.297 304.36 431.883C301.757 434.469 300.295 437.977 300.295 441.634V442.082L335.951 442.084L335.952 427.844Z" fill="#2F2E41"/>
<path d="M382.198 431.433L371.14 431.432L365.879 389.049L382.2 389.05L382.198 431.433Z" fill="#FFB8B8"/>
<path d="M385.019 427.844L381.907 427.844L369.755 422.934L363.242 427.844H363.241C359.56 427.844 356.03 429.297 353.427 431.883C350.825 434.469 349.363 437.977 349.362 441.634V442.082L385.018 442.084L385.019 427.844Z" fill="#2F2E41"/>
<path d="M399.06 248.87C399.06 248.87 400.351 264.267 397.123 279.022C393.895 293.778 393.895 335.335 393.895 335.335L386.793 416.314L365.488 414.389L359.677 279.023L339.017 324.572L340.954 330.988L338.374 332.592C338.374 332.592 340.308 345.102 339.017 345.102C337.726 345.102 334.498 347.027 334.498 347.027L337.08 413.106L315.129 412.464L307.382 319.44L315.775 266.192L316.421 255.927L319.326 256.045L320.805 251.757L323.522 244.379L399.06 248.87Z" fill="#2F2E41"/>
<path d="M400.176 252.104L400.291 251.943C406.436 243.394 397.194 222.85 395.8 219.872L401.671 217.979L400.349 206.811L399.722 201.832L404.21 197.373L404.223 197.261L406.805 174.807L410.56 159.893C411.975 154.256 411.854 148.345 410.21 142.769C408.567 137.192 405.46 132.151 401.208 128.162L392.528 120.03L381.98 104.521H364.97L359.138 115.469C353.483 116.767 348.466 119.996 344.961 124.592C341.456 129.188 339.684 134.861 339.955 140.622L341.277 169.333L336.102 205.08L336.099 211.549L330.276 217.981L331.547 224.299L327.115 226.186L325.158 235.26C324.349 236.322 319.003 243.405 319.003 245.341C319.003 245.632 319.219 245.913 319.682 246.225C323.325 248.676 343.46 253.673 352.372 250.13C361.865 246.358 399.599 252.016 399.98 252.074L400.176 252.104Z" fill="#0091CD"/>
<path d="M371.278 99.515C383.719 99.515 393.805 89.4927 393.805 77.1296C393.805 64.7664 383.719 54.7441 371.278 54.7441C358.836 54.7441 348.75 64.7664 348.75 77.1296C348.75 89.4927 358.836 99.515 371.278 99.515Z" fill="#FFB8B8"/>
<path d="M369.12 99.8787C372.608 99.8433 376.088 99.5118 379.52 98.8879C382.918 98.11 390.414 92.3499 392.457 88.947C393.975 86.4187 394.886 82.508 395.383 79.6728C396.054 75.9205 395.925 72.0699 395.004 68.3704C394.082 64.671 392.389 61.2051 390.034 58.1972C389.126 56.9371 387.892 55.9443 386.463 55.3237C386.336 55.2783 386.207 55.2385 386.075 55.205C384.004 54.7198 382.126 53.6305 380.682 52.0768C380.401 51.7622 380.098 51.4682 379.776 51.1969C378.156 49.9081 376.252 49.0185 374.22 48.6009C370.937 47.8175 366.241 48.7992 360.262 51.5214C357.258 52.8891 353.925 52.5075 351.355 52.0223C351.211 51.9985 351.063 52.0125 350.926 52.0631C350.789 52.1136 350.668 52.1989 350.575 52.3105C349.514 53.3526 348.096 53.957 346.605 54.0024C345.692 54.0657 344.767 55.3469 343.651 57.0153C343.398 57.394 343.103 57.836 342.888 58.1057L342.845 57.5992L342.343 58.1784C341.555 59.0887 341.01 60.1826 340.761 61.3582C340.512 62.5338 340.567 63.753 340.92 64.902C341.272 66.0511 341.912 67.0928 342.779 67.9301C343.646 68.7673 344.712 69.3729 345.878 69.6905C346.803 69.9098 347.749 70.0347 348.699 70.0633C349.275 70.0999 349.872 70.1378 350.444 70.2215C352.283 70.5468 354.005 71.3403 355.444 72.5246C356.882 73.709 357.986 75.2436 358.649 76.9787C358.806 77.3797 359.053 77.7396 359.372 78.0306C359.69 78.3216 360.072 78.5359 360.488 78.6569C360.903 78.778 361.341 78.8027 361.767 78.729C362.193 78.6552 362.597 78.4851 362.947 78.2318C363.529 77.7571 364.217 77.4294 364.954 77.2764C365.691 77.1235 366.454 77.1499 367.178 77.3534C367.808 77.6806 368.306 78.213 368.588 78.8614C368.928 79.5831 369.478 80.1876 370.165 80.5978C372.511 81.7242 372.807 86.9735 372.089 91.3741C371.398 95.6159 369.893 98.7102 368.43 98.8988C367.304 99.0438 367.177 99.1269 367.101 99.3274L367.032 99.5069L367.163 99.6697C367.793 99.8784 368.46 99.9496 369.12 99.8787Z" fill="#2F2E41"/>
<path d="M350.429 171.413L339.601 157.703C328.571 160.721 309 178.056 309 178.056L268.807 195.388C267.466 195.164 266.089 195.295 264.814 195.768C263.54 196.241 262.414 197.039 261.549 198.082C260.683 199.125 260.11 200.377 259.886 201.71C259.662 203.043 259.796 204.412 260.274 205.677C260.751 206.943 261.556 208.061 262.607 208.92C263.657 209.778 264.917 210.346 266.259 210.567C267.601 210.788 268.978 210.653 270.251 210.177C271.524 209.701 272.649 208.9 273.511 207.855L326.163 193.259L350.429 171.413Z" fill="#FFB8B8"/>
<path d="M347.834 174.547L364.92 155.621L365.869 142.21C366.045 139.577 365.477 136.947 364.228 134.617C362.98 132.288 361.1 130.352 358.802 129.028C355.675 127.255 351.987 126.727 348.484 127.553C344.981 128.378 341.923 130.494 339.93 133.474C333.893 142.515 327.398 154.739 330.74 161.631L330.774 161.701L347.834 174.547Z" fill="#0091CD"/>
<path d="M190.357 245.685L145.951 223.086C142.792 221.478 141.746 217.214 143.619 213.581L172.573 157.403C174.445 153.77 178.538 152.122 181.697 153.729L226.104 176.328C229.262 177.936 230.309 182.2 228.436 185.833L199.482 242.011C197.609 245.644 193.516 247.292 190.357 245.685Z" fill="#E6E6E6"/>
<path d="M182.77 235.297L152.6 219.942C149.642 218.437 148.661 214.444 150.415 211.041L174.47 164.369C176.224 160.966 180.057 159.423 183.015 160.928L219.455 179.473C222.413 180.979 223.393 184.972 221.639 188.375L208.572 213.729C200.76 228.886 195.947 242.003 182.77 235.297Z" fill="white"/>
<path d="M197.687 209.808L170.965 196.209C170.638 195.977 170.406 195.637 170.311 195.25C170.216 194.862 170.264 194.454 170.447 194.099C170.63 193.744 170.935 193.467 171.307 193.317C171.679 193.167 172.092 193.155 172.472 193.284L199.195 206.883C199.522 207.115 199.754 207.455 199.849 207.842C199.944 208.23 199.896 208.638 199.713 208.993C199.53 209.348 199.225 209.625 198.853 209.775C198.481 209.925 198.067 209.937 197.687 209.808Z" fill="#0091CD"/>
<path d="M174.084 205.094L167.986 201.99C167.659 201.759 167.427 201.418 167.332 201.031C167.237 200.644 167.285 200.235 167.468 199.88C167.651 199.526 167.956 199.248 168.328 199.098C168.7 198.948 169.113 198.937 169.493 199.065L175.592 202.168C175.918 202.4 176.151 202.74 176.246 203.128C176.341 203.515 176.292 203.923 176.109 204.278C175.927 204.633 175.621 204.911 175.249 205.06C174.878 205.21 174.464 205.222 174.084 205.094Z" fill="#6C63FF"/>
<path d="M181.907 216.368L165.007 207.767C164.68 207.536 164.448 207.196 164.353 206.808C164.258 206.421 164.307 206.013 164.489 205.658C164.672 205.303 164.978 205.025 165.349 204.875C165.721 204.726 166.135 204.714 166.515 204.842L183.414 213.443C183.741 213.674 183.973 214.014 184.068 214.402C184.163 214.789 184.115 215.197 183.932 215.552C183.749 215.907 183.444 216.185 183.072 216.335C182.7 216.484 182.286 216.496 181.907 216.368V216.368Z" fill="#0091CD"/>
<path d="M208.262 189.291L181.539 175.691C181.213 175.46 180.981 175.119 180.885 174.732C180.79 174.345 180.839 173.936 181.022 173.581C181.205 173.227 181.51 172.949 181.882 172.799C182.253 172.65 182.667 172.638 183.047 172.766L209.77 186.366C210.096 186.597 210.329 186.937 210.424 187.325C210.519 187.712 210.47 188.12 210.287 188.475C210.105 188.83 209.799 189.108 209.428 189.258C209.056 189.407 208.642 189.419 208.262 189.291Z" fill="#0091CD"/>
<path d="M184.659 184.574L178.561 181.471C178.234 181.239 178.002 180.899 177.907 180.511C177.812 180.124 177.86 179.716 178.043 179.361C178.226 179.006 178.531 178.728 178.903 178.579C179.275 178.429 179.689 178.417 180.068 178.545L186.167 181.649C186.494 181.88 186.726 182.221 186.821 182.608C186.916 182.995 186.867 183.404 186.685 183.759C186.502 184.113 186.196 184.391 185.825 184.541C185.453 184.691 185.039 184.702 184.659 184.574Z" fill="#0091CD"/>
<path d="M192.481 195.85L175.582 187.25C175.255 187.018 175.023 186.678 174.928 186.291C174.833 185.903 174.881 185.495 175.064 185.14C175.247 184.785 175.552 184.508 175.924 184.358C176.296 184.208 176.71 184.196 177.089 184.325L193.989 192.925C194.316 193.156 194.548 193.497 194.643 193.884C194.738 194.271 194.69 194.68 194.507 195.035C194.324 195.39 194.018 195.667 193.647 195.817C193.275 195.967 192.861 195.978 192.481 195.85L192.481 195.85Z" fill="#0091CD"/>
<path d="M153.56 196.776L143.528 159.664L170.336 154.621L168.895 180.094L204.118 216.135C205.983 216.059 207.83 216.524 209.433 217.473C211.037 218.422 212.327 219.815 213.148 221.48C213.969 223.146 214.285 225.012 214.056 226.853C213.828 228.694 213.066 230.429 211.862 231.846C210.659 233.264 209.066 234.302 207.279 234.836C205.491 235.37 203.586 235.375 201.796 234.852C200.006 234.328 198.407 233.298 197.196 231.887C195.984 230.477 195.212 228.746 194.973 226.907L153.56 196.776Z" fill="#A0616A"/>
<path d="M140.784 118.055C131.685 125.194 143.364 165.123 143.364 165.123C145.173 163.151 147.274 192.296 149.484 191.303C155.766 188.483 167.28 178.757 171.718 179.55C174.257 180.003 171.597 160.272 171.597 160.272C171.597 160.272 171.108 148.959 170.189 134.415C170.006 130.298 168.777 126.295 166.618 122.777C164.459 119.259 161.439 116.341 157.84 114.295C157.84 114.295 149.884 110.917 140.784 118.055Z" fill="#3F3D56"/>
<path d="M292.195 279.15L267.962 267.78C267.444 267.538 266.988 267.182 266.627 266.74C266.267 266.298 266.012 265.781 265.882 265.227C265.75 264.685 265.744 264.12 265.864 263.576C265.983 263.031 266.226 262.521 266.572 262.082C273.591 253.168 278.411 242.743 280.645 231.644C280.814 230.794 281.274 230.028 281.948 229.478C282.621 228.927 283.465 228.626 284.337 228.625C296.696 228.667 305.933 233.151 311.79 241.951C312.099 242.409 312.303 242.928 312.389 243.473C312.476 244.017 312.441 244.574 312.289 245.104C308.897 256.719 303.737 267.75 296.986 277.814C296.485 278.574 295.724 279.129 294.843 279.375C293.962 279.621 293.021 279.541 292.195 279.15Z" fill="#E6E6E6"/>
<path d="M299.323 263.202L280.795 254.508C280.334 254.292 279.978 253.902 279.806 253.426C279.634 252.949 279.66 252.424 279.878 251.966C280.095 251.507 280.487 251.154 280.967 250.983C281.447 250.812 281.975 250.838 282.436 251.054L300.965 259.748C301.193 259.855 301.398 260.006 301.567 260.192C301.737 260.377 301.868 260.595 301.953 260.831C302.039 261.067 302.076 261.317 302.064 261.568C302.052 261.818 301.99 262.064 301.882 262.291C301.774 262.518 301.623 262.721 301.436 262.89C301.249 263.058 301.03 263.188 300.793 263.273C300.555 263.358 300.303 263.395 300.051 263.383C299.799 263.371 299.552 263.309 299.323 263.202H299.323Z" fill="white"/>
<path d="M302.202 257.146L283.674 248.452C283.213 248.235 282.857 247.846 282.685 247.369C282.513 246.892 282.539 246.367 282.757 245.909C282.974 245.451 283.366 245.097 283.846 244.926C284.326 244.756 284.854 244.781 285.315 244.997L303.844 253.691C304.305 253.908 304.66 254.297 304.832 254.774C305.004 255.251 304.979 255.776 304.761 256.234C304.543 256.692 304.152 257.046 303.672 257.216C303.192 257.387 302.663 257.362 302.202 257.146V257.146Z" fill="white"/>
<path d="M277.444 67.0063L275.719 67.194C268.029 37.1654 253.123 16.3619 232.612 7.03214C206.537 -4.82764 174.295 3.13643 141.823 29.4576C109.187 55.9131 80.2954 97.7014 60.4711 147.127L58.7976 146.366C78.709 96.7245 107.749 54.7343 140.568 28.1317C173.552 1.39463 206.452 -6.62783 233.209 5.54248C254.309 15.1396 269.605 36.3935 277.444 67.0063Z" fill="#F2F2F2"/>
<path d="M87.1624 106.115C82.652 115.556 78.3619 125.338 74.4111 135.188C51.6762 191.869 40.1551 249.755 41.0966 302.592L39.3197 302.404C38.3773 249.371 49.9315 191.285 72.7376 134.427C76.6997 124.549 81.0021 114.74 85.5255 105.271L87.1624 106.115Z" fill="#F2F2F2"/>
<path d="M86.3096 145.062C81.7992 154.504 77.5091 164.285 73.5583 174.135C50.8234 230.816 39.3023 288.703 40.2438 341.54L38.4669 341.351C37.5245 288.318 49.0787 230.232 71.8848 173.374C75.8469 163.496 80.1493 153.687 84.6726 144.219L86.3096 145.062Z" fill="#F2F2F2"/>
<path d="M38.5522 159.224C40.5164 156.291 39.3538 152.091 35.9555 149.844C32.5571 147.598 28.2099 148.155 26.2457 151.088C24.2815 154.022 25.4441 158.222 28.8425 160.468C32.2408 162.715 36.588 162.158 38.5522 159.224Z" fill="#CCCCCC"/>
<path d="M456.808 265.172C458.773 262.238 457.61 258.038 454.212 255.792C450.813 253.545 446.466 254.102 444.502 257.036C442.538 259.969 443.7 264.169 447.099 266.416C450.497 268.662 454.844 268.105 456.808 265.172Z" fill="#CCCCCC"/>
</svg>
