<svg id="visual" viewBox="0 0 960 540" width="960" height="540" xmlns="http://www.w3.org/2000/svg" xmlns:xlink="http://www.w3.org/1999/xlink" version="1.1"><rect x="0" y="0" width="960" height="540" fill="#002233"></rect><path d="M0 358L20 365.8C40 373.7 80 389.3 120 387.2C160 385 200 365 240 361.2C280 357.3 320 369.7 360 368.5C400 367.3 440 352.7 480 352C520 351.3 560 364.7 600 378.3C640 392 680 406 720 413.5C760 421 800 422 840 408.8C880 395.7 920 368.3 940 354.7L960 341L960 541L940 541C920 541 880 541 840 541C800 541 760 541 720 541C680 541 640 541 600 541C560 541 520 541 480 541C440 541 400 541 360 541C320 541 280 541 240 541C200 541 160 541 120 541C80 541 40 541 20 541L0 541Z" fill="#0066FF" stroke-linecap="round" stroke-linejoin="miter"></path></svg>