<svg id="visual" viewBox="0 0 960 540" width="960" height="540" xmlns="http://www.w3.org/2000/svg" xmlns:xlink="http://www.w3.org/1999/xlink" version="1.1"><rect x="0" y="0" width="960" height="540" fill="#001220"></rect><defs><linearGradient id="grad1_0" x1="43.8%" y1="0%" x2="100%" y2="100%"><stop offset="14.444444444444446%" stop-color="#001220" stop-opacity="1"></stop><stop offset="85.55555555555554%" stop-color="#001220" stop-opacity="1"></stop></linearGradient></defs><defs><linearGradient id="grad2_0" x1="0%" y1="0%" x2="56.3%" y2="100%"><stop offset="14.444444444444446%" stop-color="#001220" stop-opacity="1"></stop><stop offset="85.55555555555554%" stop-color="#001220" stop-opacity="1"></stop></linearGradient></defs><g transform="translate(960, 0)"><path d="M0 243C-29.8 232.1 -59.5 221.1 -86.1 207.9C-112.7 194.6 -136 179.1 -160.5 160.5C-185 141.9 -210.6 120.3 -224.5 93C-238.4 65.7 -240.7 32.9 -243 0L0 0Z" fill="#FBAE3C"></path></g><g transform="translate(0, 540)"><path d="M0 -243C26.9 -227.4 53.7 -211.9 83.8 -202.3C113.9 -192.8 147.2 -189.2 171.8 -171.8C196.4 -154.4 212.3 -123.2 222.7 -92.2C233.1 -61.3 238 -30.6 243 0L0 0Z" fill="#FBAE3C"></path></g></svg>