<svg width="345" height="121" viewBox="0 0 345 121" fill="none" xmlns="http://www.w3.org/2000/svg">
<g opacity="0.7">
<rect x="200.646" y="62.136" width="136.5" height="49.5" rx="14.25" transform="rotate(-9.81514 200.646 62.136)" stroke="#1C1B1F" stroke-width="1.5"/>
<path d="M221.511 93.285L221.996 88.2497C220.94 86.983 220.237 85.4615 219.955 83.8256C219.073 78.711 222.515 73.8292 227.628 72.9446C230.109 72.5161 232.606 73.0796 234.661 74.5302C236.716 75.9808 238.084 78.1449 238.512 80.6241C239.394 85.7395 235.952 90.6212 230.839 91.5058C229.287 91.7736 227.689 91.649 226.207 91.1439L221.511 93.285ZM226.144 89.425C227.585 89.975 228.914 90.224 230.565 89.9392C234.815 89.2039 237.678 85.1461 236.945 80.8935C236.209 76.6325 232.166 73.7744 227.902 74.5105C223.649 75.2463 220.788 79.3036 221.522 83.5553C221.821 85.2912 222.555 86.5028 223.644 87.7147L223.357 90.6952L226.144 89.425ZM234.289 83.6259C234.215 83.5391 234.05 83.5081 233.798 83.4321C233.546 83.356 232.309 82.9923 232.083 82.9519C231.857 82.9114 231.696 82.8991 231.581 83.1584C231.467 83.4168 231.112 84.0164 231.004 84.1942C230.896 84.372 230.764 84.415 230.512 84.3388C230.26 84.2627 229.47 84.1478 228.448 83.5107C227.653 83.0152 227.056 82.3368 226.881 82.1276C226.706 81.9193 226.805 81.7728 226.901 81.6374C226.987 81.5155 227.086 81.3266 227.178 81.1708C227.273 81.0162 227.294 80.9129 227.346 80.7441C227.396 80.5763 227.334 80.4472 227.256 80.3411C227.177 80.2358 226.516 79.1747 226.243 78.7439C225.977 78.3248 225.796 78.4188 225.653 78.4363L225.207 78.5054C225.052 78.5321 224.811 78.6333 224.639 78.9025C224.467 79.1717 223.965 79.8354 224.162 80.9767C224.36 82.1179 225.381 83.0764 225.523 83.2109C225.666 83.3453 227.59 85.4244 230.089 86.0261C230.683 86.1691 231.14 86.2371 231.495 86.2858C232.081 86.366 232.582 86.2536 232.971 86.1252C233.405 85.9819 234.245 85.3271 234.345 84.7523C234.445 84.1766 234.364 83.7125 234.289 83.6259Z" fill="#25D366"/>
<path d="M258.646 82.8013L254.21 72.9127L255.792 72.6391L259.041 79.8939L259.657 71.9704L261.054 71.7288L264.303 78.9836L264.926 71.0588L266.508 70.7852L265.667 81.5867L263.901 81.8923L260.964 75.3445L260.398 82.4983L258.646 82.8013ZM275.484 75.1159L276.286 79.7496L274.749 80.0155L274.012 75.7587C273.955 75.4286 273.822 75.1421 273.613 74.8993C273.408 74.6556 273.157 74.4784 272.858 74.3676C272.564 74.251 272.25 74.2217 271.915 74.2797C271.589 74.3359 271.305 74.4688 271.063 74.6783C270.819 74.8828 270.639 75.1346 270.523 75.4337C270.408 75.7328 270.378 76.0474 270.435 76.3775L271.172 80.6343L269.635 80.9002L267.717 69.8149L269.254 69.549L270.029 74.0274C270.232 73.6776 270.506 73.3817 270.85 73.1395C271.193 72.8974 271.582 72.7388 272.016 72.6638C272.562 72.5692 273.083 72.6161 273.577 72.8046C274.072 72.9931 274.488 73.2889 274.827 73.6921C275.171 74.0944 275.39 74.569 275.484 75.1159ZM282.088 71.1344L283.625 70.8685L284.904 78.2587L283.359 78.5259L283.114 77.4646C282.963 77.8814 282.723 78.2376 282.394 78.5331C282.064 78.8286 281.648 79.0198 281.146 79.1067C280.604 79.2005 280.076 79.1877 279.563 79.0684C279.05 78.9441 278.579 78.7313 278.151 78.4297C277.729 78.1274 277.375 77.7572 277.092 77.3192C276.807 76.8762 276.617 76.3813 276.523 75.8344C276.431 75.3072 276.444 74.795 276.561 74.2978C276.677 73.7957 276.88 73.3395 277.169 72.9291C277.459 72.5188 277.815 72.1755 278.239 71.8991C278.668 71.617 279.145 71.4304 279.672 71.3392C280.209 71.2463 280.704 71.2876 281.155 71.4632C281.611 71.633 282.007 71.8842 282.344 72.2167L282.088 71.1344ZM280.852 77.6277C281.285 77.5527 281.646 77.3811 281.935 77.113C282.222 76.84 282.423 76.5058 282.538 76.1106C282.657 75.7144 282.678 75.2947 282.601 74.8513C282.524 74.4029 282.362 74.0122 282.117 73.6792C281.872 73.3461 281.568 73.1018 281.206 72.9462C280.849 72.7848 280.453 72.7416 280.019 72.8166C279.591 72.8908 279.218 73.067 278.901 73.3451C278.583 73.6233 278.353 73.9625 278.209 74.3629C278.065 74.7633 278.032 75.1852 278.108 75.6286C278.186 76.0769 278.362 76.4651 278.637 76.793C278.916 77.1152 279.249 77.3544 279.636 77.5106C280.028 77.6611 280.433 77.7001 280.852 77.6277ZM289.268 71.4755L287.716 71.7439L288.721 77.5983L287.184 77.8642L286.179 72.0099L285.004 72.2132L284.738 70.676L285.913 70.4727L285.504 68.1535L287.041 67.8875L287.45 70.2068L289.002 69.9383L289.268 71.4755ZM293.744 76.8739C293.35 76.9167 292.957 76.9035 292.565 76.8344C292.172 76.7653 291.816 76.6417 291.496 76.4636C291.18 76.2798 290.926 76.0446 290.734 75.7581L291.945 74.9702C292.032 75.0921 292.166 75.2035 292.346 75.3043C292.53 75.4043 292.738 75.4774 292.97 75.5236C293.2 75.565 293.434 75.5652 293.67 75.5243C293.902 75.4842 294.11 75.4151 294.296 75.3169C294.486 75.213 294.634 75.081 294.738 74.9209C294.842 74.7608 294.878 74.5847 294.844 74.3925C294.807 74.1757 294.704 74.021 294.536 73.9283C294.371 73.8299 294.175 73.7674 293.948 73.7408C293.72 73.7143 293.492 73.6902 293.265 73.6686C292.764 73.6437 292.295 73.5726 291.858 73.4553C291.426 73.3322 291.066 73.1433 290.778 72.8886C290.49 72.629 290.308 72.2824 290.233 71.8488C290.151 71.3759 290.209 70.9448 290.405 70.5556C290.601 70.1614 290.889 69.835 291.271 69.5762C291.657 69.3165 292.087 69.1457 292.56 69.0639C293.151 68.9616 293.715 68.9935 294.251 69.1595C294.787 69.3256 295.224 69.6052 295.561 69.9986L294.467 70.9338C294.367 70.7987 294.233 70.6849 294.065 70.5922C293.897 70.4995 293.713 70.4349 293.514 70.3983C293.314 70.3568 293.112 70.3486 292.908 70.3737C292.655 70.4073 292.426 70.4774 292.222 70.5838C292.021 70.6845 291.869 70.8174 291.765 70.9825C291.662 71.1475 291.629 71.3409 291.668 71.5626C291.705 71.7793 291.81 71.9287 291.981 72.0107C292.152 72.0877 292.359 72.1382 292.601 72.1622C292.849 72.1854 293.103 72.215 293.363 72.2513C293.825 72.3133 294.266 72.4121 294.685 72.5477C295.103 72.6783 295.456 72.8684 295.743 73.1182C296.029 73.368 296.204 73.7031 296.267 74.1236C296.347 74.5867 296.277 75.0175 296.056 75.4158C295.841 75.8134 295.527 76.1417 295.116 76.4007C294.704 76.6597 294.246 76.8174 293.744 76.8739ZM299.573 65.0649L301.368 64.7542L306.92 74.4498L305.294 74.7311L304.237 72.8893L299.604 73.6909L299.234 75.7795L297.601 76.062L299.573 65.0649ZM299.907 72.0553L303.402 71.4506L300.82 66.9499L299.907 72.0553ZM310.177 77.6921L308.64 77.958L306.722 66.8727L308.259 66.6067L308.447 67.6931C308.628 67.2711 308.89 66.9086 309.233 66.6057C309.576 66.3027 310.009 66.106 310.532 66.0157C311.069 65.9228 311.589 65.9368 312.092 66.0579C312.599 66.178 313.062 66.3873 313.479 66.6856C313.895 66.9789 314.245 67.3422 314.527 67.7753C314.81 68.2084 314.998 68.6934 315.091 69.2304C315.184 69.7675 315.171 70.2899 315.05 70.7979C314.93 71.3058 314.724 71.7703 314.431 72.1913C314.138 72.6074 313.772 72.9573 313.334 73.2412C312.901 73.5241 312.416 73.7121 311.879 73.805C311.357 73.8953 310.883 73.8555 310.458 73.6855C310.032 73.5106 309.663 73.2572 309.352 72.9254L310.177 77.6921ZM310.774 67.5037C310.345 67.5778 309.987 67.7514 309.699 68.0245C309.412 68.2975 309.208 68.6321 309.089 69.0282C308.969 69.4194 308.947 69.8367 309.024 70.2801C309.101 70.7235 309.262 71.1118 309.507 71.4448C309.752 71.7778 310.056 72.0246 310.419 72.1852C310.782 72.3457 311.177 72.3889 311.606 72.3147C312.03 72.2414 312.401 72.0681 312.719 71.7949C313.036 71.5168 313.269 71.1771 313.418 70.7759C313.567 70.3746 313.602 69.9498 313.525 69.5015C313.449 69.063 313.273 68.6798 312.998 68.3519C312.728 68.0231 312.397 67.781 312.005 67.6256C311.613 67.4702 311.202 67.4295 310.774 67.5037ZM319.111 76.1464L317.574 76.4123L315.657 65.327L317.194 65.061L317.382 66.1474C317.562 65.7254 317.824 65.3629 318.168 65.06C318.511 64.757 318.944 64.5603 319.466 64.47C320.003 64.3771 320.523 64.3911 321.026 64.5122C321.534 64.6323 321.997 64.8416 322.414 65.1398C322.83 65.4332 323.179 65.7964 323.462 66.2295C323.745 66.6626 323.933 67.1477 324.026 67.6847C324.119 68.2217 324.105 68.7442 323.985 69.2521C323.865 69.7601 323.659 70.2245 323.366 70.6456C323.073 71.0617 322.707 71.4116 322.269 71.6954C321.836 71.9784 321.351 72.1664 320.814 72.2593C320.292 72.3496 319.818 72.3098 319.393 72.1398C318.967 71.9649 318.598 71.7115 318.287 71.3797L319.111 76.1464ZM319.708 65.958C319.28 66.0321 318.922 66.2057 318.634 66.4787C318.346 66.7518 318.143 67.0864 318.024 67.4825C317.904 67.8737 317.882 68.291 317.959 68.7344C318.035 69.1778 318.196 69.566 318.442 69.8991C318.687 70.2321 318.991 70.4789 319.354 70.6394C319.716 70.8 320.112 70.8432 320.541 70.769C320.964 70.6957 321.335 70.5224 321.653 70.2492C321.971 69.9711 322.204 69.6314 322.352 69.2301C322.501 68.8289 322.537 68.4041 322.459 67.9558C322.383 67.5173 322.208 67.1341 321.933 66.8061C321.663 66.4774 321.332 66.2353 320.94 66.0798C320.547 65.9244 320.137 65.8838 319.708 65.958Z" fill="#1C1B1F"/>
</g>
<g opacity="0.7">
<rect x="4.64658" y="8.76168" width="130.5" height="49.5" rx="14.25" transform="rotate(4.45023 4.64658 8.76168)" stroke="#1C1B1F" stroke-width="1.5"/>
<path d="M53.6847 42.9197L54.4994 32.4513L60.6682 32.9314L60.5472 34.4867L55.9337 34.1277L55.737 36.655L59.6327 36.9582L59.5116 38.5135L55.6159 38.2103L55.24 43.0407L53.6847 42.9197ZM66.6852 36.4088L68.2405 36.5298L67.6585 44.0072L66.0957 43.8856L66.1203 42.7967C65.8711 43.1635 65.5504 43.4495 65.1583 43.6547C64.7662 43.8599 64.3159 43.9427 63.8075 43.9031C63.2591 43.8604 62.7512 43.7181 62.2835 43.4761C61.8163 43.2291 61.4126 42.9068 61.0724 42.5092C60.7372 42.112 60.486 41.6661 60.3189 41.1717C60.1522 40.6722 60.0903 40.1458 60.1334 39.5925C60.1749 39.0591 60.3136 38.5659 60.5494 38.1128C60.7857 37.6548 61.0946 37.2626 61.476 36.9362C61.8575 36.6098 62.2878 36.365 62.7669 36.2016C63.2514 36.0337 63.7604 35.9705 64.2937 36.012C64.8371 36.0543 65.3059 36.2162 65.7003 36.4976C66.1 36.7745 66.422 37.1155 66.6663 37.5207L66.6852 36.4088ZM63.8871 42.3972C64.3257 42.4314 64.7179 42.3541 65.0636 42.1653C65.4097 41.9716 65.6868 41.6973 65.895 41.3423C66.1081 40.9878 66.2322 40.5862 66.2671 40.1376C66.3024 39.684 66.2422 39.2655 66.0864 38.8823C65.9307 38.499 65.6967 38.1875 65.3843 37.9475C65.0774 37.7029 64.7046 37.5636 64.2659 37.5295C63.8322 37.4957 63.4274 37.5745 63.0514 37.7659C62.6754 37.9573 62.3684 38.2293 62.1303 38.5819C61.8922 38.9345 61.7557 39.3351 61.7208 39.7838C61.6855 40.2374 61.7607 40.657 61.9463 41.0426C62.1373 41.4235 62.4013 41.7375 62.7381 41.9843C63.0804 42.2266 63.4633 42.3643 63.8871 42.3972ZM74.0526 42.3684L75.3846 43.2319C75.0088 43.6791 74.5481 44.0244 74.0025 44.2678C73.462 44.5116 72.8876 44.6098 72.2795 44.5625C71.5916 44.5089 70.9772 44.2831 70.4365 43.8849C69.9007 43.4871 69.4865 42.9785 69.1937 42.3589C68.9062 41.7347 68.7906 41.0612 68.8469 40.3384C68.8896 39.79 69.0265 39.2866 69.2578 38.8282C69.4895 38.3648 69.7887 37.9668 70.1557 37.6343C70.5279 37.2971 70.9488 37.044 71.4184 36.875C71.8879 36.7059 72.3794 36.6413 72.8929 36.6813C73.501 36.7286 74.0533 36.9145 74.5496 37.239C75.0509 37.5639 75.4524 37.9788 75.7541 38.4837L74.3046 39.1307C74.1146 38.8652 73.8851 38.6567 73.616 38.5054C73.3473 38.3491 73.0659 38.2595 72.7718 38.2366C72.363 38.2048 71.9829 38.288 71.6315 38.4864C71.2854 38.6801 71.001 38.9513 70.7783 39.3001C70.5609 39.6443 70.4356 40.0307 70.4022 40.4594C70.3692 40.8831 70.4358 41.2845 70.6019 41.6635C70.7683 42.0376 71.0075 42.3471 71.3195 42.592C71.6364 42.8374 71.9967 42.9757 72.4005 43.0072C72.7096 43.0312 73.0091 42.9843 73.2992 42.8665C73.5892 42.7486 73.8403 42.5826 74.0526 42.3684ZM79.7131 45.141C79.0251 45.0875 78.4108 44.8616 77.8701 44.4634C77.3343 44.0657 76.92 43.557 76.6272 42.9374C76.3398 42.3132 76.2242 41.6397 76.2805 40.9169C76.3231 40.3686 76.4601 39.8652 76.6914 39.4067C76.923 38.9433 77.2223 38.5453 77.5892 38.2128C77.9615 37.8757 78.3824 37.6226 78.852 37.4535C79.3215 37.2844 79.813 37.2199 80.3264 37.2598C80.8997 37.3044 81.4163 37.465 81.8762 37.7415C82.3365 38.0131 82.7199 38.3714 83.0263 38.8165C83.3331 39.2566 83.5451 39.7546 83.6623 40.3104C83.7799 40.8611 83.7826 41.4381 83.6705 42.0412L77.9054 41.5925C77.9435 41.9415 78.0439 42.2628 78.2066 42.5563C78.3747 42.8452 78.5971 43.0807 78.8738 43.2627C79.1555 43.4451 79.4756 43.5528 79.8341 43.5857C80.213 43.6152 80.5643 43.5472 80.8881 43.3819C81.2169 43.2169 81.494 42.9751 81.7194 42.6567L83.2686 43.1459C82.9179 43.7856 82.4245 44.2938 81.7883 44.6706C81.1525 45.0424 80.4608 45.1992 79.7131 45.141ZM77.9456 40.3996L82.1928 40.7301C82.1709 40.3673 82.069 40.0334 81.8871 39.7284C81.7106 39.4187 81.4769 39.1673 81.186 38.9742C80.9005 38.7764 80.5783 38.6636 80.2194 38.6357C79.8654 38.6081 79.5298 38.6673 79.2125 38.8131C78.9003 38.9593 78.633 39.1717 78.4107 39.4503C78.1938 39.7243 78.0388 40.0407 77.9456 40.3996ZM89.0446 37.9383C89.7724 37.995 90.4191 38.2233 90.9848 38.6234C91.5554 39.0239 91.9944 39.537 92.3018 40.1628C92.6096 40.7835 92.7351 41.4578 92.6785 42.1856C92.6362 42.729 92.4942 43.232 92.2526 43.6946C92.0114 44.1523 91.6947 44.5489 91.3024 44.8845C90.9156 45.2155 90.4749 45.4645 89.9805 45.6316C89.491 45.7992 88.9746 45.8618 88.4312 45.8195C87.9078 45.7788 87.4585 45.6234 87.0833 45.3535C86.7135 45.079 86.4187 44.7426 86.199 44.3443L86.1134 45.4435L84.5581 45.3225L85.431 34.1064L86.9863 34.2274L86.611 39.0504C86.8901 38.6859 87.2334 38.3992 87.6408 38.1902C88.0533 37.9815 88.5212 37.8976 89.0446 37.9383ZM88.5338 44.3079C88.9675 44.3417 89.3723 44.2628 89.7483 44.0714C90.1243 43.88 90.4313 43.608 90.6694 43.2554C90.9125 42.9032 91.0513 42.5053 91.0858 42.0617C91.1211 41.608 91.0459 41.1884 90.8603 40.8029C90.6747 40.4173 90.4107 40.1034 90.0685 39.8611C89.7266 39.6138 89.3414 39.4735 88.9127 39.4401C88.479 39.4064 88.0891 39.4864 87.743 39.6801C87.3969 39.8738 87.1173 40.148 86.9042 40.5025C86.691 40.857 86.567 41.2586 86.5321 41.7072C86.4972 42.1559 86.5576 42.5718 86.7133 42.9551C86.869 43.3383 87.1029 43.6524 87.4148 43.8973C87.7271 44.1373 88.1001 44.2742 88.5338 44.3079ZM96.8585 46.4754C96.1706 46.4218 95.5562 46.196 95.0155 45.7978C94.4797 45.4001 94.0655 44.8914 93.7727 44.2718C93.4852 43.6476 93.3696 42.9741 93.4259 42.2513C93.4686 41.703 93.6055 41.1996 93.8368 40.7411C94.0685 40.2777 94.3677 39.8797 94.7346 39.5472C95.1069 39.2101 95.5278 38.957 95.9974 38.7879C96.4669 38.6188 96.9584 38.5542 97.4718 38.5942C98.1598 38.6477 98.7716 38.8734 99.3074 39.2712C99.8481 39.6693 100.262 40.1805 100.55 40.8047C100.842 41.4293 100.96 42.1054 100.903 42.8332C100.861 43.3766 100.724 43.8775 100.493 44.3359C100.262 44.7944 99.9599 45.1922 99.5876 45.5293C99.2207 45.8618 98.8025 46.1126 98.3329 46.2817C97.8684 46.4512 97.3769 46.5157 96.8585 46.4754ZM96.9795 44.9201C97.3933 44.9523 97.7732 44.8715 98.1193 44.6778C98.4653 44.4841 98.747 44.2151 98.9644 43.8709C99.1871 43.5222 99.315 43.1359 99.348 42.7122C99.3817 42.2785 99.3131 41.872 99.142 41.4925C98.9759 41.1135 98.7367 40.804 98.4244 40.5641C98.1124 40.3191 97.7546 40.1809 97.3508 40.1495C96.942 40.1177 96.5621 40.1985 96.2111 40.3918C95.865 40.5855 95.5806 40.8568 95.3579 41.2056C95.1401 41.5547 95.0145 41.9436 94.9812 42.3723C94.9467 42.816 95.0151 43.225 95.1866 43.5995C95.358 43.9739 95.5999 44.2811 95.9123 44.5211C96.23 44.7564 96.5857 44.8894 96.9795 44.9201ZM105.081 47.1153C104.393 47.0618 103.778 46.8359 103.238 46.4377C102.702 46.04 102.288 45.5313 101.995 44.9117C101.707 44.2875 101.592 43.614 101.648 42.8912C101.691 42.3429 101.828 41.8395 102.059 41.381C102.291 40.9176 102.59 40.5196 102.957 40.1871C103.329 39.85 103.75 39.5969 104.22 39.4278C104.689 39.2587 105.181 39.1942 105.694 39.2341C106.382 39.2877 106.994 39.5133 107.53 39.9111C108.07 40.3092 108.484 40.8204 108.772 41.4446C109.064 42.0692 109.182 42.7454 109.125 43.4732C109.083 44.0165 108.946 44.5174 108.715 44.9759C108.484 45.4343 108.182 45.8321 107.81 46.1692C107.443 46.5017 107.025 46.7525 106.555 46.9216C106.091 47.0911 105.599 47.1556 105.081 47.1153ZM105.202 45.56C105.615 45.5922 105.995 45.5114 106.341 45.3177C106.688 45.124 106.969 44.855 107.187 44.5108C107.409 44.1621 107.537 43.7758 107.57 43.3521C107.604 42.9184 107.535 42.5119 107.364 42.1325C107.198 41.7534 106.959 41.4439 106.647 41.204C106.335 40.959 105.977 40.8208 105.573 40.7894C105.164 40.7576 104.784 40.8384 104.433 41.0317C104.087 41.2254 103.803 41.4967 103.58 41.8455C103.362 42.1946 103.237 42.5836 103.203 43.0123C103.169 43.4559 103.237 43.865 103.409 44.2394C103.58 44.6138 103.822 44.921 104.134 45.161C104.452 45.3963 104.808 45.5293 105.202 45.56ZM116.334 47.7955L114.539 47.6558L112.946 44.3422L111.631 45.6842L111.496 47.419L109.94 47.2979L110.813 36.0818L112.369 36.2029L111.819 43.269L114.859 40.1581L116.893 40.3163L114.106 43.1612L116.334 47.7955Z" fill="#1C1B1F"/>
<g clip-path="url(#clip0_402_523)">
<path d="M36.8731 36.0946C37.2802 30.8638 33.3697 26.2932 28.1388 25.8861C22.908 25.479 18.3375 29.3895 17.9303 34.6204C17.5847 39.062 20.3527 43.0272 24.3984 44.372L24.8885 38.0739L22.9355 37.9219L23.1608 35.0274L25.1138 35.1794L25.2109 33.9322C25.4618 30.7086 27.037 29.3279 30.202 29.5742C30.8021 29.6209 31.8283 29.8194 32.2427 29.9698L32.0385 32.5933C31.8169 32.5524 31.4294 32.5105 30.9472 32.4729C29.3942 32.3521 28.7483 32.8937 28.6293 34.4232L28.5496 35.4468L31.6434 35.6876L30.8866 38.5407L28.3244 38.3413L27.8179 44.8489C32.5518 44.6475 36.4966 40.9372 36.8734 36.0947L36.8731 36.0946Z" fill="#0866FF"/>
<path d="M30.886 38.5407L31.6428 35.6876L28.5491 35.4468L28.6288 34.4231C28.7478 32.8937 29.3937 32.3521 30.9466 32.4729C31.4289 32.5104 31.8163 32.5524 32.038 32.5933L32.2422 29.9697C31.8278 29.8189 30.8015 29.6209 30.2014 29.5742C27.0365 29.3279 25.4612 30.7085 25.2103 33.9322L25.1133 35.1794L23.1603 35.0274L22.935 37.9219L24.888 38.0739L24.3978 44.3719C25.1164 44.6108 25.8753 44.7674 26.664 44.8288C27.0524 44.859 27.4372 44.865 27.817 44.8488L28.3234 38.3412L30.8856 38.5406L30.886 38.5407Z" fill="white"/>
</g>
</g>
<g opacity="0.7">
<rect x="145.589" y="10.0075" width="110.5" height="49.5" rx="14.25" transform="rotate(-4.77463 145.589 10.0075)" stroke="#1C1B1F" stroke-width="1.5"/>
<path d="M206.551 24.7343L206.681 26.2889L203.348 26.5673L204.092 35.4763L202.537 35.6062L201.793 26.6972L198.467 26.975L198.337 25.4204L206.551 24.7343ZM207.557 27.6608L209.111 27.5309L209.736 35.0049L208.181 35.1347L207.557 27.6608ZM208.259 26.5109C208.019 26.5308 207.814 26.4703 207.641 26.3291C207.469 26.188 207.373 26.0003 207.353 25.7661C207.334 25.5369 207.398 25.3384 207.545 25.1706C207.691 24.9979 207.881 24.9017 208.115 24.8822C208.344 24.863 208.545 24.9265 208.718 25.0726C208.89 25.2138 208.986 25.3989 209.005 25.6281C209.025 25.8623 208.961 26.0633 208.815 26.2311C208.673 26.3985 208.488 26.4917 208.259 26.5109ZM217.943 34.3193L216.15 34.4691L214.046 31.4538L212.963 32.9893L213.108 34.7232L211.553 34.8531L210.617 23.6421L212.171 23.5123L212.761 30.5752L215.264 27.017L217.297 26.8472L215.002 30.102L217.943 34.3193ZM226.36 23.0797L226.49 24.6343L223.157 24.9128L223.901 33.8217L222.346 33.9516L221.602 25.0426L218.276 25.3204L218.146 23.7658L226.36 23.0797ZM230.901 33.4327C230.213 33.4902 229.571 33.3657 228.973 33.0594C228.38 32.7526 227.89 32.317 227.502 31.7523C227.118 31.1823 226.896 30.536 226.835 29.8135C226.79 29.2655 226.844 28.7466 226.999 28.257C227.153 27.7625 227.385 27.3217 227.694 26.9346C228.007 26.5422 228.382 26.2249 228.818 25.9827C229.255 25.7405 229.73 25.598 230.243 25.5552C230.93 25.4977 231.57 25.6224 232.163 25.9291C232.761 26.2354 233.251 26.6736 233.635 27.2436C234.024 27.8133 234.249 28.4618 234.309 29.1893C234.355 29.7324 234.3 30.2487 234.145 30.7383C233.99 31.2279 233.756 31.6689 233.443 32.0614C233.134 32.4484 232.761 32.763 232.325 33.0052C231.894 33.2469 231.419 33.3894 230.901 33.4327ZM230.771 31.8781C231.184 31.8436 231.547 31.703 231.857 31.4563C232.168 31.2096 232.403 30.8989 232.562 30.5244C232.726 30.1444 232.79 29.7426 232.755 29.3191C232.719 28.8856 232.586 28.4953 232.356 28.1483C232.131 27.8008 231.846 27.5336 231.499 27.3468C231.152 27.1551 230.776 27.076 230.373 27.1097C229.964 27.1439 229.602 27.2845 229.286 27.5316C228.976 27.7783 228.739 28.0916 228.575 28.4716C228.416 28.8512 228.354 29.2552 228.39 29.6837C228.427 30.1272 228.56 30.5199 228.789 30.862C229.019 31.2041 229.307 31.4686 229.654 31.6554C230.005 31.8368 230.377 31.911 230.771 31.8781ZM242.117 32.3002L240.323 32.45L238.22 29.4346L237.137 30.9701L237.281 32.7041L235.727 32.8339L234.79 21.623L236.345 21.4931L236.935 28.556L239.437 24.9979L241.47 24.8281L239.176 28.0829L242.117 32.3002Z" fill="#1C1B1F"/>
<path d="M176.178 29.6381C177.468 30.4099 179.003 30.7992 180.614 30.6647L180.354 27.5536C180.049 27.5791 179.742 27.5726 179.439 27.5341L179.643 29.983C178.032 30.1175 176.498 29.7282 175.207 28.9565L175.737 35.3053C176.003 38.4813 173.652 41.2701 170.488 41.5344C169.307 41.633 168.179 41.3664 167.217 40.8282C168.346 41.809 169.853 42.3501 171.458 42.216C174.623 41.9517 176.973 39.1629 176.708 35.9868L176.178 29.6381L176.178 29.6381V29.6381ZM177.035 26.406C176.355 25.7757 175.873 24.9282 175.703 23.9608L175.67 23.5607L174.81 23.6325C175.13 24.8533 175.957 25.85 177.035 26.406ZM169.014 38.2238C168.629 37.7954 168.394 37.2515 168.347 36.676C168.225 35.2234 169.301 33.9477 170.748 33.8267C171.018 33.8041 171.29 33.8232 171.554 33.8836L171.288 30.703C170.984 30.6867 170.679 30.6945 170.377 30.7263L170.584 33.2019C170.319 33.1415 170.048 33.1224 169.778 33.1452C168.33 33.2661 167.255 34.5417 167.376 35.9945C167.462 37.0217 168.123 37.8621 169.014 38.2238Z" fill="#FF004F"/>
<path d="M175.207 28.9564C176.498 29.7281 178.032 30.1175 179.643 29.9829L179.438 27.5341C178.523 27.417 177.688 27.0119 177.034 26.406C175.956 25.85 175.13 24.8532 174.81 23.6325L172.552 23.8211L173.59 36.2471C173.705 37.6962 172.632 38.967 171.187 39.0876C170.336 39.1587 169.546 38.8147 169.014 38.2239C168.123 37.8621 167.462 37.0217 167.376 35.9946C167.255 34.5419 168.33 33.2662 169.777 33.1452C170.055 33.1221 170.326 33.1431 170.583 33.202L170.376 30.7264C167.273 31.0505 164.985 33.8087 165.247 36.944C165.378 38.5091 166.119 39.876 167.216 40.8282C168.179 41.3664 169.307 41.6331 170.488 41.5344C173.652 41.2701 176.002 38.4812 175.737 35.3053L175.207 28.9564L175.207 28.9564Z" fill="#1C1B1F"/>
<path d="M179.439 27.5341L179.383 26.8719C178.573 26.9409 177.759 26.7794 177.035 26.4059C177.7 27.0241 178.54 27.4185 179.439 27.5341ZM174.81 23.6325C174.78 23.5158 174.754 23.398 174.733 23.2793L174.699 22.8791L171.581 23.1396L172.619 35.5657C172.735 37.0145 171.662 38.2853 170.217 38.406C169.793 38.4414 169.384 38.3738 169.014 38.2239C169.546 38.8147 170.336 39.1587 171.188 39.0876C172.632 38.9669 173.706 37.6962 173.59 36.2472L172.552 23.8211L174.81 23.6325ZM170.377 30.7263L170.318 30.0214C170.054 30.0075 169.79 30.0115 169.527 30.0336C166.362 30.2979 164.012 33.0867 164.277 36.2625C164.443 38.2535 165.598 39.9239 167.217 40.8281C166.12 39.8759 165.378 38.509 165.248 36.9439C164.986 33.8087 167.273 31.0505 170.377 30.7263Z" fill="#00F2EA"/>
</g>
<g opacity="0.7">
<rect x="68.5479" y="69.9002" width="124.5" height="49.5" rx="14.25" transform="rotate(-1.44133 68.5479 69.9002)" stroke="#1C1B1F" stroke-width="1.5"/>
<path d="M127.027 88.1851L128.864 88.1388L125.425 93.9872L125.544 98.7257L123.984 98.7649L123.865 94.0264L120.144 88.3582L121.981 88.312L124.602 92.3048L127.027 88.1851ZM132.333 98.7499C131.643 98.7673 131.009 98.6057 130.43 98.2651C129.856 97.9245 129.392 97.461 129.037 96.8747C128.687 96.2833 128.503 95.6253 128.485 94.9005C128.471 94.3507 128.556 93.8359 128.739 93.3561C128.922 92.8714 129.178 92.4448 129.509 92.0763C129.845 91.7028 130.238 91.4078 130.687 91.1914C131.137 90.9751 131.619 90.8604 132.134 90.8474C132.824 90.8301 133.456 90.9917 134.029 91.3324C134.608 91.673 135.073 92.1389 135.423 92.7303C135.778 93.3216 135.964 93.9821 135.983 94.7119C135.996 95.2567 135.912 95.769 135.729 96.2487C135.546 96.7285 135.286 97.1551 134.951 97.5287C134.62 97.8971 134.23 98.1895 133.78 98.4059C133.335 98.6222 132.853 98.7368 132.333 98.7499ZM132.294 97.1904C132.709 97.18 133.078 97.0606 133.403 96.8324C133.727 96.6042 133.98 96.3077 134.16 95.9431C134.346 95.5733 134.434 95.176 134.423 94.7511C134.412 94.3162 134.302 93.9189 134.093 93.559C133.889 93.199 133.619 92.9157 133.284 92.7091C132.948 92.4975 132.578 92.3967 132.173 92.4069C131.764 92.4172 131.394 92.5366 131.065 92.7649C130.74 92.9932 130.485 93.2922 130.299 93.662C130.119 94.0316 130.034 94.4314 130.044 94.8613C130.056 95.3061 130.166 95.706 130.375 96.0608C130.584 96.4157 130.856 96.6964 131.191 96.9031C131.531 97.1046 131.899 97.2004 132.294 97.1904ZM136.771 95.6298L136.653 90.9438L138.213 90.9046L138.321 95.2082C138.329 95.5431 138.42 95.8459 138.591 96.1167C138.763 96.3874 138.989 96.6018 139.268 96.7599C139.547 96.9129 139.851 96.9853 140.181 96.977C140.516 96.9685 140.816 96.881 141.082 96.7142C141.353 96.5423 141.565 96.3169 141.718 96.038C141.876 95.7589 141.951 95.452 141.942 95.1171L141.834 90.8134L143.394 90.7742L143.59 98.2716L142.03 98.3109L142.002 97.5013C141.755 97.8176 141.444 98.0705 141.069 98.26C140.693 98.4495 140.288 98.5498 139.853 98.5607C139.299 98.5747 138.79 98.4524 138.329 98.1939C137.867 97.9355 137.496 97.5822 137.214 97.1341C136.933 96.6861 136.785 96.1846 136.771 95.6298ZM152.769 87.5373L152.809 89.0968L149.465 89.181L149.689 98.1182L148.13 98.1574L147.905 89.2202L144.569 89.3042L144.529 87.7447L152.769 87.5373ZM153.202 95.2164L153.084 90.5304L154.643 90.4911L154.751 94.7948C154.76 95.1297 154.85 95.4325 155.022 95.7033C155.194 95.974 155.419 96.1884 155.698 96.3465C155.977 96.4995 156.282 96.5719 156.611 96.5636C156.946 96.5551 157.247 96.4675 157.513 96.3008C157.783 96.1289 157.995 95.9035 158.148 95.6246C158.306 95.3455 158.381 95.0386 158.373 94.7037L158.264 90.4L159.824 90.3608L160.02 97.8582L158.461 97.8975L158.433 97.0879C158.186 97.4042 157.874 97.6571 157.499 97.8466C157.124 98.0361 156.719 98.1364 156.284 98.1473C155.729 98.1613 155.221 98.039 154.759 97.7805C154.297 97.5221 153.926 97.1688 153.644 96.7207C153.363 96.2727 153.215 95.7712 153.202 95.2164ZM165.287 90.0133C166.017 89.9949 166.684 90.1557 167.287 90.4956C167.896 90.8354 168.386 91.3007 168.756 91.8916C169.125 92.4775 169.319 93.1353 169.338 93.8651C169.352 94.4099 169.262 94.9248 169.069 95.4098C168.876 95.8898 168.602 96.3169 168.246 96.6909C167.895 97.0599 167.482 97.3529 167.008 97.5699C166.538 97.7868 166.031 97.902 165.486 97.9158C164.961 97.929 164.498 97.8206 164.097 97.5906C163.701 97.3555 163.374 97.0511 163.114 96.6775L163.142 97.7797L161.582 97.8189L161.299 86.5725L162.859 86.5332L162.981 91.3692C163.221 90.978 163.533 90.6576 163.917 90.4079C164.305 90.158 164.762 90.0265 165.287 90.0133ZM165.433 96.4016C165.868 96.3907 166.262 96.2707 166.617 96.0417C166.971 95.8127 167.249 95.5107 167.449 95.1355C167.655 94.7602 167.752 94.3501 167.741 93.9053C167.729 93.4504 167.612 93.0407 167.387 92.6763C167.163 92.3118 166.868 92.0266 166.503 91.8207C166.138 91.6099 165.74 91.5098 165.31 91.5207C164.875 91.5316 164.496 91.6512 164.171 91.8794C163.847 92.1076 163.597 92.409 163.421 92.7836C163.246 93.1581 163.163 93.5703 163.175 94.0202C163.186 94.47 163.289 94.8776 163.483 95.2428C163.677 95.608 163.942 95.8964 164.278 96.1081C164.613 96.3147 164.998 96.4126 165.433 96.4016ZM173.936 97.7031C173.246 97.7205 172.612 97.5589 172.033 97.2184C171.46 96.8777 170.995 96.4142 170.64 95.8279C170.29 95.2366 170.106 94.5785 170.088 93.8537C170.074 93.3039 170.159 92.7891 170.342 92.3093C170.525 91.8246 170.781 91.398 171.112 91.0296C171.448 90.656 171.841 90.361 172.29 90.1446C172.74 89.9283 173.222 89.8136 173.737 89.8006C174.312 89.7862 174.842 89.8929 175.328 90.1207C175.814 90.3436 176.232 90.6607 176.583 91.072C176.933 91.4783 177.195 91.9519 177.369 92.4927C177.542 93.0285 177.604 93.6021 177.554 94.2135L171.774 94.359C171.847 94.7022 171.98 95.0115 172.172 95.2867C172.369 95.5569 172.614 95.7683 172.908 95.9209C173.207 96.0735 173.537 96.1477 173.897 96.1436C174.277 96.1341 174.619 96.0304 174.924 95.8327C175.234 95.6348 175.485 95.3659 175.677 95.026L177.268 95.3536C176.985 96.0259 176.546 96.5821 175.952 97.0222C175.358 97.4573 174.686 97.6843 173.936 97.7031ZM171.691 93.1682L175.95 93.061C175.891 92.7024 175.755 92.3807 175.543 92.0959C175.336 91.8061 175.077 91.58 174.768 91.4177C174.464 91.2503 174.132 91.1712 173.772 91.1802C173.417 91.1891 173.089 91.2824 172.789 91.46C172.493 91.6375 172.249 91.8762 172.056 92.1762C171.869 92.471 171.747 92.8017 171.691 93.1682Z" fill="#1C1B1F"/>
<g clip-path="url(#clip1_402_523)">
<path d="M102.916 89.1887C102.798 88.7873 102.577 88.4238 102.275 88.1346C101.973 87.8455 101.6 87.6407 101.194 87.5409C99.6987 87.1789 93.7631 87.3283 93.7631 87.3283C93.7631 87.3283 87.8275 87.4776 86.3525 87.9143C85.9519 88.0344 85.5899 88.2577 85.3026 88.5617C85.0154 88.8657 84.813 89.2398 84.7158 89.6466C84.3562 91.1481 84.4345 94.2583 84.4345 94.2583C84.4345 94.2583 84.5127 97.3686 84.9474 98.85C85.065 99.2514 85.2859 99.6149 85.588 99.9041C85.8902 100.193 86.263 100.398 86.6692 100.498C88.1642 100.86 94.0998 100.71 94.0998 100.71C94.0998 100.71 100.035 100.561 101.51 100.124C101.911 100.004 102.273 99.781 102.56 99.477C102.848 99.173 103.05 98.7989 103.147 98.3921C103.507 96.8907 103.428 93.7804 103.428 93.7804C103.428 93.7804 103.35 90.6701 102.916 89.1887Z" fill="#FF0302"/>
<path d="M92.0601 96.8925L91.918 91.244L96.9534 93.9434L92.0601 96.8925Z" fill="#FEFEFE"/>
</g>
</g>
<defs>
<clipPath id="clip0_402_523">
<rect width="19" height="19" fill="white" transform="translate(18.6675 25.149) rotate(4.45023)"/>
</clipPath>
<clipPath id="clip1_402_523">
<rect width="19" height="19" fill="white" transform="translate(84.1768 84.7618) rotate(-1.44133)"/>
</clipPath>
</defs>
</svg>
