<svg width="240" height="118" viewBox="0 0 240 118" fill="none" xmlns="http://www.w3.org/2000/svg">
<rect x="8.95753" y="69.6373" width="74.625" height="37.125" rx="10.6875" transform="rotate(8.23895 8.95753 69.6373)" fill="#25D366" fill-opacity="0.1"/>
<rect x="8.95753" y="69.6373" width="74.625" height="37.125" rx="10.6875" transform="rotate(8.23895 8.95753 69.6373)" stroke="#25D366" stroke-width="1.125"/>
<path d="M46.4656 97.8876C46.0388 97.8258 45.6384 97.6996 45.2643 97.5091C44.8903 97.3185 44.5746 97.0777 44.3174 96.7865C44.0608 96.4917 43.8944 96.1626 43.8182 95.7992L44.9626 95.55C44.9999 95.7373 45.0974 95.9143 45.2551 96.0811C45.4171 96.2448 45.6167 96.3836 45.8541 96.4975C46.0952 96.612 46.3549 96.6894 46.6332 96.7297C46.9301 96.7727 47.2155 96.7647 47.4892 96.7059C47.7667 96.6475 47.9976 96.5445 48.1819 96.3969C48.3699 96.2499 48.4806 96.0613 48.5139 95.8312C48.5483 95.5936 48.4912 95.3864 48.3425 95.2096C48.1975 95.0332 47.9997 94.8814 47.7491 94.7542C47.5022 94.6275 47.241 94.5215 46.9653 94.4361C46.4327 94.268 45.9616 94.0672 45.5521 93.8336C45.1463 93.6006 44.8395 93.3117 44.6318 92.9672C44.4277 92.6231 44.3614 92.2043 44.4329 91.7107C44.5001 91.2468 44.6904 90.8613 45.0039 90.5543C45.3211 90.2479 45.7105 90.0314 46.1721 89.905C46.638 89.7755 47.1251 89.7475 47.6336 89.8211C48.053 89.8818 48.4478 90.0072 48.8182 90.1972C49.1927 90.3841 49.5102 90.6252 49.7706 90.9206C50.0352 91.2128 50.2066 91.5464 50.285 91.9215L49.131 92.1579C49.0943 91.967 48.9965 91.7918 48.8377 91.6324C48.6794 91.4692 48.4798 91.3305 48.2387 91.216C48.0013 91.102 47.7435 91.0249 47.4651 90.9846C47.1687 90.9379 46.8834 90.9458 46.6091 91.0084C46.3391 91.0678 46.11 91.1711 45.922 91.3182C45.734 91.4652 45.6236 91.652 45.5908 91.8784C45.5505 92.1567 45.596 92.3793 45.7272 92.546C45.8584 92.7128 46.0469 92.85 46.2928 92.9576C46.5429 93.062 46.8235 93.1652 47.1346 93.2671C47.635 93.4229 48.0885 93.6268 48.4953 93.879C48.9059 94.1317 49.22 94.4348 49.4379 94.7884C49.6599 95.1389 49.7379 95.5423 49.6718 95.9988C49.6052 96.459 49.413 96.8442 49.0953 97.1544C48.7818 97.4614 48.3921 97.6797 47.9263 97.8093C47.4646 97.9357 46.9777 97.9618 46.4656 97.8876ZM52.8892 98.8177C52.3771 98.7436 51.9285 98.5441 51.5436 98.2194C51.1624 97.8951 50.8775 97.4939 50.6891 97.0157C50.505 96.5344 50.4518 96.0246 50.5297 95.4865C50.5889 95.0782 50.7163 94.7083 50.9121 94.3767C51.1084 94.0414 51.3521 93.7584 51.6432 93.5277C51.9385 93.2939 52.266 93.1253 52.6258 93.022C52.9855 92.9188 53.3566 92.8948 53.7388 92.9502C54.251 93.0243 54.6977 93.2235 55.0789 93.5478C55.4638 93.8725 55.7484 94.2756 55.9326 94.7569C56.1204 95.2388 56.1751 95.7507 56.0967 96.2926C56.0381 96.6971 55.9109 97.0652 55.7151 97.3968C55.5193 97.7284 55.2738 98.0111 54.9785 98.245C54.6874 98.4756 54.362 98.6426 54.0023 98.7459C53.6462 98.8497 53.2752 98.8736 52.8892 98.8177ZM53.0569 97.6598C53.3649 97.7044 53.6532 97.6628 53.9218 97.535C54.1904 97.4071 54.4146 97.2198 54.5943 96.973C54.7783 96.7231 54.8931 96.4404 54.9388 96.1249C54.9855 95.802 54.9543 95.4944 54.8451 95.2019C54.7395 94.9101 54.5759 94.6666 54.354 94.4715C54.1327 94.2728 53.8718 94.1516 53.5712 94.1081C53.2668 94.064 52.9785 94.1056 52.7062 94.2329C52.4376 94.3608 52.2113 94.5497 52.0274 94.7996C51.8471 95.0501 51.7339 95.335 51.6877 95.6541C51.6398 95.9845 51.6708 96.294 51.7806 96.5827C51.8903 96.8714 52.0561 97.1133 52.278 97.3083C52.5041 97.5002 52.7637 97.6174 53.0569 97.6598ZM56.517 99.1952L57.7261 90.8448L58.884 91.0125L57.6749 99.3629L56.517 99.1952ZM59.8129 93.9888L60.9709 94.1565L60.1648 99.7234L59.0069 99.5558L59.8129 93.9888ZM60.5199 93.2671C60.3418 93.2413 60.2016 93.1622 60.0995 93.03C59.9974 92.8978 59.959 92.7444 59.9843 92.57C60.009 92.3993 60.0891 92.265 60.2245 92.1671C60.3604 92.0656 60.5156 92.0274 60.6901 92.0527C60.8608 92.0774 60.9969 92.1577 61.0985 92.2937C61.2006 92.4259 61.2393 92.5774 61.2146 92.7481C61.1893 92.9226 61.109 93.0587 60.9735 93.1566C60.8418 93.2549 60.6906 93.2918 60.5199 93.2671ZM66.9447 92.1796L68.1026 92.3473L66.8935 100.698L65.7356 100.53L65.854 99.7117C65.6303 99.9749 65.3589 100.174 65.0399 100.31C64.7215 100.442 64.3655 100.479 63.9721 100.422C63.5676 100.364 63.2001 100.233 62.8695 100.03C62.539 99.8266 62.2576 99.5718 62.0254 99.2653C61.7974 98.9557 61.6328 98.6136 61.5317 98.239C61.4306 97.8644 61.4093 97.4748 61.4679 97.0703C61.5265 96.6658 61.6574 96.2982 61.8606 95.9677C62.0644 95.6334 62.3192 95.352 62.6251 95.1235C62.9352 94.8918 63.2776 94.7254 63.6522 94.6243C64.0268 94.5232 64.4164 94.5019 64.8209 94.5605C65.2143 94.6175 65.5447 94.7562 65.8121 94.9768C66.0801 95.1937 66.2843 95.4582 66.4247 95.7703L66.9447 92.1796ZM64.1453 99.3052C64.4719 99.3524 64.7692 99.314 65.0373 99.1899C65.3059 99.0621 65.5268 98.8705 65.7002 98.6152C65.8773 98.3605 65.99 98.0661 66.0384 97.7321C66.0873 97.3944 66.063 97.0782 65.9654 96.7837C65.8679 96.4892 65.7082 96.2444 65.4863 96.0493C65.2687 95.8511 64.9966 95.7284 64.67 95.6811C64.3472 95.6343 64.0403 95.6732 63.7494 95.7979C63.4623 95.923 63.219 96.1113 63.0197 96.3629C62.824 96.6149 62.702 96.908 62.6537 97.242C62.6048 97.5797 62.6402 97.8974 62.7601 98.1952C62.8841 98.4898 63.0661 98.7378 63.3059 98.9392C63.5501 99.1375 63.8298 99.2595 64.1453 99.3052Z" fill="#1C1B1F"/>
<mask id="mask0_402_545" style="mask-type:alpha" maskUnits="userSpaceOnUse" x="16" y="82" width="17" height="17">
<rect x="18.6382" y="82.5958" width="14.25" height="14.25" transform="rotate(8.23895 18.6382 82.5958)" fill="#616063"/>
</mask>
<g mask="url(#mask0_402_545)">
<path d="M24.243 93.6063C25.0559 93.724 25.7903 93.5379 26.4462 93.0479C27.102 92.558 27.4888 91.9065 27.6065 91.0937C27.7242 90.2808 27.5381 89.5464 27.0481 88.8905C26.5582 88.2346 25.9067 87.8478 25.0939 87.7301C24.281 87.6124 23.5466 87.7986 22.8907 88.2885C22.2348 88.7785 21.848 89.4299 21.7303 90.2428C21.6126 91.0557 21.7988 91.7901 22.2887 92.446C22.7787 93.1018 23.4301 93.4886 24.243 93.6063ZM23.8176 96.5444C23.0047 96.4267 22.2631 96.1619 21.5929 95.7499C20.9226 95.3378 20.3613 94.8291 19.909 94.2237C19.4567 93.6182 19.1281 92.9357 18.9231 92.1761C18.7182 91.4165 18.6745 90.6303 18.7922 89.8174C18.9099 89.0045 19.1748 88.2629 19.5868 87.5927C19.9988 86.9224 20.5075 86.3611 21.113 85.9088C21.7184 85.4565 22.4009 85.1279 23.1606 84.9229C23.9202 84.7179 24.7064 84.6743 25.5193 84.792C26.3322 84.9097 27.0737 85.1746 27.744 85.5866C28.4143 85.9986 28.9756 86.5073 29.4278 87.1128C29.8801 87.7182 30.2088 88.4007 30.4137 89.1604C30.6187 89.92 30.6624 90.7062 30.5447 91.5191C30.4269 92.332 30.1621 93.0735 29.7501 93.7438C29.338 94.4141 28.8293 94.9754 28.2239 95.4276C27.6184 95.8799 26.9359 96.2085 26.1763 96.4135C25.4167 96.6185 24.6305 96.6621 23.8176 96.5444ZM23.9877 95.3692C25.3001 95.5592 26.4776 95.2648 27.5203 94.4858C28.563 93.7069 29.1794 92.6613 29.3694 91.3489C29.5594 90.0366 29.265 88.859 28.486 87.8163C27.7071 86.7736 26.6615 86.1573 25.3491 85.9673C24.0368 85.7772 22.8592 86.0717 21.8165 86.8506C20.7738 87.6295 20.1575 88.6752 19.9675 89.9875C19.7774 91.2999 20.0719 92.4774 20.8508 93.5201C21.6297 94.5628 22.6754 95.1792 23.9877 95.3692Z" fill="#25D366"/>
</g>
<rect x="143.586" y="78.5817" width="94.125" height="37.125" rx="10.6875" transform="rotate(-2.43306 143.586 78.5817)" stroke="#616063" stroke-width="1.125"/>
<path d="M186.52 99.3615C185.973 99.3848 185.459 99.3015 184.978 99.1118C184.501 98.9181 184.078 98.6414 183.71 98.2817C183.345 97.9181 183.053 97.4933 182.834 97.0072C182.618 96.5209 182.498 95.9986 182.474 95.4404C182.449 94.8522 182.531 94.3063 182.72 93.8028C182.909 93.2994 183.177 92.8582 183.525 92.4793C183.873 92.0967 184.275 91.7944 184.731 91.5723C185.191 91.3501 185.677 91.2281 186.19 91.2063C186.771 91.1816 187.335 91.2928 187.882 91.5398C188.43 91.7868 188.913 92.1716 189.333 92.6942L188.312 93.3063C188.028 92.9805 187.703 92.7391 187.336 92.5821C186.972 92.4248 186.603 92.3542 186.229 92.3701C185.865 92.3856 185.524 92.4751 185.204 92.6388C184.884 92.7988 184.605 93.0171 184.365 93.2938C184.125 93.5667 183.94 93.8843 183.809 94.2464C183.681 94.6046 183.626 94.9917 183.644 95.4076C183.661 95.8085 183.746 96.182 183.9 96.5283C184.057 96.8745 184.265 97.1753 184.524 97.4308C184.786 97.6824 185.083 97.8762 185.416 98.0122C185.752 98.1481 186.107 98.208 186.482 98.1921C186.759 98.1803 187.023 98.1241 187.274 98.0233C187.525 97.9226 187.756 97.7852 187.966 97.6111C188.18 97.4331 188.364 97.2245 188.519 96.9852C188.674 96.7459 188.794 96.4818 188.88 96.1929L187.21 96.2638L187.167 95.2297L190.207 95.1006C190.238 95.6622 190.163 96.1946 189.982 96.6978C189.804 97.2008 189.546 97.649 189.206 98.0426C188.87 98.4322 188.472 98.7437 188.013 98.9772C187.553 99.2107 187.056 99.3388 186.52 99.3615ZM191.45 99.0057L191.211 93.3857L192.38 93.3361L192.406 93.9318C192.591 93.6912 192.823 93.4975 193.102 93.3505C193.381 93.2035 193.685 93.123 194.015 93.109C194.224 93.1001 194.434 93.1193 194.642 93.1668L194.226 94.3668C194.077 94.3168 193.93 94.2949 193.784 94.3011C193.536 94.3116 193.312 94.3831 193.112 94.5155C192.911 94.6441 192.753 94.8141 192.638 95.0254C192.523 95.2367 192.471 95.4679 192.482 95.7189L192.619 98.956L191.45 99.0057ZM199.403 93.0377L200.572 92.988L200.811 98.6079L199.637 98.6578L199.557 97.8449C199.404 98.1403 199.191 98.3821 198.918 98.5701C198.644 98.7582 198.316 98.8603 197.934 98.8765C197.522 98.8941 197.131 98.8337 196.761 98.6956C196.391 98.5536 196.062 98.3499 195.773 98.0845C195.487 97.8188 195.26 97.5095 195.091 97.1563C194.922 96.7994 194.829 96.413 194.811 95.9972C194.794 95.5963 194.853 95.2165 194.988 94.858C195.123 94.4957 195.317 94.1759 195.572 93.8986C195.827 93.6213 196.125 93.4003 196.467 93.2356C196.813 93.067 197.186 92.9742 197.587 92.9572C197.995 92.9398 198.359 93.0182 198.678 93.1923C199.001 93.3626 199.271 93.5875 199.489 93.8673L199.403 93.0377ZM197.858 97.7481C198.188 97.7341 198.473 97.6413 198.713 97.4697C198.954 97.2943 199.135 97.0652 199.259 96.7822C199.385 96.499 199.442 96.1889 199.427 95.8517C199.413 95.5107 199.33 95.2046 199.18 94.9332C199.03 94.6619 198.827 94.4509 198.573 94.3003C198.323 94.1458 198.032 94.0755 197.703 94.0896C197.377 94.1034 197.082 94.1985 196.82 94.3748C196.557 94.5511 196.353 94.7812 196.207 95.0652C196.062 95.3491 195.996 95.6597 196.01 95.9969C196.025 96.3378 196.119 96.6435 196.291 96.9139C196.468 97.1804 196.693 97.3904 196.966 97.544C197.242 97.6936 197.54 97.7617 197.858 97.7481ZM205.843 89.949L207.012 89.8994L207.37 98.3292L206.201 98.3789L206.166 97.5528C205.994 97.8528 205.765 98.099 205.476 98.2915C205.188 98.4801 204.845 98.5829 204.448 98.5998C204.04 98.6171 203.654 98.5566 203.292 98.4181C202.929 98.2796 202.606 98.0813 202.321 97.8231C202.039 97.5611 201.814 97.2554 201.645 96.906C201.477 96.5566 201.384 96.1777 201.366 95.7693C201.349 95.3609 201.409 94.9755 201.548 94.613C201.686 94.2468 201.885 93.9231 202.143 93.6419C202.405 93.3568 202.71 93.1299 203.06 92.9611C203.409 92.7924 203.788 92.6993 204.196 92.682C204.594 92.6651 204.944 92.7403 205.248 92.9076C205.551 93.0711 205.801 93.2932 205.997 93.5739L205.843 89.949ZM204.411 97.4697C204.741 97.4557 205.026 97.3629 205.266 97.1913C205.507 97.0159 205.688 96.7867 205.811 96.5038C205.938 96.2206 205.995 95.9104 205.98 95.5732C205.966 95.2323 205.883 94.9262 205.733 94.6548C205.582 94.3834 205.38 94.1725 205.126 94.0219C204.876 93.8674 204.585 93.7971 204.256 93.8111C203.93 93.825 203.635 93.9201 203.373 94.0964C203.114 94.2725 202.909 94.5026 202.76 94.7867C202.615 95.0707 202.549 95.3812 202.563 95.7184C202.578 96.0594 202.671 96.3651 202.844 96.6355C203.021 96.902 203.246 97.112 203.519 97.2655C203.795 97.4152 204.093 97.4832 204.411 97.4697ZM208.477 92.6521L209.646 92.6024L209.885 98.2224L208.716 98.272L208.477 92.6521ZM209.038 91.8119C208.858 91.8196 208.706 91.7678 208.581 91.6568C208.456 91.5457 208.39 91.4022 208.383 91.2261C208.376 91.0537 208.429 90.9069 208.544 90.7857C208.659 90.6607 208.805 90.5945 208.981 90.587C209.153 90.5797 209.302 90.6334 209.427 90.7482C209.551 90.8593 209.618 91.001 209.625 91.1733C209.632 91.3494 209.579 91.4981 209.464 91.6193C209.352 91.7404 209.211 91.8046 209.038 91.8119ZM213.61 98.2105C213.093 98.2325 212.615 98.1195 212.177 97.8716C211.742 97.6236 211.388 97.2821 211.114 96.8471C210.844 96.4082 210.697 95.9171 210.674 95.3738C210.657 94.9617 210.713 94.5745 210.844 94.2124C210.975 93.8465 211.162 93.5233 211.406 93.2427C211.653 92.9582 211.943 92.7319 212.278 92.5638C212.612 92.3957 212.972 92.3035 213.358 92.2871C213.789 92.2688 214.188 92.3419 214.555 92.5064C214.923 92.6673 215.24 92.8996 215.508 93.2035C215.776 93.5036 215.979 93.8554 216.116 94.2586C216.253 94.6582 216.307 95.0875 216.278 95.5467L211.945 95.7308C212.005 95.9872 212.108 96.2174 212.256 96.4214C212.407 96.6214 212.594 96.7767 212.816 96.8874C213.042 96.9979 213.29 97.0493 213.56 97.0415C213.845 97.0294 214.1 96.9473 214.327 96.795C214.557 96.6426 214.741 96.4377 214.88 96.1803L216.078 96.4053C215.874 96.9132 215.553 97.336 215.113 97.6737C214.673 98.0077 214.172 98.1866 213.61 98.2105ZM211.868 94.8389L215.06 94.7033C215.011 94.4351 214.905 94.1956 214.742 93.9849C214.583 93.7702 214.386 93.604 214.152 93.4863C213.922 93.3647 213.672 93.3097 213.402 93.3211C213.136 93.3324 212.891 93.4066 212.668 93.5437C212.449 93.6807 212.269 93.8629 212.129 94.0903C211.992 94.3138 211.905 94.5633 211.868 94.8389ZM222.219 94.1682L222.369 97.6919L221.2 97.7416L221.062 94.5045C221.051 94.2535 220.98 94.0276 220.847 93.8268C220.719 93.6258 220.549 93.4698 220.338 93.3586C220.13 93.2436 219.899 93.1915 219.644 93.2023C219.397 93.2128 219.173 93.2843 218.972 93.4166C218.771 93.5453 218.613 93.7153 218.498 93.9266C218.383 94.1379 218.331 94.3691 218.342 94.6201L218.48 97.8572L217.311 97.9069L217.072 92.2869L218.241 92.2373L218.266 92.833C218.451 92.5924 218.683 92.3986 218.962 92.2516C219.241 92.1047 219.545 92.0242 219.875 92.0102C220.291 91.9925 220.674 92.0776 221.023 92.2654C221.373 92.4532 221.654 92.7134 221.867 93.0459C222.084 93.3783 222.201 93.7524 222.219 94.1682ZM226.268 93.0672L225.088 93.1174L225.272 97.5686L224.103 97.6182L223.919 93.167L223.026 93.205L222.976 92.036L223.87 91.9981L223.789 90.2337L224.958 90.184L225.039 91.9484L226.219 91.8983L226.268 93.0672Z" fill="#616063"/>
<mask id="mask1_402_545" style="mask-type:alpha" maskUnits="userSpaceOnUse" x="155" y="88" width="16" height="16">
<rect x="155.499" y="89.5233" width="14.25" height="14.25" transform="rotate(-2.43306 155.499 89.5233)" fill="#D9D9D9"/>
</mask>
<g mask="url(#mask1_402_545)">
<path d="M163.172 102.272C162.351 102.306 161.573 102.184 160.838 101.903C160.103 101.622 159.457 101.226 158.901 100.715C158.344 100.204 157.895 99.5937 157.553 98.8852C157.211 98.1767 157.022 97.4121 156.987 96.5915C156.953 95.7709 157.075 94.9931 157.356 94.2581C157.637 93.5231 158.033 92.8774 158.544 92.3208C159.055 91.7642 159.665 91.3149 160.374 90.9728C161.082 90.6307 161.847 90.4422 162.667 90.4073C163.488 90.3724 164.266 90.4954 165.001 90.7762C165.736 91.0569 166.382 91.4529 166.938 91.9641C167.495 92.4753 167.944 93.0852 168.286 93.7937C168.628 94.5022 168.817 95.2668 168.852 96.0874C168.887 96.908 168.764 97.6858 168.483 98.4208C168.202 99.1558 167.806 99.8015 167.295 100.358C166.784 100.915 166.174 101.364 165.465 101.706C164.757 102.048 163.992 102.237 163.172 102.272ZM163.121 101.085C164.446 101.029 165.549 100.521 166.429 99.5629C167.31 98.6043 167.722 97.4626 167.665 96.1378C167.609 94.813 167.102 93.7103 166.143 92.8299C165.184 91.9495 164.043 91.5374 162.718 91.5937C161.393 91.65 160.29 92.1574 159.41 93.116C158.53 94.0746 158.118 95.2163 158.174 96.5411C158.23 97.8659 158.738 98.9686 159.696 99.849C160.655 100.729 161.796 101.141 163.121 101.085Z" fill="#616063"/>
</g>
<rect x="85.3319" y="85.4031" width="56.25" height="24.75" rx="7.125" transform="rotate(4.46956 85.3319 85.4031)" fill="#25D366" fill-opacity="0.1"/>
<rect x="85.3319" y="85.4031" width="56.25" height="24.75" rx="7.125" transform="rotate(4.46956 85.3319 85.4031)" stroke="#25D366" stroke-width="0.75"/>
<path d="M112.104 102.263C111.75 102.236 111.423 102.14 111.123 101.976C110.822 101.809 110.563 101.594 110.346 101.328C110.131 101.061 109.969 100.757 109.86 100.418C109.754 100.078 109.715 99.7218 109.744 99.348C109.774 98.9741 109.867 98.6278 110.025 98.3092C110.185 97.9907 110.392 97.7172 110.646 97.4888C110.902 97.2581 111.191 97.0851 111.514 96.9699C111.836 96.8522 112.175 96.8071 112.529 96.8348C112.952 96.8679 113.335 96.9969 113.676 97.2216C114.017 97.4464 114.292 97.7312 114.5 98.076L113.78 98.392C113.634 98.175 113.446 97.9961 113.216 97.8552C112.987 97.7144 112.737 97.6335 112.468 97.6124C112.219 97.5929 111.982 97.6258 111.757 97.7111C111.532 97.7963 111.33 97.921 111.152 98.0851C110.974 98.2492 110.829 98.4448 110.719 98.6718C110.608 98.8989 110.543 99.1445 110.522 99.4087C110.501 99.6754 110.528 99.9295 110.602 100.171C110.676 100.41 110.788 100.626 110.938 100.818C111.092 101.008 111.273 101.163 111.481 101.282C111.691 101.398 111.918 101.466 112.165 101.486C112.439 101.507 112.7 101.466 112.946 101.362C113.195 101.256 113.407 101.107 113.583 100.916L114.245 101.347C113.985 101.655 113.669 101.894 113.297 102.063C112.926 102.23 112.528 102.296 112.104 102.263ZM114.896 102.384L115.334 96.7757L116.112 96.8365L115.673 102.444L114.896 102.384ZM119.718 98.9991L120.495 99.0599L120.203 102.798L119.422 102.737L119.434 102.193C119.309 102.376 119.149 102.519 118.953 102.622C118.757 102.724 118.532 102.766 118.277 102.746C118.003 102.724 117.749 102.653 117.516 102.532C117.282 102.408 117.08 102.247 116.91 102.048C116.743 101.85 116.617 101.627 116.534 101.379C116.45 101.13 116.419 100.867 116.441 100.59C116.462 100.323 116.531 100.077 116.649 99.8501C116.768 99.6211 116.922 99.425 117.113 99.2619C117.304 99.0988 117.519 98.9764 117.758 98.8949C118.001 98.811 118.255 98.7795 118.522 98.8003C118.794 98.8216 119.028 98.9026 119.225 99.0434C119.425 99.1818 119.586 99.3524 119.708 99.555L119.718 98.9991ZM118.317 101.993C118.537 102.01 118.733 101.971 118.906 101.877C119.079 101.78 119.217 101.643 119.322 101.466C119.428 101.289 119.49 101.088 119.508 100.863C119.526 100.637 119.496 100.427 119.418 100.236C119.34 100.044 119.223 99.8883 119.067 99.7682C118.913 99.6459 118.727 99.5762 118.508 99.559C118.291 99.5421 118.088 99.5814 117.9 99.6771C117.712 99.7727 117.559 99.9086 117.44 100.085C117.321 100.261 117.252 100.461 117.235 100.686C117.217 100.913 117.255 101.122 117.347 101.315C117.443 101.506 117.575 101.663 117.743 101.786C117.914 101.907 118.106 101.976 118.317 101.993ZM122.065 103.015C121.869 102.988 121.68 102.933 121.499 102.851C121.317 102.769 121.16 102.665 121.026 102.539C120.896 102.411 120.802 102.266 120.745 102.104L121.428 101.871C121.456 101.941 121.507 102.011 121.581 102.082C121.658 102.154 121.75 102.215 121.857 102.266C121.963 102.314 122.076 102.343 122.196 102.352C122.313 102.362 122.423 102.354 122.525 102.329C122.63 102.302 122.717 102.257 122.788 102.192C122.858 102.127 122.897 102.046 122.904 101.949C122.913 101.839 122.882 101.752 122.812 101.686C122.745 101.618 122.657 101.563 122.55 101.523C122.443 101.482 122.336 101.442 122.229 101.403C121.989 101.329 121.77 101.237 121.573 101.126C121.379 101.013 121.228 100.878 121.12 100.719C121.012 100.557 120.967 100.367 120.984 100.148C121.003 99.9083 121.084 99.7065 121.227 99.5421C121.37 99.3753 121.55 99.2527 121.767 99.1744C121.986 99.0962 122.216 99.0665 122.455 99.0852C122.754 99.1086 123.023 99.1935 123.263 99.3401C123.502 99.4867 123.679 99.6761 123.794 99.9083L123.148 100.226C123.117 100.149 123.066 100.077 122.996 100.011C122.926 99.9457 122.845 99.8917 122.753 99.8494C122.661 99.8047 122.564 99.7758 122.462 99.7628C122.335 99.7479 122.216 99.7536 122.103 99.7799C121.994 99.8039 121.904 99.8496 121.833 99.9168C121.763 99.984 121.723 100.074 121.714 100.186C121.706 100.295 121.738 100.381 121.811 100.442C121.884 100.5 121.978 100.55 122.093 100.592C122.21 100.633 122.329 100.679 122.451 100.729C122.667 100.816 122.868 100.918 123.055 101.035C123.241 101.15 123.389 101.286 123.497 101.442C123.605 101.599 123.648 101.783 123.627 101.994C123.609 102.228 123.521 102.428 123.366 102.594C123.212 102.76 123.02 102.881 122.788 102.955C122.557 103.03 122.316 103.05 122.065 103.015ZM125.3 103.268C125.104 103.24 124.915 103.186 124.733 103.104C124.552 103.022 124.394 102.918 124.261 102.792C124.131 102.664 124.037 102.519 123.979 102.356L124.663 102.124C124.69 102.194 124.741 102.264 124.816 102.335C124.893 102.407 124.985 102.468 125.091 102.519C125.198 102.567 125.311 102.596 125.431 102.605C125.548 102.614 125.657 102.607 125.76 102.582C125.865 102.555 125.952 102.509 126.022 102.445C126.093 102.38 126.132 102.299 126.139 102.202C126.148 102.092 126.117 102.004 126.047 101.939C125.979 101.871 125.892 101.816 125.785 101.775C125.678 101.734 125.571 101.695 125.463 101.656C125.223 101.582 125.005 101.49 124.808 101.379C124.614 101.266 124.463 101.13 124.355 100.971C124.247 100.81 124.202 100.62 124.219 100.4C124.237 100.161 124.318 99.9593 124.462 99.795C124.605 99.6281 124.785 99.5056 125.002 99.4272C125.221 99.3491 125.45 99.3193 125.69 99.338C125.989 99.3614 126.258 99.4464 126.497 99.593C126.737 99.7396 126.914 99.929 127.028 100.161L126.383 100.479C126.351 100.402 126.301 100.33 126.23 100.264C126.16 100.199 126.079 100.145 125.987 100.102C125.896 100.058 125.799 100.029 125.697 100.016C125.57 100.001 125.451 100.006 125.338 100.033C125.229 100.057 125.138 100.102 125.068 100.17C124.998 100.237 124.958 100.327 124.949 100.439C124.941 100.548 124.973 100.634 125.046 100.694C125.119 100.753 125.213 100.803 125.327 100.844C125.445 100.886 125.564 100.932 125.685 100.981C125.902 101.069 126.103 101.171 126.29 101.288C126.476 101.403 126.624 101.539 126.732 101.695C126.84 101.852 126.883 102.035 126.862 102.247C126.843 102.481 126.756 102.681 126.6 102.847C126.447 103.013 126.254 103.134 126.023 103.208C125.791 103.283 125.55 103.303 125.3 103.268ZM127.645 99.6188L128.423 99.6795L128.13 103.418L127.353 103.357L127.645 99.6188ZM128.084 99.1076C127.964 99.0983 127.867 99.0519 127.794 98.9684C127.72 98.8849 127.688 98.7845 127.697 98.6674C127.706 98.5528 127.753 98.4599 127.839 98.3889C127.925 98.3154 128.026 98.2832 128.144 98.2923C128.258 98.3013 128.352 98.3488 128.426 98.4348C128.5 98.5183 128.532 98.6173 128.523 98.732C128.514 98.8491 128.466 98.9432 128.381 99.0142C128.297 99.0855 128.198 99.1166 128.084 99.1076ZM131.483 102.612L132.149 103.044C131.961 103.267 131.731 103.44 131.458 103.562C131.188 103.683 130.901 103.732 130.597 103.709C130.253 103.682 129.945 103.569 129.675 103.37C129.407 103.171 129.2 102.916 129.054 102.606C128.91 102.294 128.853 101.957 128.881 101.596C128.902 101.322 128.971 101.07 129.087 100.841C129.203 100.609 129.352 100.41 129.536 100.244C129.722 100.076 129.933 99.9493 130.167 99.8648C130.402 99.7804 130.648 99.7482 130.905 99.7682C131.209 99.792 131.485 99.8851 131.733 100.047C131.983 100.21 132.184 100.417 132.335 100.67L131.61 100.993C131.515 100.86 131.4 100.756 131.266 100.68C131.132 100.602 130.991 100.557 130.844 100.546C130.639 100.53 130.449 100.571 130.274 100.671C130.101 100.767 129.958 100.903 129.847 101.077C129.738 101.249 129.675 101.443 129.659 101.657C129.642 101.869 129.675 102.069 129.758 102.259C129.841 102.446 129.961 102.601 130.117 102.723C130.275 102.846 130.455 102.915 130.657 102.931C130.812 102.943 130.962 102.92 131.107 102.861C131.252 102.802 131.377 102.719 131.483 102.612Z" fill="#1C1B1F"/>
<mask id="mask2_402_545" style="mask-type:alpha" maskUnits="userSpaceOnUse" x="91" y="93" width="11" height="11">
<rect x="92.3394" y="93.5991" width="9.5" height="9.5" transform="rotate(4.46956 92.3394 93.5991)" fill="#616063"/>
</mask>
<g mask="url(#mask2_402_545)">
<path d="M96.5505 100.678C97.0964 100.721 97.5768 100.565 97.9916 100.21C98.4064 99.8553 98.6352 99.405 98.6779 98.8591C98.7205 98.3132 98.5645 97.8328 98.2098 97.4179C97.8552 97.0031 97.4049 96.7743 96.859 96.7317C96.3131 96.689 95.8327 96.845 95.4178 97.1997C95.003 97.5544 94.7742 98.0047 94.7316 98.5506C94.6889 99.0965 94.8449 99.5769 95.1996 99.9917C95.5543 100.407 96.0046 100.635 96.5505 100.678ZM96.3962 102.651C95.8503 102.608 95.3454 102.465 94.8815 102.22C94.4175 101.975 94.0219 101.662 93.6945 101.279C93.3671 100.896 93.1185 100.456 92.9489 99.9597C92.7792 99.4634 92.7158 98.9423 92.7584 98.3963C92.8011 97.8504 92.9448 97.3455 93.1895 96.8816C93.4342 96.4176 93.748 96.022 94.131 95.6946C94.5139 95.3672 94.9535 95.1186 95.4498 94.949C95.9462 94.7793 96.4673 94.7159 97.0132 94.7585C97.5591 94.8012 98.064 94.9449 98.528 95.1896C98.9919 95.4343 99.3876 95.7481 99.715 96.1311C100.042 96.514 100.291 96.9536 100.461 97.4499C100.63 97.9463 100.694 98.4674 100.651 99.0133C100.608 99.5592 100.465 100.064 100.22 100.528C99.9752 100.992 99.6614 101.388 99.2785 101.715C98.8956 102.042 98.4559 102.291 97.9596 102.461C97.4633 102.63 96.9422 102.694 96.3962 102.651ZM96.4579 101.862C97.3393 101.931 98.1097 101.683 98.7692 101.119C99.4287 100.556 99.7929 99.8329 99.8618 98.9516C99.9306 98.0703 99.6832 97.2998 99.1193 96.6404C98.5554 95.9809 97.8328 95.6167 96.9515 95.5478C96.0702 95.4789 95.2997 95.7264 94.6403 96.2902C93.9808 96.8541 93.6166 97.5767 93.5477 98.458C93.4788 99.3394 93.7263 100.11 94.2901 100.769C94.854 101.429 95.5766 101.793 96.4579 101.862Z" fill="#25D366"/>
</g>
<rect x="47.5225" y="43.7994" width="86.0444" height="31.9041" rx="9.18451" transform="rotate(-4.85133 47.5225 43.7994)" stroke="#616063" stroke-width="0.966791"/>
<path d="M82.0133 60.3489L81.4409 53.6056L83.9215 53.3951C84.2876 53.364 84.6243 53.426 84.9318 53.581C85.2393 53.736 85.491 53.9588 85.6871 54.2494C85.8861 54.5366 86.0015 54.8664 86.0331 55.2389C86.0598 55.5536 86.0248 55.846 85.928 56.1162C85.8345 56.3861 85.6895 56.6215 85.4931 56.8226C85.3 57.0233 85.0719 57.1753 84.809 57.2784L86.6758 59.9532L85.5149 60.0517L83.7041 57.4644L82.7841 57.5425L83.0151 60.2639L82.0133 60.3489ZM82.6991 56.5406L84.0718 56.4241C84.2645 56.4078 84.4354 56.3447 84.5846 56.235C84.737 56.1251 84.8529 55.9859 84.9324 55.8174C85.0119 55.649 85.0431 55.4636 85.0259 55.2613C85.0087 55.059 84.9468 54.8815 84.84 54.7289C84.733 54.573 84.5953 54.4553 84.4268 54.3758C84.2613 54.2928 84.0822 54.2595 83.8895 54.2759L82.5168 54.3924L82.6991 56.5406ZM89.4961 59.8399C89.0529 59.8776 88.6387 59.7979 88.2532 59.601C87.871 59.4038 87.5545 59.1234 87.3038 58.7598C87.0559 58.3927 86.9122 57.9764 86.8727 57.5108C86.8427 57.1576 86.8774 56.8231 86.9768 56.5074C87.0758 56.1885 87.2247 55.9042 87.4235 55.6545C87.6251 55.4013 87.8665 55.1965 88.1475 55.04C88.4285 54.8835 88.7344 54.7913 89.0652 54.7632C89.4345 54.7319 89.7798 54.7802 90.1011 54.9081C90.4222 55.0329 90.7033 55.2209 90.9446 55.4721C91.1856 55.7201 91.3723 56.0147 91.5048 56.356C91.6369 56.6941 91.6988 57.0608 91.6903 57.4561L87.9767 57.7712C88.0372 57.9893 88.1345 58.1831 88.2686 58.3529C88.4056 58.5191 88.5716 58.6457 88.7666 58.7327C88.9647 58.8194 89.1796 58.8545 89.411 58.8381C89.6551 58.8174 89.8715 58.7376 90.0602 58.5986C90.2521 58.4594 90.4032 58.2768 90.5134 58.0508L91.5497 58.2005C91.3933 58.644 91.1324 59.0186 90.767 59.3246C90.4014 59.6273 89.9777 59.7991 89.4961 59.8399ZM87.8779 57.0083L90.6138 56.7761C90.5621 56.5476 90.4625 56.3458 90.315 56.1707C90.1705 55.9922 89.9956 55.8566 89.7905 55.7641C89.5883 55.6681 89.3716 55.6298 89.1404 55.6495C88.9124 55.6688 88.7051 55.7414 88.5185 55.8672C88.3351 55.9927 88.1872 56.1557 88.0749 56.356C87.9654 56.5529 87.8998 56.7703 87.8779 57.0083ZM95.6823 57.811L96.6195 58.2214C96.427 58.545 96.17 58.8126 95.8483 59.0243C95.5299 59.2356 95.1748 59.358 94.7831 59.3912C94.3399 59.4288 93.9257 59.3492 93.5403 59.1522C93.1581 58.9551 92.8416 58.6747 92.5908 58.3111C92.3429 57.944 92.1992 57.5277 92.1597 57.0621C92.1297 56.7088 92.1644 56.3744 92.2638 56.0587C92.3628 55.7398 92.5117 55.4555 92.7105 55.2058C92.9121 54.9526 93.1535 54.7477 93.4345 54.5913C93.7156 54.4348 94.0215 54.3425 94.3522 54.3145C94.7439 54.2812 95.1146 54.3419 95.4641 54.4966C95.8168 54.651 96.1154 54.8731 96.3599 55.1629L95.5053 55.7254C95.3568 55.5763 95.1891 55.4676 95.0022 55.3994C94.815 55.3279 94.6267 55.3003 94.4372 55.3163C94.1739 55.3387 93.9408 55.4312 93.7379 55.594C93.538 55.7533 93.3854 55.9554 93.28 56.2005C93.1776 56.442 93.1381 56.7009 93.1616 56.977C93.1848 57.25 93.2689 57.4983 93.414 57.7221C93.5589 57.9427 93.7433 58.1146 93.9672 58.2379C94.1943 58.3609 94.4379 58.4114 94.698 58.3893C94.8971 58.3725 95.0828 58.3114 95.255 58.2062C95.4272 58.1011 95.5696 57.9693 95.6823 57.811ZM99.7832 54.9984L98.7718 55.0843L99.0907 58.8995L98.0889 58.9845L97.7699 55.1693L97.004 55.2343L96.919 54.2325L97.6849 54.1675L97.5517 52.6554L98.5535 52.5704L98.6867 54.0824L99.6982 53.9966L99.7832 54.9984ZM104.195 53.6149L105.197 53.5299L105.606 58.3465L104.599 58.432L104.501 57.7368C104.381 57.9961 104.207 58.2114 103.979 58.3827C103.751 58.5541 103.473 58.6537 103.145 58.6815C102.792 58.7114 102.454 58.6738 102.132 58.5686C101.809 58.4602 101.518 58.2972 101.26 58.0798C101.006 57.8621 100.8 57.6046 100.642 57.3076C100.484 57.0073 100.39 56.6789 100.359 56.3225C100.33 55.9789 100.367 55.6507 100.47 55.338C100.572 55.022 100.728 54.7404 100.937 54.493C101.145 54.2457 101.393 54.0451 101.681 53.8913C101.972 53.7341 102.289 53.6408 102.633 53.6117C102.983 53.582 103.298 53.6361 103.578 53.774C103.861 53.9085 104.101 54.0918 104.299 54.3241L104.195 53.6149ZM103.039 57.7154C103.322 57.6914 103.563 57.6014 103.763 57.4453C103.963 57.286 104.111 57.0827 104.206 56.8352C104.305 56.5875 104.342 56.3192 104.318 56.0302C104.293 55.738 104.211 55.4781 104.072 55.2506C103.933 55.023 103.752 54.8492 103.528 54.7291C103.307 54.6055 103.056 54.5557 102.773 54.5797C102.494 54.6034 102.244 54.6958 102.025 54.8567C101.806 55.0176 101.639 55.2226 101.524 55.4716C101.41 55.7207 101.364 55.9897 101.389 56.2787C101.414 56.5709 101.505 56.83 101.664 57.0559C101.825 57.2783 102.025 57.4505 102.265 57.5724C102.508 57.6909 102.766 57.7385 103.039 57.7154ZM110.645 54.877L110.902 57.897L109.9 57.982L109.664 55.2077C109.646 54.9925 109.577 54.8011 109.456 54.6335C109.338 54.4656 109.186 54.3378 109.001 54.25C108.819 54.1588 108.618 54.1224 108.4 54.141C108.188 54.1589 107.998 54.2284 107.831 54.3494C107.663 54.4671 107.533 54.6188 107.442 54.8044C107.351 54.99 107.315 55.1904 107.333 55.4055L107.569 58.1799L106.567 58.2649L106.158 53.4483L107.16 53.3633L107.203 53.8738C107.353 53.6606 107.545 53.4858 107.78 53.3495C108.014 53.2132 108.272 53.133 108.555 53.109C108.911 53.0788 109.243 53.1379 109.55 53.2865C109.857 53.4351 110.108 53.6483 110.303 53.9261C110.501 54.2036 110.615 54.5205 110.645 54.877ZM115.026 52.6956L116.028 52.6106L116.447 57.5525C116.475 57.8832 116.43 58.1943 116.313 58.4856C116.198 58.7767 116.031 59.0335 115.811 59.256C115.59 59.4816 115.331 59.6638 115.032 59.8023C114.737 59.9406 114.422 60.0239 114.088 60.0522C113.751 60.0809 113.42 60.0361 113.097 59.9181C112.773 59.8032 112.482 59.6339 112.224 59.41C111.969 59.1858 111.77 58.9245 111.629 58.6261L112.513 58.1338C112.595 58.3274 112.712 58.4953 112.867 58.6374C113.024 58.7793 113.202 58.8871 113.399 58.961C113.599 59.0345 113.8 59.0627 114.003 59.0456C114.202 59.0287 114.39 58.9803 114.568 58.9006C114.749 58.8238 114.907 58.723 115.042 58.5984C115.18 58.4734 115.286 58.3286 115.359 58.1639C115.432 57.9992 115.461 57.8238 115.445 57.6375L115.376 56.8235C115.24 57.0809 115.054 57.2956 114.82 57.4675C114.585 57.6362 114.304 57.7344 113.976 57.7622C113.636 57.7911 113.309 57.7525 112.996 57.6465C112.683 57.5404 112.403 57.3815 112.155 57.1697C111.907 56.9546 111.706 56.7 111.552 56.4058C111.397 56.1117 111.305 55.7896 111.276 55.4396C111.246 55.0896 111.282 54.7566 111.385 54.4406C111.487 54.1215 111.643 53.8366 111.851 53.5861C112.059 53.3323 112.308 53.1268 112.599 52.9695C112.89 52.8123 113.205 52.7192 113.546 52.6903C113.873 52.6625 114.167 52.7136 114.427 52.8435C114.687 52.9702 114.906 53.1505 115.084 53.3844L115.026 52.6956ZM113.904 56.7932C114.183 56.7695 114.421 56.6782 114.618 56.5192C114.814 56.357 114.96 56.1521 115.056 55.9047C115.151 55.6573 115.187 55.3923 115.163 55.1097C115.138 54.8207 115.057 54.564 114.918 54.3397C114.782 54.1119 114.604 53.9362 114.383 53.8126C114.162 53.6858 113.914 53.6342 113.637 53.6576C113.368 53.6805 113.127 53.7721 112.914 53.9325C112.704 54.0926 112.544 54.297 112.432 54.5458C112.321 54.7946 112.277 55.0635 112.302 55.3525C112.326 55.6415 112.414 55.8992 112.566 56.1257C112.721 56.3519 112.916 56.5262 113.149 56.6487C113.386 56.7677 113.637 56.8159 113.904 56.7932ZM117.592 57.3291L116.979 50.1042L117.981 50.0192L118.594 57.2441L117.592 57.3291ZM121.811 57.0972C121.368 57.1349 120.953 57.0552 120.568 56.8583C120.186 56.6611 119.869 56.3807 119.619 56.0171C119.371 55.65 119.227 55.2337 119.187 54.7681C119.157 54.4149 119.192 54.0804 119.291 53.7647C119.391 53.4458 119.539 53.1615 119.738 52.9118C119.94 52.6586 120.181 52.4538 120.462 52.2973C120.743 52.1408 121.049 52.0486 121.38 52.0205C121.749 51.9892 122.095 52.0375 122.416 52.1654C122.737 52.2902 123.018 52.4782 123.259 52.7294C123.5 52.9774 123.687 53.272 123.819 53.6133C123.952 53.9514 124.014 54.3181 124.005 54.7134L120.291 55.0285C120.352 55.2466 120.449 55.4404 120.583 55.6102C120.72 55.7764 120.886 55.903 121.081 55.99C121.279 56.0767 121.494 56.1118 121.726 56.0954C121.97 56.0747 122.186 55.9949 122.375 55.8559C122.567 55.7167 122.718 55.5341 122.828 55.3081L123.864 55.4578C123.708 55.9013 123.447 56.2759 123.082 56.5819C122.716 56.8846 122.292 57.0564 121.811 57.0972ZM120.193 54.2656L122.929 54.0334C122.877 53.8049 122.777 53.6031 122.63 53.428C122.485 53.2495 122.31 53.1139 122.105 53.0214C121.903 52.9253 121.686 52.8871 121.455 52.9068C121.227 52.9261 121.02 52.9987 120.833 53.1245C120.65 53.25 120.502 53.413 120.39 53.6133C120.28 53.8102 120.215 54.0276 120.193 54.2656Z" fill="#616063"/>
<mask id="mask3_402_545" style="mask-type:alpha" maskUnits="userSpaceOnUse" x="58" y="51" width="14" height="14">
<rect x="58.1475" y="52.762" width="12.246" height="12.246" transform="rotate(-4.85133 58.1475 52.762)" fill="#D9D9D9"/>
</mask>
<g mask="url(#mask3_402_545)">
<path d="M65.1978 63.4294C64.4944 63.4891 63.8222 63.4118 63.1809 63.1973C62.5397 62.9829 61.9709 62.6663 61.4744 62.2476C60.978 61.8289 60.5701 61.3215 60.2507 60.7256C59.9313 60.1297 59.7417 59.4801 59.682 58.7767C59.6223 58.0734 59.6997 57.4011 59.9141 56.7599C60.1285 56.1187 60.4451 55.5498 60.8638 55.0534C61.2826 54.557 61.7899 54.1491 62.3858 53.8297C62.9818 53.5102 63.6314 53.3207 64.3347 53.261C65.038 53.2013 65.7103 53.2787 66.3515 53.4931C66.9928 53.7075 67.5616 54.0241 68.058 54.4428C68.5544 54.8616 68.9624 55.3689 69.2818 55.9648C69.6012 56.5607 69.7908 57.2104 69.8505 57.9137C69.9102 58.617 69.8328 59.2893 69.6184 59.9305C69.404 60.5718 69.0874 61.1406 68.6686 61.637C68.2499 62.1334 67.7426 62.5413 67.1466 62.8608C66.5507 63.1802 65.9011 63.3697 65.1978 63.4294ZM65.1115 62.4126C66.2469 62.3162 67.1753 61.8406 67.8964 60.9856C68.6176 60.1307 68.93 59.1355 68.8336 58C68.7372 56.8645 68.2616 55.9362 67.4066 55.215C66.5517 54.4939 65.5565 54.1815 64.421 54.2778C63.2855 54.3742 62.3572 54.8499 61.6361 55.7048C60.9149 56.5597 60.6025 57.555 60.6989 58.6904C60.7952 59.8259 61.2709 60.7542 62.1258 61.4754C62.9808 62.1966 63.976 62.509 65.1115 62.4126Z" fill="#616063"/>
</g>
<rect x="149.809" y="30.5144" width="85.6523" height="30.8348" rx="8.87669" transform="rotate(6.13398 149.809 30.5144)" fill="#25D366" fill-opacity="0.1"/>
<rect x="149.809" y="30.5144" width="85.6523" height="30.8348" rx="8.87669" transform="rotate(6.13398 149.809 30.5144)" stroke="#25D366" stroke-width="0.934389"/>
<path d="M184.196 46.7323L185.325 46.8536L186.991 53.6109L185.969 53.5011L185.651 52.2171L182.738 51.9041L182.16 53.0918L181.133 52.9814L184.196 46.7323ZM183.2 50.9763L185.397 51.2124L184.621 48.0747L183.2 50.9763ZM192.245 51.2294L191.932 54.142L190.966 54.0381L191.253 51.3625C191.276 51.155 191.245 50.9606 191.161 50.7793C191.08 50.5984 190.96 50.4492 190.8 50.3318C190.644 50.2116 190.461 50.1402 190.25 50.1176C190.046 50.0956 189.853 50.1266 189.671 50.2105C189.49 50.2912 189.34 50.4113 189.219 50.5707C189.099 50.73 189.027 50.9134 189.005 51.1209L188.717 53.7965L187.751 53.6927L188.25 49.0475L189.217 49.1513L189.164 49.6437C189.345 49.469 189.56 49.3386 189.807 49.2524C190.055 49.1662 190.315 49.1378 190.587 49.167C190.931 49.204 191.235 49.3212 191.498 49.5187C191.762 49.7162 191.961 49.9647 192.095 50.2642C192.232 50.5639 192.282 50.8857 192.245 51.2294ZM193.358 49.5964L194.325 49.7003L193.825 54.3455L192.859 54.2416L193.358 49.5964ZM193.923 48.9758C193.774 48.9598 193.656 48.8985 193.567 48.7919C193.478 48.6852 193.442 48.5591 193.457 48.4136C193.473 48.2711 193.535 48.1572 193.644 48.0719C193.754 47.9834 193.882 47.947 194.027 47.9627C194.17 47.978 194.285 48.0405 194.374 48.1502C194.462 48.2569 194.499 48.3814 194.484 48.5239C194.468 48.6694 194.406 48.7849 194.296 48.8702C194.19 48.9559 194.066 48.9911 193.923 48.9758ZM194.9 54.461L195.4 49.8158L196.366 49.9197L196.313 50.412C196.495 50.2374 196.708 50.1067 196.952 50.0202C197.199 49.934 197.459 49.9056 197.732 49.9349C198.063 49.9705 198.359 50.0838 198.621 50.2748C198.883 50.4626 199.081 50.697 199.217 50.9779C199.41 50.7323 199.651 50.5452 199.94 50.4165C200.233 50.2851 200.545 50.2372 200.876 50.2728C201.22 50.3098 201.524 50.427 201.788 50.6245C202.052 50.822 202.252 51.0707 202.389 51.3705C202.526 51.6702 202.576 51.992 202.539 52.3357L202.226 55.2483L201.26 55.1444L201.546 52.4781C201.568 52.2737 201.539 52.081 201.458 51.9001C201.377 51.7191 201.259 51.567 201.103 51.4437C200.947 51.3204 200.767 51.2478 200.563 51.2259C200.358 51.2039 200.167 51.2335 199.989 51.3146C199.811 51.3957 199.664 51.5161 199.546 51.6758C199.429 51.8355 199.358 52.0237 199.335 52.2405L199.049 54.9068L198.082 54.803L198.369 52.1366C198.392 51.9199 198.364 51.721 198.283 51.54C198.202 51.359 198.082 51.2098 197.922 51.0924C197.765 50.9754 197.585 50.9059 197.381 50.8839C197.179 50.8623 196.988 50.8949 196.806 50.9819C196.628 51.0692 196.48 51.1927 196.362 51.3524C196.245 51.5121 196.175 51.6941 196.153 51.8985L195.867 54.5649L194.9 54.461ZM207.179 51.0817L208.145 51.1856L207.646 55.8308L206.675 55.7264L206.71 55.0489C206.549 55.2727 206.344 55.4449 206.096 55.5655C205.848 55.6861 205.566 55.7294 205.25 55.6954C204.909 55.6588 204.596 55.5609 204.309 55.4017C204.023 55.2393 203.777 55.0312 203.573 54.7774C203.371 54.524 203.223 54.2418 203.128 53.9309C203.033 53.6168 203.004 53.2879 203.041 52.9442C203.077 52.6128 203.172 52.3083 203.327 52.0305C203.483 51.7496 203.682 51.511 203.926 51.3148C204.169 51.1185 204.442 50.974 204.743 50.881C205.048 50.7853 205.366 50.7553 205.697 50.7909C206.035 50.8272 206.324 50.9366 206.564 51.119C206.808 51.2987 207.002 51.517 207.147 51.7737L207.179 51.0817ZM205.327 54.7593C205.6 54.7886 205.845 54.7476 206.064 54.6364C206.283 54.5221 206.461 54.3564 206.597 54.1392C206.736 53.9223 206.821 53.6746 206.85 53.3958C206.881 53.114 206.851 52.8524 206.761 52.6109C206.671 52.3694 206.531 52.1711 206.341 52.016C206.154 51.8581 205.925 51.7645 205.652 51.7352C205.383 51.7063 205.129 51.748 204.892 51.8603C204.654 51.9726 204.458 52.1363 204.303 52.3515C204.148 52.5667 204.056 52.8136 204.026 53.0923C203.996 53.3741 204.035 53.6368 204.144 53.8802C204.256 54.121 204.414 54.3213 204.619 54.4811C204.828 54.6383 205.064 54.731 205.327 54.7593ZM211.421 52.515L210.446 52.4101L210.045 56.0886L209.079 55.9848L209.479 52.3063L208.741 52.2269L208.845 51.2607L209.583 51.3401L209.735 49.881L210.701 49.9848L210.549 51.4439L211.525 51.5488L211.421 52.515ZM212.293 51.6313L213.259 51.7352L212.76 56.3804L211.794 56.2765L212.293 51.6313ZM212.858 51.0107C212.709 50.9947 212.59 50.9334 212.502 50.8267C212.413 50.7201 212.376 50.594 212.392 50.4484C212.407 50.306 212.47 50.1921 212.579 50.1067C212.689 50.0183 212.816 49.9819 212.962 49.9975C213.104 50.0128 213.22 50.0754 213.308 50.1851C213.397 50.2918 213.434 50.4163 213.418 50.5588C213.403 50.7043 213.34 50.8198 213.231 50.9051C213.125 50.9908 213 51.026 212.858 51.0107ZM215.821 56.8315C215.393 56.7855 215.015 56.6337 214.685 56.3758C214.359 56.1184 214.111 55.794 213.94 55.4029C213.772 55.009 213.712 54.5875 213.761 54.1385C213.797 53.7978 213.892 53.4869 214.044 53.2057C214.197 52.9214 214.39 52.679 214.625 52.4787C214.863 52.2756 215.13 52.1257 215.425 52.029C215.721 51.9323 216.028 51.9011 216.347 51.9354C216.774 51.9813 217.151 52.1331 217.477 52.3905C217.807 52.6483 218.055 52.9742 218.223 53.3681C218.393 53.7624 218.454 54.1856 218.406 54.6377C218.37 54.9752 218.275 55.2846 218.123 55.5658C217.97 55.8471 217.775 56.0892 217.537 56.2923C217.303 56.4927 217.038 56.6412 216.742 56.7379C216.45 56.8349 216.143 56.8661 215.821 56.8315ZM215.924 55.8653C216.182 55.8929 216.42 55.8495 216.639 55.7352C216.858 55.621 217.038 55.4586 217.18 55.2483C217.325 55.0352 217.411 54.7971 217.44 54.5339C217.469 54.2644 217.433 54.01 217.334 53.7707C217.237 53.5316 217.094 53.3345 216.904 53.1794C216.714 53.0212 216.494 52.9286 216.243 52.9016C215.989 52.8743 215.751 52.9177 215.529 53.0316C215.31 53.1459 215.128 53.3096 214.983 53.5227C214.841 53.7361 214.755 53.976 214.727 54.2423C214.697 54.5179 214.732 54.7739 214.832 55.0102C214.932 55.2464 215.077 55.4421 215.267 55.5973C215.461 55.7496 215.68 55.839 215.924 55.8653ZM223.4 54.5777L223.087 57.4902L222.121 57.3864L222.409 54.7108C222.431 54.5033 222.4 54.3089 222.316 54.1276C222.236 53.9466 222.115 53.7974 221.956 53.68C221.799 53.5598 221.616 53.4885 221.405 53.4658C221.201 53.4439 221.008 53.4748 220.827 53.5587C220.646 53.6395 220.495 53.7596 220.375 53.9189C220.254 54.0782 220.183 54.2617 220.16 54.4691L219.873 57.1448L218.907 57.0409L219.406 52.3957L220.372 52.4996L220.319 52.992C220.501 52.8173 220.715 52.6868 220.963 52.6006C221.21 52.5145 221.47 52.486 221.742 52.5153C222.086 52.5522 222.39 52.6695 222.654 52.867C222.918 53.0645 223.117 53.313 223.25 53.6124C223.387 53.9122 223.437 54.234 223.4 54.5777Z" fill="#1C1B1F"/>
<mask id="mask4_402_545" style="mask-type:alpha" maskUnits="userSpaceOnUse" x="156" y="40" width="15" height="15">
<rect x="158.24" y="40.9748" width="11.8356" height="11.8356" transform="rotate(6.13398 158.24 40.9748)" fill="#D9D9D9"/>
</mask>
<g mask="url(#mask4_402_545)">
<path d="M161.493 52.2362C161.019 52.1853 160.583 52.0475 160.186 51.8229C159.789 51.5984 159.451 51.3141 159.174 50.9702C158.897 50.6263 158.691 50.2363 158.556 49.8002C158.421 49.3641 158.379 48.909 158.43 48.4351C158.501 47.7731 158.737 47.1868 159.14 46.6762C159.542 46.1655 160.036 45.7971 160.622 45.5708C160.82 45.2696 161.052 45.0115 161.319 44.7963C161.586 44.5811 161.888 44.4089 162.224 44.2798C162.554 43.753 163.015 43.3479 163.607 43.0644C164.2 42.7809 164.827 42.6747 165.489 42.7459C165.963 42.7968 166.399 42.9346 166.796 43.1591C167.194 43.3837 167.531 43.668 167.808 44.0119C168.085 44.3558 168.291 44.7458 168.426 45.1819C168.561 45.618 168.603 46.073 168.552 46.547C168.478 47.2416 168.24 47.8361 167.84 48.3304C167.44 48.8247 166.946 49.185 166.36 49.4113C166.162 49.7124 165.93 49.9706 165.663 50.1858C165.396 50.4009 165.094 50.5731 164.758 50.7023C164.412 51.2273 163.947 51.632 163.363 51.9163C162.778 52.2007 162.155 52.3073 161.493 52.2362ZM161.599 51.2556C161.868 51.2845 162.132 51.2716 162.39 51.2166C162.648 51.1617 162.892 51.0639 163.122 50.9233C162.648 50.8724 162.212 50.7346 161.815 50.51C161.418 50.2855 161.08 50.0012 160.803 49.6573C160.526 49.3134 160.32 48.9234 160.185 48.4873C160.05 48.0512 160.008 47.5961 160.059 47.1222C159.872 47.3171 159.725 47.5348 159.617 47.7752C159.508 48.0157 159.439 48.2708 159.41 48.5405C159.373 48.8837 159.405 49.2094 159.504 49.5177C159.603 49.8259 159.751 50.1022 159.948 50.3466C160.145 50.5909 160.383 50.7943 160.663 50.9567C160.944 51.119 161.255 51.2187 161.599 51.2556ZM163.228 49.9427C163.497 49.9716 163.765 49.9591 164.031 49.9051C164.298 49.851 164.546 49.7537 164.776 49.6131C164.294 49.5612 163.854 49.421 163.457 49.1923C163.06 48.9637 162.723 48.6774 162.446 48.3335C162.169 47.9896 161.96 47.5993 161.821 47.1628C161.682 46.7263 161.639 46.2669 161.69 45.7848C161.504 45.9797 161.356 46.2014 161.247 46.4501C161.138 46.6987 161.068 46.9579 161.039 47.2276C161.003 47.5708 161.032 47.8963 161.127 48.2041C161.222 48.5119 161.372 48.7884 161.577 49.0337C161.773 49.2862 162.011 49.4916 162.292 49.6499C162.572 49.8082 162.884 49.9058 163.228 49.9427ZM164.857 48.6298C165.004 48.6456 165.146 48.6485 165.284 48.6384C165.421 48.6284 165.562 48.6064 165.706 48.5723C165.938 48.1012 166.016 47.6322 165.938 47.165C165.86 46.6978 165.682 46.2923 165.405 45.9484C165.128 45.6045 164.769 45.3448 164.33 45.1694C163.89 44.994 163.415 44.9698 162.905 45.0969C162.841 45.2306 162.79 45.3635 162.751 45.4957C162.712 45.6279 162.684 45.7676 162.668 45.9147C162.632 46.2579 162.661 46.5834 162.756 46.8912C162.851 47.199 163.001 47.4756 163.206 47.7208C163.402 47.9733 163.64 48.1787 163.921 48.337C164.202 48.4953 164.513 48.5929 164.857 48.6298ZM166.921 47.8844C167.107 47.6895 167.255 47.4677 167.364 47.2191C167.474 46.9705 167.543 46.7113 167.572 46.4416C167.609 46.0984 167.58 45.7729 167.485 45.4651C167.389 45.1572 167.239 44.8807 167.034 44.6355C166.838 44.383 166.6 44.1775 166.319 44.0193C166.039 43.861 165.727 43.7634 165.384 43.7265C165.098 43.6958 164.826 43.7079 164.568 43.7628C164.309 43.8177 164.065 43.9155 163.835 44.0561C164.318 44.1079 164.757 44.2482 165.154 44.4768C165.551 44.7055 165.888 44.9918 166.165 45.3357C166.443 45.6796 166.651 46.0698 166.79 46.5064C166.929 46.9429 166.973 47.4023 166.921 47.8844Z" fill="#1C1B1F"/>
</g>
<g clip-path="url(#clip0_402_545)">
<rect y="21.7302" width="86.0249" height="30.4672" rx="8.96093" transform="rotate(-14.6317 0 21.7302)" fill="#25D366" fill-opacity="0.1"/>
<path d="M34.5329 31.2641L32.9484 25.1949L33.9238 24.9403L37.8703 28.6517L36.7113 24.2125L37.6131 23.9771L39.1975 30.0463L38.2221 30.301L34.2757 26.5895L35.4346 31.0287L34.5329 31.2641ZM42.1174 29.4045C41.7185 29.5086 41.3276 29.5011 40.9446 29.3819C40.5644 29.2619 40.2312 29.0557 39.9449 28.7631C39.6607 28.4668 39.4639 28.1091 39.3545 27.6901C39.2715 27.3721 39.2505 27.0612 39.2915 26.7572C39.3318 26.4503 39.4231 26.1672 39.5653 25.9078C39.7096 25.6448 39.8978 25.4197 40.1299 25.2325C40.3619 25.0454 40.6268 24.9129 40.9245 24.8352C41.3233 24.7311 41.7128 24.739 42.093 24.8589C42.476 24.9781 42.8096 25.1858 43.0938 25.4821C43.3809 25.7776 43.5795 26.1363 43.6896 26.5583C43.7719 26.8733 43.7925 27.1828 43.7515 27.4868C43.7104 27.7908 43.6177 28.0743 43.4734 28.3373C43.3312 28.5967 43.1441 28.82 42.912 29.0072C42.6828 29.1936 42.4179 29.326 42.1174 29.4045ZM41.882 28.5028C42.1218 28.4401 42.3206 28.3203 42.4781 28.1434C42.6357 27.9664 42.7422 27.7595 42.7977 27.5228C42.8553 27.2824 42.8521 27.0393 42.7879 26.7937C42.7223 26.5423 42.6041 26.3261 42.4334 26.1453C42.2656 25.9638 42.0701 25.8358 41.847 25.7613C41.623 25.6839 41.394 25.6758 41.1599 25.7369C40.9229 25.7988 40.7242 25.9186 40.5637 26.0963C40.4062 26.2733 40.2986 26.4819 40.241 26.7224C40.1862 26.962 40.1913 27.2061 40.2562 27.4547C40.3233 27.7119 40.4419 27.9294 40.6118 28.1073C40.7817 28.2852 40.9783 28.4114 41.2015 28.4859C41.4268 28.5567 41.6536 28.5624 41.882 28.5028ZM46.3231 24.5186L45.4127 24.7563L46.3048 28.1909L45.4031 28.4263L44.511 24.9917L43.8217 25.1716L43.5863 24.2699L44.2756 24.09L43.9159 22.7299L44.8176 22.4945L45.1773 23.8546L46.0877 23.6169L46.3231 24.5186ZM46.8046 23.4297L47.7063 23.1943L48.8381 27.5295L47.9364 27.7649L46.8046 23.4297ZM47.1 22.6812C46.9613 22.7174 46.834 22.7028 46.7181 22.6373C46.6022 22.5719 46.5265 22.4712 46.4911 22.3354C46.4564 22.2025 46.4736 22.0791 46.5427 21.9654C46.611 21.8488 46.7131 21.7727 46.8489 21.7372C46.9819 21.7025 47.1067 21.7194 47.2233 21.7877C47.3392 21.8531 47.4144 21.9523 47.4492 22.0853C47.4846 22.2211 47.4678 22.3459 47.3987 22.4596C47.3325 22.5726 47.2329 22.6465 47.1 22.6812ZM49.6008 21.6486L49.8577 22.6327L51.0802 22.3135L51.3156 23.2152L50.0931 23.5344L50.9895 26.9678L50.0877 27.2032L49.1914 23.7698L48.6755 23.9045L48.4401 23.0028L48.956 22.8681L48.699 21.884C48.6372 21.647 48.6388 21.4166 48.7038 21.1928C48.7681 20.9661 48.882 20.7696 49.0454 20.6035C49.2118 20.4366 49.4149 20.3218 49.6548 20.2592C49.8282 20.2139 50.0063 20.2045 50.1892 20.2308C50.372 20.2572 50.5473 20.3256 50.7151 20.4362L50.2355 21.2421C50.1902 21.1984 50.1352 21.171 50.0706 21.1601C50.0081 21.1455 49.948 21.1458 49.8902 21.1609C49.7833 21.1888 49.7006 21.2505 49.6422 21.346C49.5866 21.4408 49.5728 21.5417 49.6008 21.6486ZM51.7494 22.1388L52.6511 21.9034L53.7829 26.2386L52.8811 26.474L51.7494 22.1388ZM52.0448 21.3902C51.9061 21.4265 51.7788 21.4118 51.6629 21.3464C51.547 21.2809 51.4713 21.1803 51.4359 21.0445C51.4012 20.9115 51.4184 20.7882 51.4875 20.6744C51.5558 20.5578 51.6579 20.4818 51.7937 20.4463C51.9267 20.4116 52.0514 20.4284 52.1681 20.4967C52.284 20.5622 52.3592 20.6614 52.3939 20.7943C52.4294 20.9302 52.4126 21.055 52.3435 21.1687C52.2773 21.2817 52.1777 21.3555 52.0448 21.3902ZM57.2533 24.0174L58.174 24.2448C58.0491 24.5706 57.8565 24.8555 57.596 25.0995C57.3385 25.3427 57.0334 25.5103 56.6808 25.6024C56.282 25.7065 55.891 25.699 55.508 25.5798C55.1278 25.4599 54.7946 25.2536 54.5083 24.961C54.2241 24.6647 54.0273 24.307 53.9179 23.888C53.8349 23.5701 53.8139 23.2591 53.855 22.9551C53.8952 22.6483 53.9865 22.3651 54.1287 22.1057C54.273 21.8427 54.4612 21.6176 54.6933 21.4304C54.9254 21.2433 55.1902 21.1108 55.4879 21.0331C55.8405 20.9411 56.1886 20.9382 56.5322 21.0244C56.8786 21.11 57.1864 21.2658 57.4553 21.4919L56.7633 22.1403C56.6042 22.0275 56.4339 21.9546 56.2524 21.9217C56.0702 21.886 55.8938 21.8903 55.7233 21.9348C55.4863 21.9967 55.288 22.1179 55.1283 22.2986C54.9708 22.4755 54.8632 22.6842 54.8055 22.9246C54.75 23.1614 54.7547 23.404 54.8196 23.6526C54.8838 23.8982 54.9997 24.1118 55.1675 24.2934C55.3346 24.472 55.53 24.6001 55.754 24.6774C55.9808 24.754 56.2113 24.7618 56.4454 24.7007C56.6246 24.6539 56.7845 24.5689 56.9253 24.4457C57.066 24.3226 57.1753 24.1798 57.2533 24.0174ZM61.2946 19.6468L62.1964 19.4114L63.3281 23.7466L62.4221 23.9831L62.2233 23.3636C62.1542 23.6193 62.0291 23.8434 61.8478 24.0358C61.6665 24.2282 61.4284 24.3629 61.1336 24.4399C60.8157 24.5229 60.5011 24.5417 60.1898 24.4964C59.8778 24.4482 59.587 24.3451 59.3172 24.1871C59.0504 24.0283 58.8216 23.8256 58.6306 23.5791C58.439 23.3297 58.3012 23.0446 58.2175 22.7238C58.1367 22.4146 58.1187 22.109 58.1634 21.8072C58.2073 21.5024 58.3051 21.2207 58.4567 20.9619C58.6084 20.7031 58.8035 20.4809 59.0421 20.2951C59.2828 20.1057 59.5578 19.9706 59.867 19.8899C60.1821 19.8076 60.4784 19.8074 60.756 19.8893C61.0357 19.9676 61.2841 20.0972 61.5012 20.2782L61.2946 19.6468ZM60.8845 23.5742C61.1388 23.5078 61.3451 23.3875 61.5034 23.2135C61.661 23.0365 61.7638 22.8275 61.812 22.5865C61.8631 22.3447 61.8547 22.0937 61.7868 21.8336C61.7182 21.5706 61.6025 21.3462 61.4397 21.1602C61.2769 20.9743 61.0839 20.844 60.8608 20.7696C60.6397 20.6914 60.402 20.6856 60.1477 20.752C59.8962 20.8176 59.6831 20.9412 59.5082 21.1227C59.3333 21.3042 59.2131 21.5177 59.1475 21.7633C59.082 22.0088 59.0832 22.2616 59.1511 22.5218C59.2197 22.7848 59.3441 23.007 59.5242 23.1884C59.7065 23.3662 59.9168 23.4919 60.1552 23.5655C60.3957 23.6354 60.6388 23.6383 60.8845 23.5742ZM65.5858 19.4897L64.6754 19.7274L65.5675 23.1619L64.6657 23.3974L63.7737 19.9628L63.0844 20.1427L62.849 19.241L63.5383 19.0611L63.1786 17.701L64.0803 17.4655L64.44 18.8257L65.3504 18.588L65.5858 19.4897ZM66.0673 18.4008L66.969 18.1654L68.1007 22.5006L67.199 22.736L66.0673 18.4008ZM66.3627 17.6523C66.2239 17.6885 66.0966 17.6739 65.9808 17.6084C65.8649 17.543 65.7892 17.4423 65.7538 17.3065C65.7191 17.1735 65.7363 17.0502 65.8053 16.9365C65.8737 16.8198 65.9758 16.7438 66.1116 16.7083C66.2446 16.6736 66.3693 16.6904 66.486 16.7588C66.6018 16.8242 66.6771 16.9234 66.7118 17.0564C66.7473 17.1922 66.7305 17.317 66.6614 17.4307C66.5952 17.5437 66.4956 17.6175 66.3627 17.6523ZM70.9987 21.8644C70.5999 21.9685 70.2089 21.961 69.8259 21.8418C69.4457 21.7219 69.1125 21.5156 68.8262 21.223C68.542 20.9267 68.3452 20.5691 68.2358 20.15C68.1528 19.8321 68.1318 19.5211 68.1729 19.2172C68.2131 18.9103 68.3044 18.6271 68.4466 18.3677C68.5909 18.1047 68.7791 17.8796 69.0112 17.6925C69.2432 17.5053 69.5081 17.3729 69.8058 17.2951C70.2046 17.191 70.5941 17.1989 70.9743 17.3189C71.3573 17.438 71.6909 17.6458 71.9751 17.942C72.2622 18.2375 72.4608 18.5963 72.571 19.0182C72.6532 19.3332 72.6738 19.6427 72.6328 19.9467C72.5917 20.2507 72.499 20.5342 72.3547 20.7973C72.2125 21.0567 72.0254 21.2799 71.7933 21.4671C71.5641 21.6535 71.2993 21.7859 70.9987 21.8644ZM70.7633 20.9627C71.0032 20.9001 71.2019 20.7803 71.3594 20.6033C71.517 20.4263 71.6235 20.2195 71.679 19.9827C71.7366 19.7423 71.7334 19.4993 71.6692 19.2536C71.6036 19.0022 71.4854 18.7861 71.3148 18.6053C71.147 18.4237 70.9515 18.2957 70.7283 18.2212C70.5043 18.1439 70.2753 18.1357 70.0412 18.1969C69.8042 18.2587 69.6055 18.3785 69.4451 18.5562C69.2875 18.7332 69.1799 18.9419 69.1223 19.1823C69.0675 19.4219 69.0726 19.666 69.1375 19.9146C69.2047 20.1718 69.3232 20.3894 69.4931 20.5673C69.6631 20.7452 69.8596 20.8714 70.0828 20.9459C70.3081 21.0167 70.535 21.0223 70.7633 20.9627ZM77.0293 17.2662L77.7389 19.9843L76.8372 20.2198L76.1853 17.7227C76.1347 17.5291 76.041 17.3652 75.9041 17.2312C75.7702 17.0963 75.6116 17.0034 75.4285 16.9525C75.2475 16.8978 75.0588 16.8962 74.8623 16.9475C74.6715 16.9973 74.5091 17.0906 74.3751 17.2275C74.2403 17.3615 74.1459 17.5204 74.092 17.7042C74.0382 17.8881 74.0365 18.0768 74.0871 18.2705L74.739 20.7675L73.8372 21.0029L72.7055 16.6678L73.6072 16.4324L73.7271 16.8919C73.8307 16.6735 73.9787 16.4836 74.1711 16.3222C74.3636 16.1608 74.587 16.0469 74.8414 15.9805C75.1622 15.8968 75.4744 15.8986 75.7782 15.986C76.0819 16.0734 76.3447 16.2286 76.5665 16.4516C76.7913 16.6739 76.9455 16.9454 77.0293 17.2662Z" fill="#1C1B1F"/>
<mask id="mask5_402_545" style="mask-type:alpha" maskUnits="userSpaceOnUse" x="11" y="25" width="15" height="15">
<rect x="11.6626" y="28.564" width="11.3503" height="11.3503" transform="rotate(-14.6317 11.6626 28.564)" fill="#D9D9D9"/>
</mask>
<g mask="url(#mask5_402_545)">
<path d="M15.7633 36.7805L15.5244 35.8653L16.4396 35.6264L15.6033 32.4232C15.4381 31.7902 15.4819 31.178 15.7348 30.5865C15.9877 29.9951 16.3993 29.5434 16.9696 29.2316L16.886 28.9113C16.8362 28.7206 16.8606 28.5412 16.9592 28.3729C17.0579 28.2045 17.2025 28.0955 17.3932 28.0457C17.5838 27.9959 17.7633 28.0204 17.9316 28.119C18.0999 28.2176 18.209 28.3623 18.2587 28.5529L18.3424 28.8732C18.9923 28.8665 19.5722 29.0593 20.0819 29.4516C20.5917 29.844 20.9292 30.3567 21.0944 30.9897L21.9307 34.1928L22.8459 33.9539L23.0848 34.8691L15.7633 36.7805ZM19.7824 37.1976C19.5308 37.2633 19.2919 37.2299 19.0659 37.0975C18.8399 36.965 18.694 36.773 18.6283 36.5213L20.4587 36.0435C20.5244 36.2951 20.491 36.534 20.3586 36.76C20.2262 36.986 20.0341 37.1319 19.7824 37.1976ZM17.3548 35.3875L21.0155 34.4318L20.1792 31.2286C20.0478 30.7253 19.7561 30.3411 19.3041 30.0763C18.8521 29.8114 18.3744 29.7447 17.871 29.8761C17.3677 30.0075 16.9836 30.2992 16.7187 30.7513C16.4538 31.2033 16.3871 31.681 16.5185 32.1843L17.3548 35.3875Z" fill="#1C1B1F"/>
</g>
</g>
<rect x="0.546694" y="22.0506" width="85.1288" height="29.5711" rx="8.51288" transform="rotate(-14.6317 0.546694 22.0506)" stroke="#616063" stroke-width="0.896093"/>
<rect x="0.546694" y="22.0506" width="85.1288" height="29.5711" rx="8.51288" transform="rotate(-14.6317 0.546694 22.0506)" stroke="#25D366" stroke-width="0.896093"/>
<defs>
<clipPath id="clip0_402_545">
<rect y="21.7302" width="86.0249" height="30.4672" rx="8.96093" transform="rotate(-14.6317 0 21.7302)" fill="white"/>
</clipPath>
</defs>
</svg>
