<svg xmlns="http://www.w3.org/2000/svg" viewBox="0 0 500 500"><g id="freepik--Character--inject-193"><path d="M346.69,428.11s-4.49,10.15-2.94,19.25-.2,19.86,3.78,21.75,5.7-.3,5.93-4.56.73-10.82.86-15.85a46.57,46.57,0,0,1,.41-6.4l1.7-13.66Z" style="fill:#ffbf9d"></path><path d="M363.92,422.17s6.24,24.88,6.22,28-2,7.4-2,7.4-1.89,10.91-2.91,12.23S354,472.83,354,472.83l-6.51-3.72,2.64-5.66,5.61.92,1.3-4.67-3.65-5.4-3.11-26Z" style="fill:#ffbf9d"></path><path d="M357.41,441.37a6,6,0,0,1-.34,1.28c-.24.82-.61,2-1,3.47a67.62,67.62,0,0,0-2,11.68c-.1,1.16-.15,2.29-.19,3.38a27.14,27.14,0,0,1-.2,3.18,6.23,6.23,0,0,1-2.65,4.66,3.51,3.51,0,0,1-3.59.06,2.64,2.64,0,0,1-.74-.69.8.8,0,0,1-.15-.31,4,4,0,0,0,1,.82,3.36,3.36,0,0,0,3.3-.19,6,6,0,0,0,2.37-4.41,28.23,28.23,0,0,0,.16-3.13c0-1.1.08-2.24.18-3.41A57.87,57.87,0,0,1,355.73,446c.43-1.47.85-2.63,1.15-3.43A6.89,6.89,0,0,1,357.41,441.37Z" style="fill:#ff9a6c"></path><path d="M346.69,428.11l-4.51-15.37s16.47-11.64,17.37-10.88,5,23,5,23l-8.45,9.07Z" style="fill:#ffbf9d"></path><path d="M313.67,199.92c-5.58-8.41-34.9-16.61-34.9-16.61l7.87,6.57,17,91.73,37.6,135.22,29.29-5.48S332.66,228.47,313.67,199.92Z" style="fill:#FF725E"></path><path d="M330.52,380.08l-69.23,34s-5.5,41.22-.77,69.66h62.6C339,429.12,330.52,380.08,330.52,380.08Z" style="fill:#263238"></path><path d="M271.4,419,198.6,359.9s-29.25,44.51-20,88.79c1.38,6.64,5.76,25.48,8.63,35.06h86C271,452.45,271.4,419,271.4,419Z" style="fill:#263238"></path><path d="M330.86,381.05c.27-.1-58.8,43.17-58.8,43.17l-79.19-53.77,14.61-28S248,359.77,269,355.43s44-23.09,44-23.09C318.24,343.59,327.63,368.58,330.86,381.05Z" style="fill:#263238"></path><path d="M291.73,392l-1.07,1.48-4.11,5.83c-3.59,5.14-8.8,12.61-15.38,22.06l-.06.08v.1c.75,8.25,1,17.85,1.54,28.52s.14,21.11.74,33.73l.84,0c-.65-12.62-.32-23-.86-33.72s-.9-20.2-1.7-28.44l15.12-22.12,4-5.91,1-1.53a2.78,2.78,0,0,0,.32-.53A3.64,3.64,0,0,0,291.73,392Z" style="fill:#455a64"></path><path d="M288.26,81.46A31.37,31.37,0,0,1,299.9,108c-.38,4.87-1.72,10.44,1.45,14.16s9.3,3.57,12.3,7.36c3.54,4.46.58,11.1,1.85,16.66a11.26,11.26,0,0,0,12,8.37A44,44,0,0,1,305.67,164l-6.1-7.84c2.31,2.75,1.7,7.12-.54,9.92s-5.7,4.33-9.12,5.42a55.84,55.84,0,0,1-48.94-8" style="fill:#263238"></path><path d="M196.64,124.52c1.23-3.74,3.27-7.2,4.1-11,1.76-8.26-2.26-17.56,1.74-25,2.86-5.29,8.93-7.88,14.68-9.65s11.91-3.27,16.2-7.49c3.14-3.09,4.93-7.35,8.06-10.46,4.46-4.42,11.05-5.92,17.33-6.31,6.44-.39,13.1.23,18.89,3.07s10.6,8.18,11.63,14.55c.51,3.11.13,6.36,1.11,9.35,1.07,3.29,3.65,5.85,5.25,8.92a16.56,16.56,0,0,1-4.14,19.84l-44.22,57.11c-9.29,3.51-31.8-.73-39-7.59S193.56,134,196.64,124.52Z" style="fill:#263238"></path><path d="M290.32,103c-1.82-13-11.68-28.29-24.56-25.92L226,90.48c-3.91.72-1.11,7.1-.73,11.06l8.65,89.66c-.07,0-5.37,3.83-7.29,3.1a.54.54,0,0,0-.64.81c4.77,6.93,27.31,37.24,50.54,28,5.19-2.06-.55-18.41.06-24.47l-.69-15.48c-.51-7.9-.76-11.13-.75-11.06s16.43-4,18.21-26C294.25,135.12,292.35,117.45,290.32,103Z" style="fill:#ffbf9d"></path><path d="M283.65,122.57a2.79,2.79,0,0,1-2.47,3,2.67,2.67,0,0,1-3.06-2.29,2.79,2.79,0,0,1,2.46-3A2.68,2.68,0,0,1,283.65,122.57Z" style="fill:#263238"></path><path d="M256.39,124a2.79,2.79,0,0,1-2.47,3,2.67,2.67,0,0,1-3.06-2.29,2.79,2.79,0,0,1,2.47-3A2.67,2.67,0,0,1,256.39,124Z" style="fill:#263238"></path><path d="M288.55,113.81c-.3.52-2.89-1.12-6.14-.65s-5.33,2.7-5.75,2.28c-.21-.18,0-1,.95-2.08a7.38,7.38,0,0,1,9.49-1.3C288.24,112.81,288.7,113.58,288.55,113.81Z" style="fill:#263238"></path><path d="M259.41,116.22c-.38.47-2.93-1.38-6.42-1.23s-6,2.12-6.37,1.68c-.19-.2.18-1,1.26-2a8.42,8.42,0,0,1,5.07-1.9,8.22,8.22,0,0,1,5.13,1.54C259.19,115.2,259.6,116,259.41,116.22Z" style="fill:#263238"></path><path d="M270.35,136.77c0-.17,1.81-.64,4.8-1.25.76-.14,1.47-.35,1.56-.88a3.87,3.87,0,0,0-.68-2.23c-.86-1.8-1.77-3.68-2.71-5.66-3.78-8-6.58-14.7-6.26-14.85s3.66,6.26,7.44,14.32l2.62,5.69a4.45,4.45,0,0,1,.62,3,1.93,1.93,0,0,1-1.17,1.21,5,5,0,0,1-1.28.28C272.26,136.78,270.38,136.94,270.35,136.77Z" style="fill:#263238"></path><path d="M275.15,172.08a55.4,55.4,0,0,1-29.69-5.52s8.49,14.68,30.07,11Z" style="fill:#ff9a6c"></path><path d="M261.21,145.52a4.59,4.59,0,0,1,1.54-1.83,3.71,3.71,0,0,1,2.59-.26,6.13,6.13,0,0,1,3.4,1.72,3.65,3.65,0,0,1,.85,3.59h0c-.33,1.26-2.2,1.94-3.48,2.17a5.75,5.75,0,0,1-3.74-.79,3.28,3.28,0,0,1-1.91-2.47A4,4,0,0,1,261.21,145.52Z" style="fill:#ff9a6c"></path><path d="M261.82,141.3c.49-.07.74,3.18,3.71,5.28s6.39,1.47,6.45,1.92c.07.2-.72.7-2.18.85a8.15,8.15,0,0,1-5.38-1.42,7,7,0,0,1-2.89-4.45C261.3,142.13,261.6,141.3,261.82,141.3Z" style="fill:#263238"></path><path d="M259.15,104.49c-.23.84-3.26.68-6.74,1.37s-6.26,1.88-6.78,1.18c-.23-.33.2-1.14,1.29-2a11.94,11.94,0,0,1,10.3-1.94C258.55,103.5,259.25,104.09,259.15,104.49Z" style="fill:#263238"></path><path d="M286.7,102.85c-.55.72-3,.2-5.8.38s-5.21.86-5.82.19c-.26-.32.06-1,1.06-1.76a9,9,0,0,1,4.63-1.48,8.85,8.85,0,0,1,4.73,1C286.56,101.82,286.94,102.49,286.7,102.85Z" style="fill:#263238"></path><path d="M217.21,93.61c2-3.09,5.61-4.68,9-6A200,200,0,0,1,272.3,75.88c2,3.23.15,7.63-2.81,10s-6.76,3.28-10.3,4.61-7.17,3.36-8.63,6.85c-1.55,3.71-.24,8.1-1.6,11.88-2.35,6.51-11.43,8.6-13.74,15.12-1.74,4.94,1.12,10.18,1.83,15.37A18.69,18.69,0,0,1,218.69,161q-1.6-28-3.23-56C215.24,101.06,215.09,96.87,217.21,93.61Z" style="fill:#263238"></path><path d="M179.59,140.78c2.95-2.65,6.65-4.93,7.83-8.71,1.71-5.51-2.72-12,.13-17,2.6-4.57,10.25-4.34,12.67-9,1.89-3.65-.28-6.88.44-10.08s5.26-6,8.52-5.64l25.5,37c2.37,12.4,4.75,19,2.09,26.25-1.46,4-3.36,7.85-3.93,12.05s.5,9,3.93,11.44c-15.25,1.2-29.53-6.78-42.74-14.5l-14-8.16a10.25,10.25,0,0,1-3.84-3.2C174.17,147.78,176.65,143.42,179.59,140.78Z" style="fill:#263238"></path><path d="M193.65,158.8a7.29,7.29,0,0,0,1.63.31,13.75,13.75,0,0,0,4.75-.34,14.64,14.64,0,0,0,6.62-3.56A14.43,14.43,0,0,0,211,146.3a14.73,14.73,0,0,0-.5-5.85,23.48,23.48,0,0,0-2.83-5.67,22.75,22.75,0,0,1-2.92-5.88c-.56-2.12-.56-4.64.82-6.46s4-2.31,6.35-3.28a7,7,0,0,0,3.25-2.41,6.73,6.73,0,0,0,1-4c0-2.79-1.22-5.35-1.73-7.94a8.71,8.71,0,0,1,0-3.9,5.48,5.48,0,0,1,2.2-3.09c2.2-1.57,5-1.82,7.72-2.06a16.57,16.57,0,0,0,7.85-2.31,14.76,14.76,0,0,0,5.38-5.83,24.67,24.67,0,0,0,2-7.31,33.4,33.4,0,0,1,1.49-6.85,15.3,15.3,0,0,1,3.59-5.41,17.14,17.14,0,0,1,20-2.81,21,21,0,0,1,5.87,4.48,27.54,27.54,0,0,1,3.63,5.2,1.9,1.9,0,0,0-.15-.4c-.12-.25-.26-.64-.53-1.12a20,20,0,0,0-2.7-3.91,20.78,20.78,0,0,0-5.89-4.69,18,18,0,0,0-9.73-2.15,18.18,18.18,0,0,0-11,4.87,15.89,15.89,0,0,0-3.81,5.66,34.54,34.54,0,0,0-1.57,7,23.55,23.55,0,0,1-1.94,7,13.91,13.91,0,0,1-5.08,5.48,15.65,15.65,0,0,1-7.48,2.17c-2.67.24-5.68.47-8.14,2.22a6.24,6.24,0,0,0-2.54,3.58,9.6,9.6,0,0,0,0,4.3c.56,2.75,1.71,5.22,1.73,7.78a6,6,0,0,1-.89,3.5,6.1,6.1,0,0,1-2.86,2.11c-1.14.48-2.37.81-3.55,1.31a7.22,7.22,0,0,0-3.13,2.25,8.33,8.33,0,0,0-.92,7.16,22.73,22.73,0,0,0,3.05,6.07,23.3,23.3,0,0,1,2.8,5.48,14.3,14.3,0,0,1,.53,5.58,14.05,14.05,0,0,1-4.08,8.62,14.61,14.61,0,0,1-6.37,3.59A16.59,16.59,0,0,1,193.65,158.8Z" style="fill:#455a64"></path><path d="M173.32,132.52a3.26,3.26,0,0,0-.51,1.25,5.48,5.48,0,0,0,.66,3.78,5.73,5.73,0,0,0,1.95,2,6,6,0,0,0,3.25.87,7.63,7.63,0,0,0,6.68-4.24,10.15,10.15,0,0,0,1.09-4.65,14.33,14.33,0,0,0-1.07-5c-1.21-3.3-3.41-6.51-3.46-10.37a7.08,7.08,0,0,1,1.77-5.24c1.36-1.37,3.46-1.71,5.54-1.73s4.37.2,6.61-.68a5.81,5.81,0,0,0,2.71-2.29,8.1,8.1,0,0,0,1.11-3.36,26.84,26.84,0,0,0-.55-6.78,14.88,14.88,0,0,1,.36-6.28,15.84,15.84,0,0,1,7.09-9.31c3.31-2,7.13-2.21,10.57-2.42s6.82-.4,9.65-1.52a20.25,20.25,0,0,0,6.84-4.3,20,20,0,0,0,3.74-4.8,14.6,14.6,0,0,0,1.81-4.84,27.79,27.79,0,0,1-2.11,4.66A20.43,20.43,0,0,1,226.56,76c-2.74,1-6,1.22-9.48,1.38s-7.41.34-10.94,2.44a16.59,16.59,0,0,0-7.52,9.78,15.62,15.62,0,0,0-.39,6.64c.28,2.2.81,4.39.54,6.55a5.69,5.69,0,0,1-3.28,4.94c-1.93.78-4.14.57-6.29.63s-4.51.37-6.12,2a7.88,7.88,0,0,0-2,5.86,15,15,0,0,0,1.4,5.68c.74,1.73,1.56,3.33,2.19,4.94a13.64,13.64,0,0,1,1.07,4.78,9.51,9.51,0,0,1-1,4.35,7.07,7.07,0,0,1-6.12,4,5.7,5.7,0,0,1-3-.73,5.54,5.54,0,0,1-1.87-1.86,5.45,5.45,0,0,1-.78-3.58A10.54,10.54,0,0,1,173.32,132.52Z" style="fill:#263238"></path><path d="M334,141.63a6,6,0,0,1-.05,4,5.27,5.27,0,0,1-3.16,3.21,5.51,5.51,0,0,1-5.6-1.53,5,5,0,0,1-1.31-3.19,10.57,10.57,0,0,1,.58-3.86c.81-2.58,2.46-5.39,2.21-8.75a12.3,12.3,0,0,0-4.64-8.82,14.32,14.32,0,0,0-4.75-2.5,21.26,21.26,0,0,0-5.43-.78,28,28,0,0,1-5.27-.55,7,7,0,0,1-4.1-2.55,8.54,8.54,0,0,1-1.49-4.51,17.15,17.15,0,0,1,.4-4.7c.62-3,1.54-6,1.37-8.92A13.59,13.59,0,0,0,300,90.76a17.34,17.34,0,0,0-5-4.2,32.17,32.17,0,0,1-4-2.74,10.18,10.18,0,0,1-2.5-3.21.85.85,0,0,0,.07.27,4.54,4.54,0,0,0,.3.74,8.16,8.16,0,0,0,1.9,2.46,30.92,30.92,0,0,0,3.93,2.9,17.14,17.14,0,0,1,4.74,4.16A12.93,12.93,0,0,1,302,98.2c.13,2.75-.77,5.62-1.43,8.72a17.44,17.44,0,0,0-.44,4.93,9.39,9.39,0,0,0,1.63,5,7.85,7.85,0,0,0,4.59,2.89,29.39,29.39,0,0,0,5.44.58A20.17,20.17,0,0,1,317,121a13.62,13.62,0,0,1,4.47,2.33,11.5,11.5,0,0,1,4.36,8.19c.27,3.07-1.26,5.77-2.09,8.48a11.37,11.37,0,0,0-.57,4.13,5.72,5.72,0,0,0,1.54,3.57,6,6,0,0,0,6.22,1.57,5.82,5.82,0,0,0,3.48-6.67A3.4,3.4,0,0,0,334,141.63Z" style="fill:#263238"></path><path d="M292.06,188.06S312.7,223.42,320.11,240c4.12,9.23,5.13,26.67-1.69,53.39-5.11,20,5.68,47.18,7.32,51.07,3.7,8.79-19.95,21.12-23.25,23.3-29.25,19.28-94.82-16.13-94.82-16.13l18-40.27-15.18-34-5.63-88.57,28-9.75c14.87,7.32,36.85,7.5,42.92,3.25Z" style="fill:#FF725E"></path><path d="M289.48,373.51l.45-.13,1.32-.31,2.16-.49,2.87-.93c1.09-.32,2.22-.88,3.51-1.38s2.58-1.26,4-2a63.1,63.1,0,0,0,9-6.18,66.44,66.44,0,0,0,9.29-9.42c.39-.46.73-.95,1.1-1.43s.72-1,1.06-1.49.68-1,1-1.56a6.35,6.35,0,0,0,.44-.81l.21-.41.11-.41a14.82,14.82,0,0,0-.25-3.78c-.21-1.28-.47-2.58-.77-3.89-1.18-5.23-2.71-10.66-4.27-16.3-.79-2.82-1.59-5.68-2.36-8.6-.39-1.47-.77-2.94-1.1-4.44-.17-.75-.32-1.51-.42-2.3a23,23,0,0,1-.08-2.34c.11-6.21.76-12.2,1.39-18v0h0c2.51-9.92,4.71-19.33,5.08-28a36.74,36.74,0,0,0-.24-6.25,43.85,43.85,0,0,0-1.38-5.72,84.21,84.21,0,0,0-3.7-9.84,111,111,0,0,0-7.07-13.29c-.93-1.5-1.68-2.63-2.2-3.4-.24-.37-.44-.65-.58-.87a1.48,1.48,0,0,1-.19-.3l.23.28c.14.18.35.46.62.84.54.75,1.32,1.87,2.27,3.36A102.77,102.77,0,0,1,318.24,237a80.6,80.6,0,0,1,3.77,9.86,42.69,42.69,0,0,1,1.43,5.77,37.68,37.68,0,0,1,.27,6.33c-.35,8.7-2.54,18.14-5,28.06v0c-.62,5.78-1.28,11.79-1.38,17.94a21.72,21.72,0,0,0,.08,2.29c.1.74.24,1.49.41,2.24.33,1.48.7,3,1.09,4.41.77,2.92,1.57,5.79,2.35,8.61,1.56,5.63,3.08,11.07,4.25,16.33.3,1.31.55,2.62.76,3.92a14.71,14.71,0,0,1,.24,3.92c-.05.17-.09.35-.14.51l-.22.44a7.51,7.51,0,0,1-.46.84c-.33.55-.66,1.08-1,1.58s-.7,1-1.08,1.5-.72,1-1.11,1.44a65.44,65.44,0,0,1-9.4,9.43,62.51,62.51,0,0,1-9.1,6.16c-1.45.7-2.78,1.43-4.06,1.95s-2.45,1-3.55,1.35l-2.89.87c-.86.2-1.59.33-2.18.46l-1.33.26Z" style="fill:#263238"></path><g style="opacity:0.30000000000000004"><path d="M324.94,335.35a121.82,121.82,0,0,1-2.75-44.64c1.51-12.1,3.95-24.37,1.35-36.28.09,11-2.19,19.51-5.12,32.53-2.75,12.26-1,18.22-.83,22.82"></path></g><path d="M207.67,351.63s5.39,2.46,10.34-5.1S229,313.66,229.79,311c.53-1.72,2.39-54.75,2.39-54.75l-8.63,50.33,2.16,4.83c-2.54,6.88-4.63,10-7.16,16.64C214.88,337.66,210.82,349.89,207.67,351.63Z" style="opacity:0.30000000000000004"></path><path d="M230.41,255.86s-8.87,86.89-22.74,95.77c-3.46,2.22-7.67,2.92-12,2.72-15.52-.69-27.58-13.83-27.63-29.36,0-18.43,3.07-43.47,4.26-53.77,2.38-20.62,10.74-76.68,32.63-82.45s25.51,25.63,25.51,25.63Z" style="fill:#FF725E"></path><path d="M174.61,183.35s-4,5.32-4,11c0,1.63,3,13.42,3,13.42L186,217.3l23.14,7.47-1.85,12.93,19.91,3.38s.4-15.31,0-25-12-19.36-12-19.36-9.65-11.63-13.79-11-3.94,5.13-2,7.69,7.49,8.67,7.49,8.67l-22.86-2-6.9-5.91s2.28-6,1.58-8.08A3.71,3.71,0,0,0,174.61,183.35Z" style="fill:#ffbf9d"></path><path d="M177,199.64a12.07,12.07,0,0,1,2.16,1.3c1.29.86,3.07,2.07,5,3.44l.39.27h-.3a7.74,7.74,0,0,1,5.67-1.16,6.51,6.51,0,0,1,1.67.54c.37.19.56.33.54.35s-.84-.35-2.26-.53a7.77,7.77,0,0,0-5.32,1.23l-.15.1-.15-.1-.39-.28c-1.93-1.36-3.67-2.63-4.91-3.56A12.81,12.81,0,0,1,177,199.64Z" style="fill:#ff9a6c"></path><path d="M176.08,209.17c.12.07-5.6,10.65-12.77,23.64s-13.1,23.46-13.23,23.39,5.59-10.65,12.77-23.64S176,209.1,176.08,209.17Z" style="fill:#263238"></path><path d="M187.13,200.2c.14,0-.29,10-1,22.21s-1.34,22.2-1.48,22.19.28-9.95,1-22.22S187,200.19,187.13,200.2Z" style="fill:#263238"></path><path d="M188.07,200.44c.15,0,1.1,10.88,2.14,24.31s1.75,24.34,1.61,24.35-1.1-10.87-2.13-24.31S187.93,200.45,188.07,200.44Z" style="fill:#263238"></path><polygon points="73.29 390.72 134.81 249.01 207.16 231.17 146.78 382.53 73.29 390.72" style="fill:#455a64"></polygon><polygon points="105.23 406.35 73.29 390.72 146.78 382.53 187.61 401.83 105.23 406.35" style="fill:#455a64"></polygon><polygon points="105.23 406.35 73.29 390.72 146.78 382.53 187.61 401.83 105.23 406.35" style="opacity:0.30000000000000004"></polygon><polygon points="207.16 231.17 208.78 237.78 219.99 237.44 187.61 401.83 146.78 382.53 207.16 231.17" style="fill:#455a64"></polygon><path d="M207.16,231.17s-.06.19-.2.56-.35.92-.62,1.62c-.56,1.44-1.37,3.53-2.42,6.21-2.14,5.41-5.21,13.2-9,22.82-7.67,19.26-18.24,45.84-29.92,75.2l-18,45-.32-.3,27.08-13.57.19-.09.07.19c4.22,10.16,7.63,18.4,10,24.11,1.17,2.83,2.07,5,2.7,6.56.29.74.52,1.31.69,1.72s.21.59.21.59-.1-.19-.27-.57l-.73-1.7c-.65-1.51-1.59-3.7-2.79-6.52l-10.15-24,.25.09-27,13.65-.55.28.23-.58c5.42-13.62,11.52-28.92,17.95-45.06,11.73-29.33,22.36-55.89,30.05-75.14,3.87-9.59,7-17.36,9.17-22.75,1.09-2.67,1.93-4.75,2.52-6.18.28-.69.51-1.22.66-1.6S207.16,231.17,207.16,231.17Z" style="fill:#263238"></path><path d="M208.78,237.78c.13,0-7.57,29.42-17.22,65.63S174,369,173.84,368.92s7.57-29.42,17.22-65.64S208.64,237.74,208.78,237.78Z" style="fill:#263238"></path><polygon points="207.16 231.17 208.78 237.78 173.84 368.92 146.78 382.53 207.16 231.17" style="opacity:0.30000000000000004"></polygon><path d="M171.22,197.73c.11.09-9.63,10.84-21.75,24s-22,23.74-22.14,23.64,9.63-10.84,21.75-24S171.11,197.63,171.22,197.73Z" style="fill:#263238"></path><polygon points="50.54 356.95 112.06 235.6 184.4 220.33 124.02 349.93 50.54 356.95" style="fill:#FF725E"></polygon><polygon points="82.48 370.33 50.54 356.95 124.02 349.93 164.86 366.45 82.48 370.33" style="fill:#FF725E"></polygon><polygon points="82.48 370.33 50.54 356.95 124.02 349.93 164.86 366.45 82.48 370.33" style="opacity:0.30000000000000004"></polygon><polygon points="184.4 220.33 186.02 225.99 197.24 225.7 164.86 366.45 124.02 349.93 184.4 220.33" style="fill:#FF725E"></polygon><path d="M184.4,220.33s-.06.17-.2.49l-.62,1.41c-.58,1.26-1.41,3.07-2.47,5.4-2.17,4.71-5.29,11.48-9.15,19.83-7.77,16.74-18.5,39.84-30.35,65.34-6.19,13.27-12.08,25.88-17.37,37.23l-.31-.32L151,338.11l.16-.07.08.16,10,20.65c1.16,2.43,2.07,4.32,2.69,5.63l.69,1.47c.15.33.22.51.22.51s-.1-.16-.27-.49l-.74-1.45-2.78-5.58-10.15-20.58.24.09-27,11.7-.58.25.26-.57c5.29-11.35,11.16-24,17.33-37.25l30.5-65.27c3.92-8.33,7.09-15.08,9.3-19.76l2.55-5.36.68-1.39C184.31,220.48,184.4,220.33,184.4,220.33Z" style="fill:#263238"></path><path d="M186,226c.14,0-7.57,25.21-17.22,56.22s-17.58,56.11-17.72,56.07,7.58-25.21,17.22-56.23S185.88,225.94,186,226Z" style="fill:#263238"></path><polygon points="184.4 220.33 186.02 225.99 151.08 338.28 124.02 349.93 184.4 220.33" style="opacity:0.30000000000000004"></polygon><path d="M141.65,229.35a5.84,5.84,0,0,1,.76-.21l2.19-.51,8.07-1.79,26.68-5.71,5-1,.24-.05.06.23,1.61,5.66-.25-.18,11.22-.26h.28l-.07.26c-1.14,4.79-2.08,8.76-2.76,11.59-.33,1.34-.6,2.42-.79,3.2-.09.34-.17.62-.23.84s-.08.29-.1.28a1.58,1.58,0,0,1,0-.29c0-.23.1-.51.16-.85l.69-3.24c.63-2.83,1.51-6.82,2.58-11.62l.21.26-11.21.33h-.2l-.05-.18c-.52-1.83-1.07-3.72-1.63-5.66l.31.18-5,1.06-26.71,5.56-8.11,1.63-2.21.41A4,4,0,0,1,141.65,229.35Z" style="fill:#263238"></path><path d="M187.69,211.31a16.93,16.93,0,0,0-2.56-3,11.48,11.48,0,0,0-3.64-2.1c-.75-.27-1.57-.38-2.46-.66a3,3,0,0,1-1.25-.73,2.63,2.63,0,0,1-.66-1.36c-.18-1-.07-1.88-.21-2.74a11.33,11.33,0,0,0-.58-2.41,8.1,8.1,0,0,0-1-2,2.76,2.76,0,0,0-1.5-1.08,2.26,2.26,0,0,0-1.51,0,1.5,1.5,0,0,0-.79.8c-.26.61-.27,1-.33,1s0-.1,0-.28a2.47,2.47,0,0,1,.16-.8,1.66,1.66,0,0,1,.86-1,2.55,2.55,0,0,1,1.73,0,3.16,3.16,0,0,1,1.73,1.18,8.62,8.62,0,0,1,1.09,2.09,11.08,11.08,0,0,1,.64,2.52c.14.89.05,1.85.21,2.7a2.09,2.09,0,0,0,.52,1.1,2.51,2.51,0,0,0,1,.61c.79.26,1.67.39,2.45.69a11.18,11.18,0,0,1,3.72,2.27,10.24,10.24,0,0,1,1.86,2.27A3.24,3.24,0,0,1,187.69,211.31Z" style="fill:#ff9a6c"></path><path d="M175.69,183.46c.06,0-.45.67-1.11,1.76a20.36,20.36,0,0,0-2,4.55c-1.15,3.74-1.22,7-1.4,6.95a6.52,6.52,0,0,1,0-2.1,23.12,23.12,0,0,1,.93-5,16.31,16.31,0,0,1,2.2-4.6A5.48,5.48,0,0,1,175.69,183.46Z" style="fill:#ff9a6c"></path><path d="M178.47,195.3c.14.06-2.54,6.57-6,14.56s-6.33,14.4-6.46,14.35,2.54-6.58,6-14.56S178.34,195.24,178.47,195.3Z" style="fill:#263238"></path><path d="M180.51,197c.13,0-1.34,5.78-3.29,12.82s-3.65,12.71-3.79,12.67,1.33-5.77,3.29-12.81S180.37,197,180.51,197Z" style="fill:#263238"></path><path d="M212.69,202.9a87,87,0,0,1-9.67-.71A88,88,0,0,1,193.4,201a91.79,91.79,0,0,1,9.67.72A92.25,92.25,0,0,1,212.69,202.9Z" style="fill:#ff9a6c"></path><path d="M209.16,193.52a6.76,6.76,0,0,1-4.22,3.56,21.59,21.59,0,0,1,2.16-1.73C208.25,194.39,209,193.43,209.16,193.52Z" style="fill:#ff9a6c"></path><path d="M220,239.85l.24,0,.7.1,2.72.46,10.26,1.82.14,0,0,.14c-1.33,12.2-3.78,31.76-8,53.52-1.8,9.26-3.79,18-5.78,25.94s-3.63,15.12-6,20.86c-1.18,2.84-2.59,5.4-4.5,7a17.64,17.64,0,0,1-5.29,3.41,14.92,14.92,0,0,1-3.85,1,9.62,9.62,0,0,1-1.39.09,2.49,2.49,0,0,1,.35-.05c.23,0,.58-.07,1-.14a16.56,16.56,0,0,0,3.79-1.11,17.54,17.54,0,0,0,5.17-3.45,17.83,17.83,0,0,0,4.35-6.93c2.29-5.72,4-12.87,5.85-20.84,2-7.92,3.94-16.67,5.74-25.92,4.25-21.74,6.79-41.28,8.24-53.45l.13.17-10.23-2-2.7-.54-.7-.15A1,1,0,0,1,220,239.85Z" style="fill:#263238"></path></g></svg>
