<svg id="visual" viewBox="0 0 1920 1080" width="1920" height="1080" xmlns="http://www.w3.org/2000/svg" xmlns:xlink="http://www.w3.org/1999/xlink" version="1.1"><rect x="0" y="0" width="1920" height="1080" fill="#002233"></rect><path d="M0 753L40 731.7C80 710.3 160 667.7 240 669.5C320 671.3 400 717.7 480 700.2C560 682.7 640 601.3 720 597.8C800 594.3 880 668.7 960 681.2C1040 693.7 1120 644.3 1200 646.2C1280 648 1360 701 1440 693C1520 685 1600 616 1680 611.5C1760 607 1840 667 1880 697L1920 727L1920 1081L1880 1081C1840 1081 1760 1081 1680 1081C1600 1081 1520 1081 1440 1081C1360 1081 1280 1081 1200 1081C1120 1081 1040 1081 960 1081C880 1081 800 1081 720 1081C640 1081 560 1081 480 1081C400 1081 320 1081 240 1081C160 1081 80 1081 40 1081L0 1081Z" fill="#0066FF" stroke-linecap="round" stroke-linejoin="miter"></path></svg>